<svg width="1884" height="1035" viewBox="0 0 1884 1035" fill="white" xmlns="http://www.w3.org/2000/svg">
<path d="M480.707 173.395C462.458 181.777 458.627 205.527 473.347 219.098C475.969 221.493 476.674 222.59 475.364 222.291C471.936 221.393 465.382 223.788 462.66 226.981C456.812 233.767 461.45 243.945 471.028 245.442C474.355 245.941 475.162 246.539 475.162 248.236C475.061 253.524 480.405 461.881 480.607 462.081C480.707 462.28 484.74 460.983 489.58 459.187L498.352 456.094V451.503C498.352 449.009 499.058 406.499 499.864 357.104C500.671 307.709 501.377 262.505 501.377 256.518V245.841H504.502H507.527L507.023 254.023C505.914 269.59 501.982 453.399 502.687 453.998C503.091 454.397 503.595 454.497 503.797 454.297C504.2 453.898 509.443 262.306 509.443 249.533C509.443 246.24 509.745 245.841 511.963 245.841C521.945 245.841 528.095 234.166 521.945 226.981C519.324 223.888 512.568 221.293 509.846 222.291C507.426 223.189 508.233 221.393 511.258 219.198C512.77 218.1 515.291 214.907 516.803 212.013C527.087 193.452 513.677 171 492.302 171C487.564 171 484.337 171.699 480.707 173.395ZM510.451 188.862C513.375 194.65 513.778 198.442 512.064 204.13C510.451 209.817 506.418 214.408 500.671 217.302C496.134 219.497 487.664 219.297 483.228 216.803C480.607 215.406 480.405 215.006 482.22 215.505C490.891 217.9 501.175 214.208 506.015 206.924C509.644 201.435 510.451 191.955 507.628 186.667C506.216 183.972 506.015 183.274 507.124 184.072C507.93 184.771 509.443 186.966 510.451 188.862Z" />
<path d="M376.857 174.093C369.698 175.79 359.918 179.083 349.13 183.673C337.737 188.563 333.805 190.558 304.363 206.724C293.777 212.512 280.165 219.597 274.116 222.49C229.753 243.446 169.459 255.62 108.762 255.919C97.8727 255.919 89 256.318 89 256.718C89 258.214 96.7636 262.904 101.301 264.202C104.628 265.2 109.669 265.299 122.777 264.701C175.912 262.206 206.663 257.815 238.222 248.236C270.99 238.257 287.727 231.87 312.934 219.297C363.851 194.051 386.738 190.958 395.51 207.921C398.232 213.21 399.341 218.499 401.055 233.766C402.265 244.943 402.971 248.236 405.592 253.425C414.465 271.287 437.453 282.762 466.592 283.86L472.641 284.159L472.541 278.671C472.339 266.996 473.146 268.193 463.97 266.796C454.694 265.499 444.309 262.505 438.562 259.611C432.714 256.718 426.262 250.331 423.64 245.042C421.12 239.953 420.817 233.168 421.825 205.427C422.229 193.652 422.027 192.055 420.01 187.764C417.591 182.376 411.44 177.486 403.778 174.792C398.535 172.896 383.814 172.497 376.857 174.093Z" />
<path d="M581.432 174.393C575.08 176.388 568.224 181.577 565.3 186.567C562.981 190.459 562.578 192.354 562.477 199.739C562.376 204.529 562.78 214.208 563.284 221.393C563.989 232.569 563.889 235.263 562.376 240.652C558.343 254.722 544.631 263.403 520.836 266.796L512.669 267.994L511.963 275.278C511.56 279.27 511.459 282.962 511.762 283.461C512.064 283.96 516.702 283.96 522.248 283.56C550.076 281.365 570.543 270.488 579.012 253.425C581.634 248.236 582.34 244.943 583.55 233.766C585.768 213.609 587.381 208.52 593.431 202.233C603.11 192.055 627.106 197.344 671.167 219.098C697.079 231.97 712.203 237.758 746.383 248.236C764.431 253.724 780.765 257.117 800.93 259.711C829.161 263.403 876.347 266.197 882.498 264.601C885.926 263.703 895.605 257.915 895.605 256.718C895.605 256.418 887.136 256.119 876.751 256.019C833.194 255.52 793.469 250.132 756.062 239.355C729.948 231.87 712.304 224.386 684.375 208.919C647.977 188.762 634.87 182.476 617.528 176.887C609.563 174.293 605.731 173.694 596.657 173.395C589.196 173.095 584.255 173.495 581.432 174.393Z" />
<path d="M365.565 210.117C339.652 238.856 313.539 260.709 285.106 277.673C269.982 286.654 269.579 287.053 271.898 289.648C274.217 292.142 282.484 294.138 286.82 293.24C298.919 290.645 325.739 271.287 345.097 251.229C362.237 233.467 387.041 202.732 385.831 200.737C384.318 198.442 381.092 201.136 372.824 211.713C362.842 224.386 332.292 255.42 321.907 263.304C317.068 266.996 319.991 263.703 332.998 250.83C355.684 228.478 380.688 198.941 377.059 198.941C376.252 198.941 371.11 204.03 365.565 210.117Z" />
<path d="M608.252 201.934C618.738 216.503 641.222 241.65 658.161 257.616C667.84 266.696 668.445 267.395 662.698 263.204C652.615 255.72 621.964 224.686 611.781 211.713C603.513 201.136 600.287 198.442 598.774 200.737C598.472 201.236 602.807 207.622 608.252 214.907C632.753 247.138 660.681 273.881 683.569 286.754C694.76 293.14 698.995 294.338 705.549 292.841C711.8 291.444 715.127 288.65 713.111 286.355C712.506 285.456 708.17 282.762 703.734 280.168C674.696 263.603 645.557 239.554 619.141 210.217C613.495 204.03 608.353 198.941 607.546 198.941C606.437 198.941 606.639 199.639 608.252 201.934Z" />
<path d="M356.793 210.217C339.652 228.478 309.606 253.824 297.608 260.11L294.18 261.907L297.104 259.611C315.354 245.541 352.054 212.113 357.196 204.928L359.213 202.134L356.994 202.633C355.684 202.932 351.752 206.025 348.122 209.318C338.947 217.9 322.915 231.471 313.337 238.556C302.145 246.938 292.264 252.826 270.486 264.202C260.202 269.59 251.228 274.58 250.422 275.278C247.095 278.372 253.547 282.762 261.412 282.762C269.377 282.762 289.542 273.282 305.775 262.006C322.714 250.231 342.072 232.669 358.003 214.408C372.118 198.442 371.009 199.938 368.489 199.938C367.178 199.938 363.044 203.531 356.793 210.217Z" />
<path d="M615.411 201.635C637.088 227.38 658.766 248.036 678.83 262.006C695.063 273.282 715.228 282.762 723.193 282.762C731.057 282.762 737.51 278.372 734.183 275.278C733.376 274.58 724.403 269.59 714.119 264.202C692.744 253.125 682.762 247.138 672.478 239.454C662.395 231.87 647.271 219.297 637.895 210.616C630.131 203.431 624.283 200.038 626.401 203.83C629.022 208.72 670.865 246.938 687.4 259.611C692.038 263.204 688.307 261.108 678.83 254.722C665.823 246.04 651.809 234.066 633.862 216.204C624.888 207.223 616.822 199.938 615.814 199.938C614.201 199.938 614.201 200.138 615.411 201.635Z" />
<path d="M380.386 213.51C358.709 241.051 335.015 265.499 313.841 282.363C305.977 288.65 301.137 293.14 300.935 294.437C300.431 297.631 303.96 299.028 311.321 298.529C316.866 298.229 318.58 297.531 325.134 293.34C347.315 278.771 370.908 252.726 389.763 221.692C394.905 213.31 395.51 211.813 394.502 209.917C393.393 207.822 393.191 207.921 390.569 212.113C380.89 227.28 360.423 252.427 349.533 262.805L343.786 268.293L350.743 260.31C360.322 249.333 371.211 234.964 382.302 218.599C390.569 206.325 392.183 202.932 389.561 202.932C389.057 202.932 385.024 207.722 380.386 213.51Z" />
<path d="M593.632 203.93C592.422 205.926 619.444 243.845 633.862 260.31L640.819 268.293L635.071 262.805C624.182 252.427 603.715 227.28 594.035 212.113C591.414 207.921 591.212 207.822 590.103 209.917C588.793 212.312 590.002 214.707 601.497 231.87C620.452 260.21 638.197 279.17 658.362 292.442C665.722 297.331 667.336 298.03 673.083 298.429C680.544 299.028 684.174 297.73 683.669 294.437C683.468 293.14 678.628 288.55 670.764 282.263C649.086 265.1 626.199 241.35 604.017 213.31C599.581 207.622 595.548 202.932 595.044 202.932C594.64 202.932 593.935 203.331 593.632 203.93Z" />
<path d="M335.519 210.715C327.755 214.008 319.286 218.898 307.287 226.981C290.046 238.656 271.797 249.533 270.99 248.635C270.688 248.335 273.813 246.24 277.745 243.845C285.812 239.155 303.758 226.981 303.758 226.282C303.758 226.083 301.54 226.981 298.818 228.378C295.995 229.675 290.248 232.27 285.912 233.966C281.577 235.662 271.898 239.654 264.436 242.847C256.975 245.94 246.288 250.032 240.742 251.728C230.257 255.121 226.425 257.516 227.434 260.21C229.248 264.8 242.255 268.293 251.531 266.796C266.453 264.401 296.096 248.236 321.403 228.577C331.788 220.495 348.223 206.025 347.113 206.025C346.811 205.926 341.669 208.121 335.519 210.715Z" />
<path d="M644.549 212.911C670.965 237.558 712.808 263.104 732.469 266.796C742.047 268.592 756.365 264.501 757.272 259.512C757.776 257.217 752.836 254.522 742.552 251.329C737.813 249.832 727.73 246.04 720.269 242.847C712.707 239.654 703.028 235.662 698.692 233.966C694.357 232.27 688.61 229.675 685.787 228.378C683.064 226.981 680.846 226.083 680.846 226.382C680.846 227.18 701.112 240.752 708.775 245.142C712.808 247.338 715.934 249.433 715.631 249.633C714.724 250.531 696.575 239.853 679.031 228.178C661.79 216.603 654.228 212.412 642.028 207.822L636.987 205.926L644.549 212.911Z" />
<path d="M391.477 225.185C377.361 247.637 356.894 271.287 336.325 288.949C331.183 293.34 326.948 297.531 326.948 298.329C326.948 301.822 336.527 302.82 344.19 300.225C353.869 296.832 380.991 266.497 395.913 242.248C399.139 236.96 399.543 235.563 398.938 232.469L398.333 228.777L392.384 237.858C384.621 249.633 376.05 260.709 368.287 268.792C361.431 275.977 361.532 275.278 368.69 266.497C373.731 260.31 383.814 245.541 392.283 232.17C395.611 226.981 397.526 222.79 397.526 220.894C397.526 219.297 397.224 217.9 396.821 217.9C396.316 218 393.997 221.193 391.477 225.185Z" />
<path d="M587.079 220.994C587.079 224.985 601.698 248.236 614.201 264.202C622.166 274.28 622.771 275.478 616.318 268.792C608.454 260.51 599.883 249.633 592.321 237.858L586.373 228.677L585.667 232.369C585.062 235.263 585.465 236.86 587.683 240.652C600.791 263.004 630.635 296.832 640.415 300.225C648.078 302.82 657.656 301.822 657.656 298.329C657.656 297.531 653.422 293.34 648.28 288.949C637.794 279.968 623.779 265.699 615.209 255.221C608.353 246.938 593.733 226.881 590.708 221.692C588.087 217.102 587.079 216.902 587.079 220.994Z" />
<path d="M390.973 253.425C383.411 264.302 370.707 280.367 358.507 294.637C352.558 301.522 351.852 304.316 355.684 305.314C364.456 307.51 374.639 300.225 388.049 282.363C394.401 273.881 404.584 257.815 404.584 256.319C404.584 255.72 403.979 254.423 403.273 253.425C402.064 251.828 401.761 252.028 399.039 256.019C395.107 262.006 382.302 278.671 381.193 279.369C380.688 279.669 383.411 275.278 387.242 269.59C397.123 254.922 400.551 248.535 400.551 244.943C400.551 243.246 400.249 241.849 399.845 241.849C399.341 241.849 395.409 247.138 390.973 253.425Z" />
<path d="M584.054 245.043C584.054 248.435 587.986 255.52 598.472 271.287C606.235 283.062 600.287 276.575 589.902 262.006C583.348 252.926 582.44 251.928 581.331 253.524C579.315 256.119 579.617 256.817 585.667 266.397C593.531 278.871 604.42 292.741 610.672 298.429C617.427 304.616 626.199 307.41 630.333 304.815C632.752 303.219 630.736 299.527 621.258 288.75C611.579 277.673 597.665 259.811 590.103 248.635C587.583 244.943 585.264 241.849 584.86 241.849C584.356 241.849 584.054 243.246 584.054 245.043Z" />
<path d="M216.04 255.919C196.178 260.709 164.014 264.501 127.314 266.397C113.501 267.095 106.846 268.592 105.737 271.486C103.922 275.977 112.795 280.966 126.205 282.862C143.647 285.257 195.774 282.662 217.855 278.172C226.123 276.476 240.138 272.584 244.776 270.688L247.8 269.49L242.255 268.792C232.576 267.594 225.115 263.304 225.115 258.813C225.115 258.214 226.324 256.618 227.736 255.321C231.063 252.327 230.66 252.327 216.04 255.919Z" />
<path d="M756.768 255.121C758.28 256.518 759.49 258.214 759.49 258.813C759.49 263.304 752.433 267.594 742.955 268.692C736.905 269.49 736.805 269.49 739.829 270.688C744.467 272.584 758.482 276.476 766.75 278.172C788.831 282.662 840.957 285.257 858.4 282.862C871.81 280.966 880.683 275.977 878.868 271.486C877.759 268.592 871.104 266.996 857.291 266.297C814.844 264.202 786.814 260.51 756.97 253.325L753.945 252.526L756.768 255.121Z" />
<path d="M400.652 268.293C397.728 272.883 391.376 282.064 386.436 288.65C376.756 301.323 375.446 304.117 377.664 307.111C379.882 310.104 385.326 308.508 390.469 303.518C395.207 298.828 403.374 286.854 409.625 275.478C413.558 268.293 413.759 267.495 412.348 265.998C411.44 265.1 410.533 264.601 410.331 264.9C410.13 265.1 407.004 269.89 403.273 275.478C395.913 286.854 393.191 289.448 399.543 279.37C407.71 265.998 410.029 259.811 406.802 259.811C406.298 259.811 403.475 263.603 400.652 268.293Z" />
<path d="M576.593 261.408C575.988 263.104 578.912 269.391 585.062 279.37C591.414 289.448 588.692 286.854 581.332 275.478C577.601 269.89 574.475 265.1 574.274 264.9C574.072 264.601 573.165 265.2 572.257 265.998C570.745 267.495 571.148 268.493 576.593 278.272C587.482 297.73 597.363 308.707 603.916 308.707C606.135 308.707 608.252 306.113 608.252 303.418C608.252 302.62 603.916 296.333 598.674 289.248C593.431 282.263 586.776 272.784 583.953 268.193C581.029 263.603 578.408 259.811 578.004 259.811C577.601 259.811 576.895 260.51 576.593 261.408Z" />
<path d="M415.977 271.985C413.053 276.775 398.938 299.926 397.224 302.82C392.283 311.302 399.946 312.1 407.609 303.917C412.751 298.429 424.245 277.474 423.338 275.278C422.229 272.285 420.111 273.981 416.683 280.367C411.944 289.248 410.634 289.747 415.07 280.866C417.086 276.975 418.7 273.183 418.7 272.285C418.7 270.488 417.086 270.289 415.977 271.985Z" />
<path d="M565.905 272.185C565.905 273.083 567.518 276.975 569.434 280.767C571.35 284.658 572.761 287.752 572.56 287.752C572.257 287.752 570.442 284.858 568.426 281.265C564.292 274.081 563.284 272.983 561.57 274.679C559.452 276.775 574.072 302.919 579.517 307.011C583.046 309.505 587.885 310.304 588.591 308.408C589.498 306.312 587.381 302.221 577.198 285.756C568.527 271.985 565.905 268.792 565.905 272.185Z" />
<path d="M242.255 274.48C222.392 280.966 191.64 285.257 154.839 286.554C133.162 287.352 129.33 288.151 129.33 291.743C129.33 294.737 133.968 299.327 139.614 301.822C144.656 304.117 146.067 304.217 164.115 304.117C194.161 304.017 224.913 298.429 252.136 287.951L259.597 285.157L255.161 283.86C247.397 281.565 245.179 277.773 249.514 273.781C252.237 271.287 251.732 271.386 242.255 274.48Z" />
<path d="M735.09 273.682C739.325 277.773 737.813 280.667 729.747 283.66L725.008 285.456L733.981 288.55C765.943 299.726 799.921 305.514 828.253 304.516C839.143 304.117 841.26 303.817 845.898 301.422C851.443 298.628 855.275 294.637 855.275 291.643C855.275 288.151 851.342 287.352 829.564 286.554C788.427 285.057 758.583 280.467 734.486 272.085C733.175 271.686 733.276 271.985 735.09 273.682Z" />
<path d="M426.665 279.968C425.959 281.265 422.834 286.355 419.607 291.244C412.549 302.121 410.432 306.811 411.642 308.807C413.255 311.302 420.918 306.412 425.556 299.926C430.093 293.44 435.84 282.862 435.84 280.966C435.84 277.972 432.614 280.168 430.295 284.758C426.967 291.344 426.161 291.144 429.286 284.558C430.597 281.764 431.505 279.07 431.202 278.571C430.194 277.074 427.875 277.773 426.665 279.968Z" />
<path d="M553.504 278.372C553.201 278.671 554.008 281.365 555.318 284.359C558.343 291.144 557.738 291.344 554.31 284.758C552.092 280.367 548.765 277.972 548.765 280.766C548.765 282.563 554.915 294.038 559.049 299.926C563.687 306.412 571.35 311.302 572.963 308.807C574.173 306.811 572.055 302.121 564.998 291.244C561.771 286.355 558.646 281.265 557.94 279.968C556.831 277.873 554.814 277.074 553.504 278.372Z" />
<path d="M437.957 287.552C436.344 290.745 433.319 296.034 431.404 299.327C427.875 305.115 426.766 309.705 428.782 309.705C433.219 309.705 439.47 303.518 443.906 294.936C448.645 285.357 449.048 284.059 447.334 283.361C446.427 283.062 445.217 284.159 443.906 286.754C441.386 291.743 440.478 291.943 442.495 287.253C443.906 283.76 443.705 281.764 441.89 281.764C441.285 281.764 439.571 284.359 437.957 287.552Z" />
<path d="M541.203 282.762C540.9 283.261 541.304 285.257 542.11 287.253C544.127 291.943 543.219 291.743 540.699 286.754C539.388 284.159 538.178 283.062 537.271 283.361C535.557 284.06 535.96 285.357 541.102 295.435C544.228 301.722 550.378 308.707 552.798 308.707C553.201 308.707 554.31 309.006 555.218 309.306C558.041 310.403 557.033 306.013 552.899 298.928C550.781 295.236 547.857 289.847 546.345 286.953C543.724 281.864 542.413 280.767 541.203 282.762Z" />
<path d="M262.924 287.353C241.045 296.234 215.032 302.62 181.961 307.11C176.214 307.909 170.87 309.106 170.064 309.805C164.115 314.694 178.937 322.677 193.96 322.677C209.487 322.677 231.467 318.386 252.338 311.202C261.916 307.909 287.627 296.433 287.627 295.435C287.627 295.236 285.308 295.036 282.484 294.936C275.225 294.837 270.083 292.043 269.478 288.051L268.974 284.958L262.924 287.353Z" />
<path d="M448.746 295.036C442.797 308.009 442.595 308.707 444.41 309.306C448.847 311.002 459.131 298.928 462.458 287.951C463.063 286.055 462.861 285.756 460.744 285.756C459.232 285.756 457.921 286.554 457.215 287.951C456.106 290.147 456.106 290.047 456.61 287.452C457.114 285.257 456.913 284.758 455.4 284.758C453.989 284.758 452.275 287.352 448.746 295.036Z" />
<path d="M527.894 286.454C528.096 287.452 528.7 289.149 529.003 290.246C529.406 291.344 528.902 290.745 527.995 288.949C526.785 286.754 525.474 285.756 523.861 285.756C522.55 285.756 521.542 286.255 521.542 286.754C521.542 288.151 526.18 297.231 529.406 301.921C532.229 306.212 537.976 310.204 540.195 309.306C542.009 308.707 541.606 307.51 535.355 293.938C532.229 287.053 530.717 284.758 529.305 284.758C527.894 284.758 527.491 285.257 527.894 286.454Z" />
<path d="M714.925 288.051C714.724 290.645 713.917 291.643 710.892 293.04C708.876 294.038 704.843 294.936 702.12 294.936C699.297 295.036 696.978 295.236 696.978 295.435C696.978 295.735 702.524 298.529 709.38 301.722C744.366 318.287 785.201 326.469 803.954 320.681C810.508 318.686 815.953 314.794 815.953 312.2C815.953 309.705 811.819 308.507 795.787 306.112C776.429 303.318 759.49 299.726 744.366 295.236C734.284 292.242 730.15 290.745 717.446 285.756C715.53 284.957 715.228 285.157 714.925 288.051Z" />
<path d="M463.164 295.934C458.123 307.809 457.013 312.699 459.332 312.699C461.651 312.699 467.096 307.809 470.322 302.82C472.641 299.127 473.146 297.331 473.045 292.342L472.944 286.255L470.625 291.244C467.903 297.032 467.499 296.832 469.617 290.745C471.532 285.556 471.532 285.756 469.314 285.756C468.003 285.756 466.39 288.45 463.164 295.934Z" />
<path d="M513.476 286.155C513.476 286.355 514.182 288.45 514.988 290.745C517.105 296.832 516.702 297.032 513.98 291.244L511.661 286.255L511.56 292.342C511.459 297.331 511.963 299.127 514.282 302.82C517.509 307.809 522.953 312.699 525.272 312.699C527.591 312.699 526.482 307.809 521.441 295.934C518.215 288.45 516.601 285.756 515.291 285.756C514.282 285.756 513.476 285.955 513.476 286.155Z" />
<path d="M289.643 297.231C267.461 309.904 233.08 322.178 211.705 325.272C209.083 325.571 205.857 326.769 204.647 327.766L202.429 329.662L205.252 332.157C208.882 335.35 213.923 336.648 223.199 336.648C232.777 336.648 244.675 334.452 256.774 330.56C268.57 326.669 291.357 315.692 304.263 307.51L314.345 301.223L308.094 300.624C300.633 299.926 298.415 298.429 298.919 294.537C299.221 293.04 299.322 291.743 299.322 291.743C299.221 291.743 294.886 294.238 289.643 297.231Z" />
<path d="M685.686 294.737C686.19 298.329 683.468 299.926 675.805 300.724L670.26 301.223L680.342 307.51C708.876 325.372 740.233 336.648 761.305 336.648C770.682 336.648 775.723 335.35 779.353 332.157L782.176 329.662L779.958 327.766C778.748 326.769 775.522 325.571 772.9 325.272C750.92 322.178 717.244 309.904 692.34 295.834L685.283 291.843L685.686 294.737Z" />
<path d="M319.387 300.924C307.892 309.306 279.762 324.474 265.142 330.261C258.891 332.756 254.757 335.949 255.866 337.546C257.076 339.641 263.025 341.637 267.764 341.637C282.182 341.637 309.808 329.064 331.788 312.699C345.803 302.221 345.299 303.119 336.628 303.518C328.864 303.917 325.335 302.919 324.125 299.826C323.52 298.229 323.016 298.329 319.387 300.924Z" />
<path d="M660.681 299.227C660.681 302.321 656.043 303.917 648.078 303.518C639.407 303.119 638.903 302.121 652.313 312.2C675.503 329.762 704.137 342.435 718.152 341.437C725.31 340.938 729.747 338.444 728.335 335.75C727.73 334.752 725.815 333.255 724 332.457C694.962 319.185 683.266 313.098 670.058 304.117C664.311 300.325 660.681 298.429 660.681 299.227Z" />
<path d="M344.089 306.811C336.224 312.998 315.253 326.769 304.767 332.556C292.768 339.242 290.046 342.735 295.289 344.631C299.423 346.227 306.279 345.828 312.026 343.633C324.226 339.142 346.508 324.573 359.213 312.798L366.774 305.913L362.036 307.011C356.49 308.208 352.558 307.011 351.348 303.618C350.642 301.722 350.138 301.922 344.089 306.811Z" />
<path d="M633.458 303.119C633.458 304.017 632.248 305.414 630.837 306.412C628.619 307.809 627.409 307.909 623.073 307.011L617.83 306.013L625.392 312.898C638.197 324.573 660.479 339.142 672.579 343.633C680.745 346.726 691.937 345.928 691.937 342.236C691.937 340.24 687.299 336.648 679.132 332.157C668.949 326.469 653.119 316.191 644.045 309.306C633.761 301.423 633.458 301.223 633.458 303.119Z" />
<path d="M365.867 310.803C354.07 320.981 345.299 327.866 333.099 336.149C326.646 340.539 321.403 344.83 321.403 345.628C321.403 346.826 322.915 347.125 328.864 346.926C337.535 346.626 344.593 343.832 357.801 335.151C365.565 330.062 386.435 311.501 386.435 309.705C386.435 309.206 384.822 309.406 382.907 310.004C378.773 311.202 374.74 309.805 373.53 306.811C372.925 305.015 372.118 305.414 365.867 310.803Z" />
<path d="M611.277 306.113C611.277 306.911 610.067 308.408 608.655 309.405C606.538 310.803 605.328 310.902 602.102 310.004C599.984 309.405 598.169 309.306 598.169 309.705C598.169 311.501 619.141 330.062 626.804 335.151C640.012 343.832 647.372 346.826 655.842 347.025C660.58 347.125 663.101 346.726 663.403 345.928C663.807 344.73 662.799 343.932 648.481 334.153C641.323 329.263 625.695 316.989 616.116 308.607C612.789 305.813 611.277 305.015 611.277 306.113Z" />
<path d="M387.948 311.8C381.697 319.285 368.085 331.059 356.49 339.043C344.593 347.325 345.198 349.62 358.204 345.728C369.799 342.236 387.746 329.263 398.938 316.191L403.878 310.603L400.45 311.102C396.518 311.8 394.905 311.102 393.796 308.009C392.989 305.913 392.586 306.212 387.948 311.8Z" />
<path d="M591.111 306.911C591.111 310.004 588.087 311.9 584.255 311.202L580.726 310.603L585.667 316.191C596.657 328.964 614.705 342.136 625.997 345.628C637.491 349.121 640.516 347.624 632.853 342.435C616.923 331.558 603.11 319.684 594.842 309.805C592.624 307.11 591.111 306.013 591.111 306.911Z" />
<path d="M420.817 312.299C418.397 315.493 410.23 324.174 402.769 331.459C388.351 345.728 387.041 348.223 395.712 345.728C401.963 343.932 409.726 338.544 418.095 330.361C425.657 322.977 435.437 310.902 434.529 310.104C434.328 309.905 432.916 310.104 431.404 310.603C428.077 311.9 425.959 311.102 425.556 308.408C425.354 306.711 424.447 307.41 420.817 312.299Z" />
<path d="M471.734 309.306C471.331 310.803 471.532 312.499 472.037 312.998C472.843 313.796 473.146 312.998 473.146 310.403C473.146 306.013 472.642 305.713 471.734 309.306Z" />
<path d="M511.56 310.104C511.459 312.699 511.762 313.796 512.467 313.098C513.072 312.499 513.072 311.002 512.568 309.206C511.661 306.212 511.661 306.212 511.56 310.104Z" />
<path d="M558.847 308.408C558.847 311.002 556.629 311.9 553.201 310.603C551.689 310.104 550.277 309.904 550.075 310.104C549.471 310.703 557.234 320.781 563.989 328.066C574.576 339.541 591.011 349.121 594.338 345.828C595.346 344.83 593.33 342.535 585.364 335.151C579.718 329.962 572.055 321.979 568.325 317.389C558.444 305.514 558.847 305.913 558.847 308.408Z" />
<path d="M401.257 315.792C393.897 324.274 382.503 334.452 373.328 340.639C370.203 342.735 367.077 345.13 366.371 346.028C365.161 347.425 365.464 347.624 369.598 347.624C372.824 347.624 376.353 346.527 381.999 343.633C393.997 337.745 404.382 328.465 415.171 314.295L418.196 310.404L415.473 311.002C413.356 311.601 412.146 311.202 410.634 309.705C409.525 308.607 408.516 307.709 408.415 307.709C408.214 307.809 404.987 311.401 401.257 315.792Z" />
<path d="M435.538 314.195C432.815 317.788 425.657 325.771 419.607 332.057C413.558 338.344 408.617 344.032 408.617 344.631C408.617 346.427 415.675 345.329 421.22 342.635C423.741 341.437 428.278 338.144 431.303 335.45C436.949 330.361 447.738 316.989 450.561 311.601L452.073 308.607L449.048 310.104C445.015 312.2 442.797 312.1 442.192 309.705C441.89 308.607 441.386 307.709 440.982 307.709C440.68 307.809 438.159 310.703 435.538 314.195Z" />
<path d="M542.413 309.705C541.808 312.1 539.59 312.2 535.456 310.104L532.33 308.507L534.649 312.399C542.514 325.372 554.814 338.344 563.284 342.535C568.829 345.229 575.988 346.527 575.988 344.73C575.988 344.132 571.047 338.444 565.099 332.257C559.049 325.97 551.89 317.887 549.168 314.295C546.446 310.703 543.925 307.809 543.623 307.709C543.219 307.709 542.715 308.607 542.413 309.705Z" />
<path d="M573.669 309.805C572.358 311.202 571.249 311.601 569.131 311.002L566.409 310.404L569.434 314.295C580.222 328.465 590.607 337.745 602.606 343.633C608.252 346.527 611.781 347.624 615.007 347.624C617.729 347.624 619.242 347.225 618.838 346.626C618.536 346.028 614.705 343.034 610.47 339.941C598.774 331.459 591.616 325.072 583.751 316.191C579.819 311.801 576.391 308.108 576.088 308.009C575.786 308.009 574.677 308.707 573.669 309.805Z" />
<path d="M464.172 312.399C459.937 315.293 457.215 315.293 456.207 312.599C455.501 310.803 454.795 311.401 450.056 317.688C447.032 321.679 440.781 328.964 436.143 333.854C431.505 338.843 427.875 343.333 428.076 344.032C429.488 348.323 442.797 341.936 452.476 332.157C458.324 326.27 469.012 311.102 467.903 310.204C467.701 310.104 466.088 311.102 464.172 312.399Z" />
<path d="M516.501 310.204C516.501 312.499 526.482 326.569 532.129 332.157C541.909 342.036 555.117 348.323 556.528 343.932C556.831 343.234 552.798 338.344 547.757 333.055C542.715 327.767 536.464 320.482 533.943 316.89C529.709 311.102 529.205 310.703 528.499 312.599C527.39 315.393 524.667 315.293 520.13 312.2C518.114 310.902 516.501 310.004 516.501 310.204Z" />
<path d="M465.079 319.484C463.164 322.578 458.727 328.964 455.199 333.554C451.065 338.943 449.149 342.236 449.754 342.834C451.367 344.431 460.845 338.943 467.701 332.257C473.952 326.27 474.154 325.97 474.154 320.981C474.154 317.089 473.75 315.792 472.44 315.293C471.431 314.994 470.222 314.495 469.617 314.195C469.112 313.996 466.995 316.291 465.079 319.484Z" />
<path d="M512.77 315.093C510.854 315.992 510.451 316.989 510.451 321.081C510.451 325.871 510.653 326.27 517.005 332.456C523.558 338.743 533.338 344.331 534.952 342.735C535.456 342.236 533.036 338.144 529.406 333.554C525.877 328.964 521.441 322.578 519.525 319.484C517.61 316.291 515.795 313.796 515.492 313.896C515.19 313.896 513.98 314.395 512.77 315.093Z" />
<path d="M411.944 367.582C400.652 369.677 388.15 376.463 381.999 383.947C375.748 391.531 374.034 396.121 373.53 406.2C372.32 430.648 385.931 447.611 420.313 464.675C432.513 470.762 448.443 477.348 450.863 477.348C451.67 477.348 454.392 476.051 456.913 474.454C459.433 472.858 465.08 469.864 469.415 467.669L477.279 463.877L476.977 459.985L476.674 456.093L454.594 448.809C412.449 435.038 397.526 424.561 397.526 408.794C397.526 402.807 400.349 398.117 405.592 395.423C410.331 392.928 414.163 393.028 422.329 396.121C431.605 399.614 438.764 399.214 448.443 394.724C456.913 390.733 459.03 388.936 459.03 385.843C459.03 382.051 451.569 374.966 443.503 371.074C437.252 368.081 435.134 367.582 426.766 367.183C421.523 366.883 414.868 367.083 411.944 367.582ZM434.63 375.166C435.033 378.059 432.311 380.255 430.295 378.558C428.681 377.261 428.278 374.367 429.488 373.17C430.9 371.773 434.328 373.07 434.63 375.166Z" />
<path d="M551.285 367.582C544.833 368.48 536.666 372.571 531.12 377.66C523.054 385.045 524.063 388.936 535.456 394.325C545.841 399.214 552.697 399.713 562.275 396.121C570.442 393.028 574.274 392.928 579.013 395.423C584.255 398.117 587.079 402.807 587.079 408.794C587.079 424.76 571.451 435.537 528.096 449.508C515.896 453.399 499.764 458.888 492.302 461.682C451.972 476.35 432.311 492.716 429.992 513.571C428.379 527.242 432.513 539.316 442.293 549.395C447.637 554.983 458.223 563.166 459.937 563.166C460.542 563.166 465.08 560.871 470.121 558.077L479.195 552.888L479.094 548.297C479.094 544.006 478.691 543.508 473.851 539.716C466.289 533.828 462.861 528.44 462.256 521.854C461.853 517.463 462.256 515.667 464.071 512.773C469.415 504.291 485.749 495.709 523.054 481.839C590.708 456.692 612.587 437.832 611.075 406.2C610.47 392.928 605.933 384.945 594.741 377.161C581.735 368.181 568.023 365.087 551.285 367.582ZM555.621 375.166C556.024 378.06 553.302 380.255 551.285 378.558C549.672 377.261 549.269 374.367 550.479 373.17C551.89 371.773 555.318 373.07 555.621 375.166ZM519.021 456.892C517.408 457.69 507.124 462.28 496.235 467.17C461.752 482.637 449.653 491.019 443.2 504.091C440.579 509.28 440.377 510.777 440.377 520.756C440.377 530.336 440.68 532.531 443.1 538.019C446.225 545.603 444.41 544.505 440.276 536.522C437.554 531.034 437.353 530.036 437.353 518.76C437.353 507.883 437.554 506.287 439.974 501.297C446.83 487.028 465.281 475.452 502.889 461.781C519.324 455.794 525.474 453.898 519.021 456.892Z" />
<path d="M519.525 486.13L506.922 490.82L506.62 495.809C506.418 500.798 506.418 500.798 511.661 504.291C519.021 509.181 522.55 514.37 522.55 520.157C522.449 532.93 513.879 540.414 479.699 557.478C460.946 566.858 453.081 571.847 446.427 578.633C438.764 586.316 436.445 591.805 436.546 601.584C436.647 610.864 438.865 618.049 444.41 626.631C448.544 632.917 456.913 641.998 464.273 648.185L469.113 652.176L475.465 646.588L481.917 640.9L481.413 635.312C481.01 630.423 480.304 628.926 476.07 623.737C468.104 613.858 465.886 603.68 470.423 596.994C473.952 591.805 481.212 586.915 501.074 576.537C511.157 571.249 522.853 564.663 527.087 561.968C537.775 555.083 546.849 545.703 550.983 537.52C554.209 531.034 554.31 530.236 554.31 519.259C554.31 508.482 554.109 507.384 551.286 501.796C548.462 496.208 535.153 481.24 533.036 481.34C532.532 481.44 526.482 483.535 519.525 486.13ZM546.547 506.786C550.176 513.871 550.681 523.849 547.857 531.234C542.715 544.605 530.717 554.584 497.344 573.244C471.633 587.714 474.154 586.316 474.154 585.818C474.154 585.518 482.522 580.329 492.807 574.142C523.256 555.981 533.339 548.098 540.8 536.922C547.857 526.244 548.261 515.767 542.312 502.495C539.993 497.406 539.892 497.006 541.808 499.302C543.018 500.699 545.135 503.992 546.547 506.786ZM449.048 587.215C441.083 601.684 443.301 615.754 455.804 631.919C465.281 644.094 465.584 644.892 457.719 636.709C444.108 622.539 439.369 611.463 441.789 599.588C443.2 593.102 444.914 589.31 448.746 584.321C452.275 579.631 452.476 580.928 449.048 587.215Z" />
<path d="M500.973 495.51C500.167 499.202 499.764 543.208 500.57 543.208C501.982 543.208 502.183 541.212 502.889 517.463C503.292 500.699 503.192 493.314 502.486 493.314C501.881 493.314 501.175 494.312 500.973 495.51Z" />
<path d="M488.673 499.002L481.413 502.595L481.917 527.142C482.22 540.614 482.623 551.79 482.724 551.99C482.926 552.189 486.253 550.692 490.185 548.796L497.344 545.204V520.257C497.344 506.486 497.041 495.31 496.638 495.41C496.134 495.41 492.605 497.006 488.673 499.002Z" />
<path d="M513.98 573.544L504.906 578.832L504.603 583.223C504.301 587.314 504.603 587.813 508.939 591.406C515.089 596.495 516.803 600.087 516.299 606.474C515.392 617.55 508.334 626.232 487.664 641.798C464.273 659.361 456.005 670.737 455.199 686.404C454.392 701.372 460.24 714.643 473.549 728.514L477.582 732.805L481.01 729.512L484.337 726.319L483.732 718.835C483.329 714.743 482.119 708.856 481.01 705.862C478.288 698.677 478.086 688.599 480.607 684.009C483.732 678.221 491.093 671.136 508.435 657.465C526.684 642.896 534.548 635.312 540.195 626.631C545.74 618.049 547.958 610.864 548.059 601.584C548.16 592.902 546.547 588.512 540.497 580.928C537.271 576.936 526.079 568.155 524.264 568.255C523.558 568.255 519.021 570.65 513.98 573.544ZM540.497 592.104C544.228 599.788 544.228 610.265 540.598 618.049C535.355 629.125 524.667 640.501 505.107 655.769C496.638 662.454 493.008 664.35 500.469 658.263C502.889 656.268 510.35 649.282 517.106 642.597C539.892 619.945 545.034 604.877 535.859 587.713C532.129 580.828 532.028 580.13 535.153 583.622C536.666 585.219 539.086 589.111 540.497 592.104ZM461.551 686.603C461.551 697.081 463.769 705.762 468.709 714.743C472.137 720.83 471.734 721.13 467.701 715.542C460.442 705.363 457.618 693.688 460.038 682.612C460.643 679.518 461.248 676.924 461.349 676.924C461.551 676.924 461.551 681.314 461.551 686.603Z" />
<path d="M498.957 581.327C498.654 582.026 498.251 593.401 497.949 606.474C497.545 626.231 497.646 630.123 498.755 628.926C500.469 627.13 501.881 580.13 500.268 580.13C499.764 580.13 499.159 580.728 498.957 581.327Z" />
<path d="M490.185 585.618C487.664 586.915 485.144 588.512 484.64 589.31C483.43 590.807 484.236 637.408 485.446 638.605C485.85 639.004 488.169 637.707 490.588 635.711C494.823 632.319 495.025 631.82 495.63 625.333C496.537 615.854 496.537 583.123 495.63 583.123C495.126 583.223 492.706 584.321 490.185 585.618Z" />
<path d="M508.031 661.457L502.486 665.947L502.183 672.733C501.982 677.522 502.385 680.516 503.595 683.111C506.418 688.898 506.821 693.888 505.006 700.973C502.486 710.452 499.461 714.743 484.236 730.31C467.096 747.873 464.575 752.263 464.575 764.338C464.676 771.323 465.079 773.219 467.802 778.807C469.617 782.299 473.549 788.287 476.674 791.979L482.321 798.764L486.354 793.276L490.387 787.688L487.866 784.395C481.312 776.013 478.388 764.238 481.312 758.45C481.917 757.253 490.488 748.372 500.268 738.792C519.525 719.932 523.861 714.045 527.793 701.571C530.818 691.692 530.112 680.616 525.877 671.934C522.953 665.747 516.299 656.966 514.484 656.966C514.081 656.966 511.157 658.962 508.031 661.457ZM524.97 690.894C524.97 699.476 524.667 700.973 521.945 706.86C518.013 715.043 511.863 722.427 501.78 731.208L493.815 738.193L500.469 731.208C504.099 727.416 508.737 722.227 510.753 719.733C518.719 709.854 524.264 692.89 523.155 681.913C522.651 677.223 522.752 676.824 523.76 678.919C524.365 680.316 524.97 685.705 524.97 690.894ZM473.045 779.306C477.279 788.387 476.271 788.586 471.734 779.605C468.508 773.219 468.104 771.622 468.205 765.336L468.407 758.251L469.112 765.435C469.617 770.225 471.028 775.015 473.045 779.306Z" />
<path d="M496.94 671.136C496.638 671.835 496.235 681.614 495.932 692.89C495.428 710.951 495.529 713.147 496.84 711.45C498.049 709.854 498.352 705.962 498.352 693.488C498.352 684.607 498.654 675.726 498.957 673.631C499.461 671.136 499.259 669.939 498.453 669.939C497.848 669.939 497.142 670.537 496.94 671.136Z" />
<path d="M489.983 676.724L486.253 680.516L486.354 697.38C486.354 706.76 486.757 716.34 487.059 718.835L487.765 723.225L490.891 719.333L494.016 715.342L494.621 694.087C495.025 682.512 494.924 672.932 494.521 672.932C494.117 672.932 492 674.629 489.983 676.724Z" />
<path d="M503.091 740.588C500.873 742.883 500.369 744.28 500.369 748.571C500.369 751.964 501.074 754.858 502.385 756.953C507.124 764.737 503.797 775.614 492.302 790.183C481.01 804.452 477.784 814.93 481.716 824.31C483.026 827.304 483.43 827.603 484.741 826.605C485.547 825.907 486.253 824.011 486.253 822.314C486.253 817.225 489.782 811.637 500.066 800.66C505.41 794.873 511.56 787.488 513.677 784.295C520.534 773.718 522.248 763.24 518.618 753.66C516.501 748.172 508.939 737.794 507.023 737.794C506.317 737.794 504.603 739.091 503.091 740.588ZM513.073 779.206C510.754 783.697 506.821 788.985 501.881 794.174L494.218 802.157L501.276 793.775C510.653 782.898 514.585 774.915 515.392 765.535L515.996 758.251L516.299 765.236C516.601 771.423 516.299 772.82 513.073 779.206Z" />
<path d="M491.798 751.066L487.765 755.257L488.068 767.73C488.37 778.108 488.673 780.603 490.286 782.699L492.202 785.193L494.218 782.798C496.033 780.703 496.335 779.106 496.335 769.726C496.335 763.839 496.638 756.255 496.94 752.862C497.344 749.469 497.243 746.775 496.739 746.775C496.235 746.875 494.016 748.771 491.798 751.066ZM494.016 753.96C493.714 754.758 493.411 754.459 493.411 753.361C493.311 752.263 493.613 751.665 493.916 752.064C494.218 752.363 494.319 753.261 494.016 753.96ZM494.016 766.433C493.815 768.529 493.613 766.832 493.613 762.741C493.613 758.65 493.815 756.953 494.016 758.949C494.218 761.045 494.218 764.437 494.016 766.433Z" />
<path d="M496.94 808.544C493.613 811.936 493.109 812.934 493.613 815.629C494.521 819.82 492.605 824.011 486.455 830.896C478.893 839.278 478.288 845.365 484.236 851.852L487.16 855.045L487.261 849.157V843.27L494.621 835.686C502.284 827.703 504.402 823.412 504.402 816.028C504.402 811.537 502.687 804.652 501.578 804.652C501.074 804.652 499.058 806.448 496.94 808.544Z" />
<path d="M489.278 819.82C489.278 821.716 489.479 821.815 490.286 820.618C491.597 818.722 491.597 817.624 490.286 817.624C489.782 817.624 489.278 818.622 489.278 819.82Z" />
<path d="M499.36 835.087C498.654 835.885 497.848 840.675 497.545 845.864L497.041 855.045L499.36 853.049C504.301 848.658 505.712 842.072 502.889 836.584C501.074 833.091 501.074 833.091 499.36 835.087Z" />
<path d="M491.899 842.471C490.185 844.268 490.185 847.062 490.891 882.886C491.294 904.041 491.899 921.404 492.302 921.404C493.109 921.404 494.823 841.773 494.117 840.975C493.815 840.775 492.806 841.474 491.899 842.471Z" />
<path d="M882.812 527.938C885.354 528.771 887.667 529.438 889.75 529.938C893.792 513.688 898.396 494.5 903.562 472.375L888.5 470.75C887.542 468.125 887.062 465.146 887.062 461.812C887.062 459.271 887.354 456.792 887.938 454.375C893.979 453.208 900.938 452.375 908.812 451.875C916.729 451.333 923.521 451.062 929.188 451.062C933.271 451.062 936.333 451.083 938.375 451.125L942.312 453.375C949.312 472.583 956.417 498.562 963.625 531.312C963.708 531.646 963.854 532.312 964.062 533.312C964.312 534.312 964.5 535.271 964.625 536.188C964.75 537.062 964.812 537.896 964.812 538.688C964.812 542.188 963.562 545.021 961.062 547.188C957.562 548.562 953.333 549.25 948.375 549.25C946.042 549.25 943.688 549 941.312 548.5C938.938 548 937.333 547.229 936.5 546.188L937.25 530.062L935.688 521.688C932.979 521.854 929.792 521.938 926.125 521.938C922.208 521.938 918.542 521.812 915.125 521.562L914.375 524.938C912.75 532.188 911.417 537.333 910.375 540.375C909.375 543.417 907.875 545.667 905.875 547.125C903.917 548.583 900.979 549.312 897.062 549.312C894.521 549.312 891.958 548.979 889.375 548.312C886.792 547.688 884.458 546.833 882.375 545.75C880.292 544.667 878.729 543.5 877.688 542.25C877.688 539.25 878.146 536.396 879.062 533.688C879.979 530.979 881.229 529.062 882.812 527.938ZM926.625 472.938H923.75L919.25 503.75H933.25L926.625 472.938ZM977.062 526.25C977.062 519.458 977.146 514.333 977.312 510.875C977.479 507.375 977.917 502.25 978.625 495.5L971.375 494.562C970.5 491.854 969.917 489.438 969.625 487.312C969.375 485.188 969.25 482.438 969.25 479.062C969.917 478.479 971.021 477.792 972.562 477C974.146 476.167 976.021 475.458 978.188 474.875C980.354 474.25 982.542 473.938 984.75 473.938C989.792 473.938 993.354 475.021 995.438 477.188C997.562 479.354 998.625 482.604 998.625 486.938C998.625 489.354 998.271 492.625 997.562 496.75C996.396 503.375 995.812 506.854 995.812 507.188C995.812 507.396 995.958 507.604 996.25 507.812C996.542 507.979 996.854 508.062 997.188 508.062C997.562 508.062 997.812 507.917 997.938 507.625C999.604 501 1001.27 495.458 1002.94 491C1004.6 486.542 1007.12 482.583 1010.5 479.125C1013.88 475.667 1018.25 473.938 1023.62 473.938C1030.29 473.938 1035.08 475.979 1038 480.062C1040.92 484.104 1042.38 489.208 1042.38 495.375C1042.38 500.875 1041.73 506.188 1040.44 511.312C1039.15 516.396 1037.54 521.708 1035.62 527.25C1035.71 527.042 1035.42 527.854 1034.75 529.688L1034.88 529.812L1044 526.062C1047.25 528.854 1049.15 532.562 1049.69 537.188C1049.69 537.479 1048.75 538.667 1046.88 540.75C1045.04 542.833 1042.6 544.771 1039.56 546.562C1036.52 548.354 1033.02 549.25 1029.06 549.25C1025.1 549.25 1021.88 548.188 1019.38 546.062C1016.88 543.938 1015.62 540.312 1015.62 535.188C1015.62 531.104 1015.79 525.646 1016.12 518.812C1016.46 511.979 1016.79 506.479 1017.12 502.312C1016.04 501.146 1014.71 500.521 1013.12 500.438C1011.67 502.312 1009.52 506.062 1006.69 511.688C1003.85 517.312 1001.85 521.521 1000.69 524.312C1000.6 524.896 1000.56 525.458 1000.56 526C1000.56 528.083 1000.88 530.896 1001.5 534.438C1002.12 537.938 1002.9 541.208 1003.81 544.25C1003.06 545.667 1001.52 546.854 999.188 547.812C996.854 548.771 993.979 549.25 990.562 549.25C987.479 549.25 985 549 983.125 548.5C981.292 548 980 547.479 979.25 546.938C978.5 546.354 978.125 546 978.125 545.875C978.083 545.5 977.979 544.521 977.812 542.938C977.646 541.312 977.479 539.062 977.312 536.188C977.146 533.271 977.062 529.958 977.062 526.25ZM1091.06 557.938C1093.85 557.938 1096.27 557.625 1098.31 557C1098.94 556.375 1099.38 555.646 1099.62 554.812C1099.88 554.021 1100 553.271 1100 552.562C1100 551.812 1099.94 551.25 1099.81 550.875C1099.69 550.542 1099.48 550.229 1099.19 549.938C1097.44 549.646 1095.38 549.438 1093 549.312C1090.67 549.229 1089.27 549.167 1088.81 549.125C1083.02 548.875 1078.31 548.458 1074.69 547.875C1071.06 547.25 1067.96 545.917 1065.38 543.875C1062.79 541.792 1061.5 538.667 1061.5 534.5C1061.5 532.25 1062.23 530.146 1063.69 528.188C1065.15 526.188 1067.04 524.438 1069.38 522.938C1064.62 520.979 1060.81 518.042 1057.94 514.125C1055.1 510.167 1053.69 505.062 1053.69 498.812C1053.69 492.604 1055.27 487.625 1058.44 483.875C1061.65 480.083 1065.58 477.417 1070.25 475.875C1074.92 474.333 1079.67 473.562 1084.5 473.562C1087.54 473.562 1090.52 473.854 1093.44 474.438C1096.35 475.021 1099.06 475.854 1101.56 476.938L1098.88 461.062C1101.42 459.521 1104.58 458.75 1108.38 458.75C1111.12 458.75 1113.69 459.208 1116.06 460.125C1118.44 461.042 1120.25 462.354 1121.5 464.062C1121.58 464.479 1121.62 465.146 1121.62 466.062C1121.62 469.479 1121 473.292 1119.75 477.5C1118.54 481.667 1116.44 485.021 1113.44 487.562C1114.94 490.562 1115.69 493.792 1115.69 497.25C1115.69 502.333 1114.71 507.021 1112.75 511.312C1110.83 515.604 1107.62 519.104 1103.12 521.812C1098.62 524.479 1092.77 525.812 1085.56 525.812C1083.48 525.812 1081.31 525.688 1079.06 525.438C1078.94 527.521 1079.44 529.604 1080.56 531.688C1086.19 530.604 1090.73 530.042 1094.19 530L1098.44 529.938C1104.19 529.938 1108.54 530.292 1111.5 531C1114.75 531.792 1117.17 533.583 1118.75 536.375C1120.38 539.167 1121.19 542.562 1121.19 546.562C1121.19 552.812 1119.27 558.062 1115.44 562.312C1111.65 566.604 1106.71 569.792 1100.62 571.875C1094.58 573.958 1088.17 575 1081.38 575C1075.08 575 1069.48 573.938 1064.56 571.812C1059.65 569.688 1056.54 565.792 1055.25 560.125C1056.62 555.333 1059.25 551.708 1063.12 549.25C1068.33 552.375 1073.31 554.604 1078.06 555.938C1082.85 557.271 1087.19 557.938 1091.06 557.938ZM1087.25 510.375C1090.25 510.375 1092 510.188 1092.5 509.812C1093.62 507.562 1094.19 505.25 1094.19 502.875C1094.19 500.417 1093.62 498.104 1092.5 495.938C1091.96 495.479 1090.75 495.125 1088.88 494.875C1087.04 494.625 1085.04 494.5 1082.88 494.5C1080.17 494.5 1078.35 494.667 1077.44 495C1076.15 497.292 1075.5 499.604 1075.5 501.938C1075.5 504.312 1076.1 506.562 1077.31 508.688C1078.23 509.271 1079.6 509.708 1081.44 510C1083.31 510.25 1085.25 510.375 1087.25 510.375ZM1126.94 511.688C1126.94 504.479 1128.15 498.042 1130.56 492.375C1132.98 486.708 1136.71 482.229 1141.75 478.938C1146.83 475.604 1153.17 473.938 1160.75 473.938C1164.71 473.938 1168.67 474.417 1172.62 475.375C1176.58 476.292 1179.94 477.833 1182.69 480C1185.23 482.042 1187.06 484.75 1188.19 488.125C1189.35 491.458 1189.94 495.167 1189.94 499.25C1189.94 501.958 1189.71 504.729 1189.25 507.562C1188.75 508.396 1187.77 509.5 1186.31 510.875C1184.85 512.208 1183.15 513.521 1181.19 514.812C1179.23 516.104 1177.33 517.104 1175.5 517.812C1173.75 517.938 1171.94 518 1170.06 518C1166.77 518 1163.44 517.854 1160.06 517.562C1156.69 517.271 1153.73 516.938 1151.19 516.562C1151.52 520.104 1152.6 523.188 1154.44 525.812C1156.27 528.438 1159.19 529.75 1163.19 529.75C1163.56 529.75 1164.17 529.708 1165 529.625C1167.54 529.375 1170.5 528.708 1173.88 527.625C1177.29 526.5 1180.69 525.208 1184.06 523.75C1185.65 525.333 1186.81 526.917 1187.56 528.5C1188.31 530.083 1188.83 532.354 1189.12 535.312C1187.83 536.812 1185.73 538.646 1182.81 540.812C1179.94 542.979 1176.42 544.938 1172.25 546.688C1168.08 548.396 1163.73 549.25 1159.19 549.25C1152.35 549.25 1146.5 547.604 1141.62 544.312C1136.79 540.979 1133.12 536.479 1130.62 530.812C1128.17 525.104 1126.94 518.729 1126.94 511.688ZM1167.19 497.312C1166.6 496.688 1165.62 496.208 1164.25 495.875C1162.88 495.5 1161.44 495.312 1159.94 495.312C1158.73 495.312 1157.5 495.417 1156.25 495.625C1155.04 495.833 1154.31 496.062 1154.06 496.312C1152.65 499.104 1151.75 502.271 1151.38 505.812L1168.06 504.188L1167.19 497.312ZM1196.56 466.25C1195.94 463.708 1195.52 461.604 1195.31 459.938C1195.1 458.229 1195.02 456.271 1195.06 454.062C1195.94 452.938 1197.29 451.812 1199.12 450.688C1201 449.521 1203.17 448.542 1205.62 447.75C1208.12 446.958 1210.71 446.562 1213.38 446.562C1218.58 446.562 1222.58 447.875 1225.38 450.5C1228.17 453.125 1229.56 457 1229.56 462.125C1229.56 465.792 1229.25 471.688 1228.62 479.812C1228 487.938 1227.1 496.583 1225.94 505.75C1224.77 514.875 1223.44 522.854 1221.94 529.688L1222.06 529.812L1231.31 525.938C1234.56 528.729 1236.46 532.438 1237 537.062C1237 537.354 1236.06 538.562 1234.19 540.688C1232.31 542.771 1229.83 544.729 1226.75 546.562C1223.71 548.354 1220.21 549.25 1216.25 549.25C1212.12 549.25 1208.77 548.104 1206.19 545.812C1203.65 543.521 1202.44 539.604 1202.56 534.062L1202.69 522.812C1202.73 512.146 1202.83 502.542 1203 494C1203.21 485.458 1203.62 476.646 1204.25 467.562L1196.56 466.25ZM1268.62 532.188C1268.62 528.396 1269.4 524.75 1270.94 521.25C1271.65 521.25 1272.75 521.396 1274.25 521.688C1275.75 521.938 1277.33 522.271 1279 522.688C1278.79 513.729 1278.69 504.979 1278.69 496.438C1278.69 487.229 1278.85 479.375 1279.19 472.875H1279.12L1279.19 472.125L1269 470.812C1268.38 468.271 1267.96 466.167 1267.75 464.5C1267.54 462.792 1267.46 460.833 1267.5 458.625C1268.83 457.125 1270.79 455.812 1273.38 454.688C1276 453.521 1278.81 452.646 1281.81 452.062C1284.85 451.438 1287.62 451.125 1290.12 451.125C1294.92 451.125 1298.65 452.083 1301.31 454C1304.02 455.875 1305.56 458.875 1305.94 463C1306.06 464.625 1306.12 466.396 1306.12 468.312C1306.12 474.646 1305.56 482.146 1304.44 490.812C1303.31 499.479 1301.81 509.604 1299.94 521.188L1299.44 524.438L1315.38 525.312L1321.88 504.562C1323.83 504.479 1326.06 504.625 1328.56 505C1331.1 505.375 1333.29 505.896 1335.12 506.562C1335.88 508.521 1336.56 511.646 1337.19 515.938C1337.85 520.188 1338.19 524.354 1338.19 528.438C1338.19 535.229 1337.19 540 1335.19 542.75C1334.19 544.083 1332.79 545.25 1331 546.25C1329.25 547.208 1327.4 547.938 1325.44 548.438C1323.52 548.979 1321.79 549.25 1320.25 549.25C1317.79 549.25 1314.92 548.729 1311.62 547.688C1308.33 546.604 1305.1 545.25 1301.94 543.625C1298.77 541.958 1296.17 540.292 1294.12 538.625C1292.25 541.875 1290.08 544.396 1287.62 546.188C1285.17 547.979 1282.1 549 1278.44 549.25C1276.65 548.958 1275 548.021 1273.5 546.438C1272 544.854 1270.81 542.812 1269.94 540.312C1269.06 537.812 1268.62 535.104 1268.62 532.188ZM1344.81 458.312C1344.81 454.646 1346 451.667 1348.38 449.375C1350.79 447.083 1354.62 445.938 1359.88 445.938C1365.12 445.938 1368.94 447.083 1371.31 449.375C1373.73 451.667 1374.94 454.646 1374.94 458.312C1374.94 460.396 1374.21 462.312 1372.75 464.062C1371.33 465.812 1369.46 467.208 1367.12 468.25C1364.79 469.25 1362.38 469.75 1359.88 469.75C1357.17 469.75 1354.65 469.167 1352.31 468C1350.02 466.792 1348.19 465.292 1346.81 463.5C1345.48 461.708 1344.81 459.979 1344.81 458.312ZM1341.75 494.062C1341.21 492.021 1340.83 490.167 1340.62 488.5C1340.42 486.792 1340.31 485.021 1340.31 483.188L1340.38 481.438C1341.25 480.312 1342.6 479.188 1344.44 478.062C1346.31 476.896 1348.48 475.917 1350.94 475.125C1353.44 474.333 1356.02 473.938 1358.69 473.938C1364.52 473.938 1368.67 475.25 1371.12 477.875C1373.58 480.5 1374.81 484.583 1374.81 490.125C1374.81 493.458 1374.33 497.812 1373.38 503.188C1372.46 508.562 1371.33 513.792 1370 518.875C1368.71 523.917 1367.58 527.521 1366.62 529.688L1366.75 529.812L1376 526.438C1377.67 527.854 1378.92 529.417 1379.75 531.125C1380.62 532.833 1381.19 534.812 1381.44 537.062C1381.44 537.354 1380.52 538.562 1378.69 540.688C1376.85 542.771 1374.42 544.729 1371.38 546.562C1368.38 548.354 1364.9 549.25 1360.94 549.25C1356.94 549.25 1353.69 548.167 1351.19 546C1348.73 543.833 1347.5 540.125 1347.5 534.875C1347.5 528.75 1347.67 522.25 1348 515.375C1348.33 508.5 1348.85 501.833 1349.56 495.375L1341.75 494.062ZM1396.81 557.062C1397.1 556.188 1397.31 555.062 1397.44 553.688C1397.6 552.354 1397.65 551.042 1397.56 549.75C1397.44 546.792 1397.21 542.729 1396.88 537.562C1396.46 530.562 1396.15 524.771 1395.94 520.188C1395.73 515.604 1395.62 511.25 1395.62 507.125C1395.62 505.708 1395.67 503.792 1395.75 501.375L1395.81 499.875L1387.5 498.75C1386.92 496.833 1386.52 494.958 1386.31 493.125C1386.15 491.292 1386.08 489.062 1386.12 486.438C1388.79 485.021 1392.46 483.75 1397.12 482.625L1397.38 481.625C1394.58 479.125 1392.38 476.396 1390.75 473.438C1389.12 470.479 1388.31 467.375 1388.31 464.125C1388.31 460.375 1389.35 457.188 1391.44 454.562C1393.52 451.896 1396.44 449.896 1400.19 448.562C1403.98 447.229 1408.42 446.562 1413.5 446.562C1416.5 446.562 1419.5 446.729 1422.5 447.062C1425.54 447.354 1429.21 448.104 1433.5 449.312C1434.08 451.062 1434.38 453.104 1434.38 455.438C1434.38 458.062 1434.04 460.792 1433.38 463.625C1432.75 466.417 1431.88 468.833 1430.75 470.875C1426.71 469.583 1423.46 468.604 1421 467.938C1418.58 467.271 1415.92 466.729 1413 466.312C1412.38 466.438 1411.79 466.771 1411.25 467.312C1410.75 467.812 1410.46 468.292 1410.38 468.75C1410.75 470.667 1411.54 472.896 1412.75 475.438C1414 477.979 1415.4 480.292 1416.94 482.375L1434.31 479.188C1435.77 481.354 1436.5 484.458 1436.5 488.5C1436.5 490.958 1436.23 493.312 1435.69 495.562C1435.19 497.812 1434.56 499.354 1433.81 500.188C1433.27 500.229 1432.48 500.25 1431.44 500.25C1427.4 500.25 1423.71 499.75 1420.38 498.75C1420.21 503.667 1420.06 507.167 1419.94 509.25C1419.9 510.833 1419.79 513.5 1419.62 517.25L1419.25 527.562C1419.04 533.521 1418.83 538.438 1418.62 542.312C1418.42 546.188 1418.1 549.896 1417.69 553.438C1417.31 556.812 1416.79 559.688 1416.12 562.062C1415.5 564.479 1414.52 566.583 1413.19 568.375C1409.9 572.792 1404.48 575 1396.94 575C1393.94 575 1390.94 574.417 1387.94 573.25C1384.98 572.125 1382.69 570.292 1381.06 567.75C1380.98 565.25 1381.35 562.729 1382.19 560.188C1382.98 557.688 1384.19 555.542 1385.81 553.75L1396.81 557.062ZM1442.19 511.688C1442.19 504.479 1443.4 498.042 1445.81 492.375C1448.23 486.708 1451.96 482.229 1457 478.938C1462.08 475.604 1468.42 473.938 1476 473.938C1479.96 473.938 1483.92 474.417 1487.88 475.375C1491.83 476.292 1495.19 477.833 1497.94 480C1500.48 482.042 1502.31 484.75 1503.44 488.125C1504.6 491.458 1505.19 495.167 1505.19 499.25C1505.19 501.958 1504.96 504.729 1504.5 507.562C1504 508.396 1503.02 509.5 1501.56 510.875C1500.1 512.208 1498.4 513.521 1496.44 514.812C1494.48 516.104 1492.58 517.104 1490.75 517.812C1489 517.938 1487.19 518 1485.31 518C1482.02 518 1478.69 517.854 1475.31 517.562C1471.94 517.271 1468.98 516.938 1466.44 516.562C1466.77 520.104 1467.85 523.188 1469.69 525.812C1471.52 528.438 1474.44 529.75 1478.44 529.75C1478.81 529.75 1479.42 529.708 1480.25 529.625C1482.79 529.375 1485.75 528.708 1489.12 527.625C1492.54 526.5 1495.94 525.208 1499.31 523.75C1500.9 525.333 1502.06 526.917 1502.81 528.5C1503.56 530.083 1504.08 532.354 1504.38 535.312C1503.08 536.812 1500.98 538.646 1498.06 540.812C1495.19 542.979 1491.67 544.938 1487.5 546.688C1483.33 548.396 1478.98 549.25 1474.44 549.25C1467.6 549.25 1461.75 547.604 1456.88 544.312C1452.04 540.979 1448.38 536.479 1445.88 530.812C1443.42 525.104 1442.19 518.729 1442.19 511.688ZM1482.44 497.312C1481.85 496.688 1480.88 496.208 1479.5 495.875C1478.12 495.5 1476.69 495.312 1475.19 495.312C1473.98 495.312 1472.75 495.417 1471.5 495.625C1470.29 495.833 1469.56 496.062 1469.31 496.312C1467.9 499.104 1467 502.271 1466.62 505.812L1483.31 504.188L1482.44 497.312ZM889.938 661.75C889.938 649.167 890.125 639.5 890.5 632.75H890.438L881.5 631.438C880.958 629.896 880.542 628.188 880.25 626.312C879.958 624.438 879.812 622.625 879.812 620.875C879.812 619.542 879.917 618.083 880.125 616.5C885.25 614.667 892.312 613.312 901.312 612.438C910.312 611.562 918.979 611.125 927.312 611.125C933.688 611.125 939.167 611.625 943.75 612.625C948.333 613.625 952.167 615.896 955.25 619.438C958.375 622.938 959.938 628.188 959.938 635.188C959.938 638.688 959.188 642.771 957.688 647.438C956.229 652.062 954.354 656.583 952.062 661C949.812 665.375 947.542 668.917 945.25 671.625C941.875 675.667 938.125 678.042 934 678.75C927.167 679.833 919.938 680.375 912.312 680.375C912.146 684.667 912.083 687.75 912.125 689.625L921.438 689C923.354 692.125 924.417 695.833 924.625 700.125C924.625 700.333 923.688 701.229 921.812 702.812C919.938 704.396 917.458 705.854 914.375 707.188C911.333 708.521 907.833 709.188 903.875 709.188C899.958 709.188 896.833 708.125 894.5 706C892.208 703.833 891.062 700.104 891.062 694.812C890.354 686.146 890 675.146 890 661.812L889.938 661.75ZM929.5 662.812C930.583 658.229 931.479 653.375 932.188 648.25C932.938 643.083 933.354 638.583 933.438 634.75C933.229 634.375 932.167 634.042 930.25 633.75C928.333 633.458 925.854 633.312 922.812 633.312C920.688 633.312 918.042 633.396 914.875 633.562C914.5 646.146 914 656.25 913.375 663.875L929.5 662.812ZM968.25 667.375C968.25 648.042 968.625 634.75 969.375 627.5L962.312 626.25C961.312 622.417 960.812 618.292 960.812 613.875C961.438 613.083 962.604 612.104 964.312 610.938C966.021 609.771 968 608.75 970.25 607.875C972.542 607 974.812 606.562 977.062 606.562C982.188 606.562 986 607.875 988.5 610.5C991 613.125 992.25 617.146 992.25 622.562C992.25 624.938 992.042 628.771 991.625 634.062C991.208 639.312 990.604 644.958 989.812 651C989.021 657 988.104 662.354 987.062 667.062C987.062 667.312 987.208 667.542 987.5 667.75C987.792 667.958 988.104 668.062 988.438 668.062C988.812 668.062 989.062 667.917 989.188 667.625C990.854 661 992.521 655.458 994.188 651C995.854 646.542 998.375 642.583 1001.75 639.125C1005.12 635.667 1009.5 633.938 1014.88 633.938C1021.54 633.938 1026.33 635.979 1029.25 640.062C1032.17 644.104 1033.62 649.208 1033.62 655.375C1033.62 660.875 1032.98 666.188 1031.69 671.312C1030.4 676.396 1028.79 681.708 1026.88 687.25C1026.96 687.042 1026.67 687.854 1026 689.688L1026.12 689.812L1035.38 685.938C1038.62 688.729 1040.52 692.438 1041.06 697.062C1041.06 697.354 1040.12 698.562 1038.25 700.688C1036.38 702.771 1033.9 704.729 1030.81 706.562C1027.77 708.354 1024.27 709.25 1020.31 709.25C1016.35 709.25 1013.12 708.188 1010.62 706.062C1008.12 703.938 1006.88 700.312 1006.88 695.188C1006.88 691.104 1007.04 685.646 1007.38 678.812C1007.71 671.979 1008.04 666.479 1008.38 662.312C1007.29 661.146 1005.96 660.521 1004.38 660.438C1002.92 662.312 1000.77 666.062 997.938 671.688C995.104 677.312 993.104 681.521 991.938 684.312C991.854 684.896 991.812 685.458 991.812 686C991.812 688.083 992.125 690.896 992.75 694.438C993.375 697.938 994.146 701.208 995.062 704.25C994.312 705.667 992.771 706.854 990.438 707.812C988.104 708.771 985.229 709.25 981.812 709.25C978.729 709.25 976.25 709 974.375 708.5C972.542 708 971.25 707.479 970.5 706.938C969.75 706.354 969.375 706 969.375 705.875C969.333 705.5 969.229 704.521 969.062 702.938C968.896 701.312 968.729 699.062 968.562 696.188C968.396 693.271 968.312 689.958 968.312 686.25L968.25 667.375ZM1065.81 666.812C1068.27 666.812 1070.98 667.062 1073.94 667.562C1076.94 668.062 1079.69 668.667 1082.19 669.375V667.438C1082.19 666.146 1082.15 664.708 1082.06 663.125C1082.02 661.542 1081.94 660.5 1081.81 660C1081.44 659.292 1080.35 658.562 1078.56 657.812C1076.81 657.062 1073.94 656.688 1069.94 656.688C1067.48 656.688 1064.94 657 1062.31 657.625C1059.73 658.208 1056.85 659 1053.69 660C1051.98 657.167 1050.6 654.479 1049.56 651.938C1048.56 649.354 1048.06 646.771 1048.06 644.188C1048.06 643.396 1048.12 642.604 1048.25 641.812C1055 636.562 1063.73 633.938 1074.44 633.938C1080.35 633.938 1085.6 634.604 1090.19 635.938C1094.77 637.271 1098.54 639.854 1101.5 643.688C1104.46 647.521 1105.94 652.958 1105.94 660C1105.94 666.875 1105.12 673.542 1103.5 680C1101.92 686.417 1101.1 689.688 1101.06 689.812L1110.12 685.938C1111.33 687.229 1112.4 688.812 1113.31 690.688C1114.27 692.521 1114.88 694.646 1115.12 697.062C1114.54 698.312 1113.27 699.917 1111.31 701.875C1109.35 703.792 1106.96 705.5 1104.12 707C1101.29 708.5 1098.33 709.25 1095.25 709.25C1091.79 709.25 1089.17 708.229 1087.38 706.188C1085.62 704.146 1084.75 701.5 1084.75 698.25C1084.75 696.417 1085.02 694.562 1085.56 692.688L1083.69 692.125C1082.52 698.708 1080.04 703.208 1076.25 705.625C1072.46 708.042 1068.27 709.25 1063.69 709.25C1060.69 709.25 1057.79 708.417 1055 706.75C1052.21 705.042 1049.94 702.583 1048.19 699.375C1046.44 696.125 1045.56 692.333 1045.56 688C1045.56 681.083 1047.29 675.833 1050.75 672.25C1054.21 668.625 1059.23 666.812 1065.81 666.812ZM1072.94 690.625C1073.98 690.417 1075.21 689.833 1076.62 688.875C1078.08 687.917 1079.38 686.771 1080.5 685.438C1081.62 684.104 1082.29 682.833 1082.5 681.625L1082.12 680.125C1079.92 679.833 1077.56 679.688 1075.06 679.688C1072.94 679.688 1071.48 679.854 1070.69 680.188C1069.35 681.688 1068.69 683.354 1068.69 685.188C1068.69 686.521 1069.02 687.729 1069.69 688.812C1070.4 689.896 1071.48 690.5 1072.94 690.625ZM1124.56 691.25C1124.56 689.458 1124.6 685.062 1124.69 678.062C1124.81 664.312 1124.88 656.792 1124.88 655.5L1119.12 654.562C1118.33 652.188 1117.77 649.958 1117.44 647.875C1117.1 645.792 1116.94 643.688 1116.94 641.562C1116.94 640.688 1116.96 640.021 1117 639.562C1117.71 638.938 1118.81 638.188 1120.31 637.312C1121.81 636.438 1123.58 635.667 1125.62 635C1127.67 634.292 1129.75 633.938 1131.88 633.938C1136.83 633.938 1140.42 635.042 1142.62 637.25C1144.88 639.458 1146 642.688 1146 646.938C1146 649.521 1145.67 652.833 1145 656.875C1144.38 660.875 1143.73 663.729 1143.06 665.438L1145.31 665.812L1149.06 651.688C1150.73 645.312 1152.81 640.771 1155.31 638.062C1157.81 635.312 1160.62 633.938 1163.75 633.938C1165.79 633.938 1167.81 634.25 1169.81 634.875C1171.85 635.5 1173.42 636.271 1174.5 637.188C1175.67 639.771 1176.25 643.208 1176.25 647.5C1176.25 650.5 1175.96 653.479 1175.38 656.438C1174.79 659.354 1174.04 661.708 1173.12 663.5L1160 661.75C1157.33 664.583 1154.5 668.521 1151.5 673.562C1148.5 678.562 1146.1 683.167 1144.31 687.375L1144.25 690.625L1156.38 687.75C1158.42 690.875 1159.6 694.583 1159.94 698.875C1159.94 699.125 1159 700.146 1157.12 701.938C1155.25 703.729 1152.77 705.396 1149.69 706.938C1146.65 708.438 1143.15 709.188 1139.19 709.188C1135.1 709.188 1131.69 708.104 1128.94 705.938C1126.23 703.729 1124.79 700.021 1124.62 694.812C1124.58 694.188 1124.56 693 1124.56 691.25ZM1186.75 686.25C1186.75 679.458 1186.83 674.333 1187 670.875C1187.17 667.375 1187.6 662.25 1188.31 655.5L1181.12 654.562C1180.25 651.854 1179.67 649.438 1179.38 647.312C1179.12 645.188 1179 642.438 1179 639.062C1179.67 638.479 1180.77 637.792 1182.31 637C1183.9 636.167 1185.75 635.458 1187.88 634.875C1190.04 634.25 1192.23 633.938 1194.44 633.938C1199.48 633.938 1203.04 635.021 1205.12 637.188C1207.25 639.354 1208.31 642.604 1208.31 646.938C1208.31 649.354 1207.96 652.625 1207.25 656.75C1206.08 663.375 1205.5 666.854 1205.5 667.188C1205.5 667.396 1205.65 667.604 1205.94 667.812C1206.23 667.979 1206.54 668.062 1206.88 668.062C1207.25 668.062 1207.5 667.917 1207.62 667.625C1207.58 667.792 1208.06 665.688 1209.06 661.312C1210.27 655.562 1211.5 650.875 1212.75 647.25C1214.04 643.625 1216.08 640.521 1218.88 637.938C1221.67 635.354 1225.46 634.062 1230.25 634.062C1236.17 634.062 1240.44 635.771 1243.06 639.188C1245.69 642.562 1247 647.062 1247 652.688C1247 657.146 1246.25 662.104 1244.75 667.562C1244.75 667.771 1244.9 667.979 1245.19 668.188C1245.48 668.354 1245.79 668.438 1246.12 668.438C1246.5 668.438 1246.75 668.292 1246.88 668L1247.75 664.5C1249.25 658.333 1250.73 653.208 1252.19 649.125C1253.69 645.042 1255.92 641.521 1258.88 638.562C1261.88 635.562 1265.77 634.062 1270.56 634.062C1276.85 634.062 1281.38 636.083 1284.12 640.125C1286.92 644.167 1288.31 649.25 1288.31 655.375C1288.31 659.708 1287.9 664.062 1287.06 668.438C1286.27 672.812 1285.42 676.479 1284.5 679.438C1283.62 682.396 1282.54 685.812 1281.25 689.688L1281.38 689.812L1290.62 685.938C1293.88 688.729 1295.77 692.438 1296.31 697.062C1296.31 697.354 1295.38 698.562 1293.5 700.688C1291.62 702.771 1289.15 704.729 1286.06 706.562C1283.02 708.354 1279.52 709.25 1275.56 709.25C1271.6 709.25 1268.38 708.188 1265.88 706.062C1263.38 703.938 1262.12 700.312 1262.12 695.188C1262.12 689.479 1262.23 683.625 1262.44 677.625C1262.69 671.583 1263.04 666.167 1263.5 661.375C1262.79 660.792 1261.81 660.479 1260.56 660.438C1259.31 661.646 1257.75 664.292 1255.88 668.375C1254 672.417 1252.27 676.75 1250.69 681.375C1249.1 685.958 1248.1 689.542 1247.69 692.125C1248.27 696.208 1249.17 700.25 1250.38 704.25C1249.62 705.667 1248.08 706.854 1245.75 707.812C1243.42 708.771 1240.54 709.25 1237.12 709.25C1234.04 709.25 1231.62 709 1229.88 708.5C1228.12 708 1226.92 707.479 1226.25 706.938C1225.62 706.396 1225.31 706.042 1225.31 705.875C1225.27 705.5 1225.17 704.521 1225 702.938C1224.83 701.312 1224.67 699.062 1224.5 696.188C1224.33 693.271 1224.25 689.958 1224.25 686.25C1224.25 682.708 1224.52 678.271 1225.06 672.938C1225.1 672.271 1225.23 670.688 1225.44 668.188C1225.65 665.688 1225.75 663.417 1225.75 661.375C1225.04 660.792 1224.06 660.479 1222.81 660.438C1222.1 660.979 1220.12 664.438 1216.88 670.812C1213.62 677.188 1211.46 681.688 1210.38 684.312C1210.29 684.896 1210.25 685.458 1210.25 686C1210.25 688.083 1210.56 690.896 1211.19 694.438C1211.81 697.938 1212.58 701.208 1213.5 704.25C1212.75 705.667 1211.21 706.854 1208.88 707.812C1206.54 708.771 1203.67 709.25 1200.25 709.25C1197.17 709.25 1194.69 709 1192.81 708.5C1190.98 708 1189.69 707.479 1188.94 706.938C1188.19 706.354 1187.81 706 1187.81 705.875C1187.77 705.5 1187.67 704.521 1187.5 702.938C1187.33 701.312 1187.17 699.062 1187 696.188C1186.83 693.271 1186.75 689.958 1186.75 686.25ZM1320.44 666.812C1322.9 666.812 1325.6 667.062 1328.56 667.562C1331.56 668.062 1334.31 668.667 1336.81 669.375V667.438C1336.81 666.146 1336.77 664.708 1336.69 663.125C1336.65 661.542 1336.56 660.5 1336.44 660C1336.06 659.292 1334.98 658.562 1333.19 657.812C1331.44 657.062 1328.56 656.688 1324.56 656.688C1322.1 656.688 1319.56 657 1316.94 657.625C1314.35 658.208 1311.48 659 1308.31 660C1306.6 657.167 1305.23 654.479 1304.19 651.938C1303.19 649.354 1302.69 646.771 1302.69 644.188C1302.69 643.396 1302.75 642.604 1302.88 641.812C1309.62 636.562 1318.35 633.938 1329.06 633.938C1334.98 633.938 1340.23 634.604 1344.81 635.938C1349.4 637.271 1353.17 639.854 1356.12 643.688C1359.08 647.521 1360.56 652.958 1360.56 660C1360.56 666.875 1359.75 673.542 1358.12 680C1356.54 686.417 1355.73 689.688 1355.69 689.812L1364.75 685.938C1365.96 687.229 1367.02 688.812 1367.94 690.688C1368.9 692.521 1369.5 694.646 1369.75 697.062C1369.17 698.312 1367.9 699.917 1365.94 701.875C1363.98 703.792 1361.58 705.5 1358.75 707C1355.92 708.5 1352.96 709.25 1349.88 709.25C1346.42 709.25 1343.79 708.229 1342 706.188C1340.25 704.146 1339.38 701.5 1339.38 698.25C1339.38 696.417 1339.65 694.562 1340.19 692.688L1338.31 692.125C1337.15 698.708 1334.67 703.208 1330.88 705.625C1327.08 708.042 1322.9 709.25 1318.31 709.25C1315.31 709.25 1312.42 708.417 1309.62 706.75C1306.83 705.042 1304.56 702.583 1302.81 699.375C1301.06 696.125 1300.19 692.333 1300.19 688C1300.19 681.083 1301.92 675.833 1305.38 672.25C1308.83 668.625 1313.85 666.812 1320.44 666.812ZM1327.56 690.625C1328.6 690.417 1329.83 689.833 1331.25 688.875C1332.71 687.917 1334 686.771 1335.12 685.438C1336.25 684.104 1336.92 682.833 1337.12 681.625L1336.75 680.125C1334.54 679.833 1332.19 679.688 1329.69 679.688C1327.56 679.688 1326.1 679.854 1325.31 680.188C1323.98 681.688 1323.31 683.354 1323.31 685.188C1323.31 686.521 1323.65 687.729 1324.31 688.812C1325.02 689.896 1326.1 690.5 1327.56 690.625ZM1372.44 671.688C1372.44 664.479 1373.65 658.042 1376.06 652.375C1378.48 646.708 1382.21 642.229 1387.25 638.938C1392.33 635.604 1398.67 633.938 1406.25 633.938C1408.83 633.938 1411.79 634.104 1415.12 634.438C1418.5 634.729 1421.73 635.188 1424.81 635.812L1426.06 636.688C1427.94 637.979 1429.31 639.021 1430.19 639.812C1431.1 640.562 1432.06 641.625 1433.06 643C1433.06 645.25 1432.75 648.354 1432.12 652.312C1431.54 656.229 1430.79 659.875 1429.88 663.25C1428.96 666.625 1428.08 668.792 1427.25 669.75C1425.88 670.458 1423.65 670.812 1420.56 670.812C1419.06 670.812 1417.65 670.708 1416.31 670.5C1415.02 670.25 1414.04 669.938 1413.38 669.562L1412.06 658C1411.44 657.292 1410 656.729 1407.75 656.312C1405.54 655.854 1403.5 655.625 1401.62 655.625C1401.04 655.625 1400.5 655.667 1400 655.75C1399.04 657.708 1398.31 660.208 1397.81 663.25C1397.31 666.292 1397.06 669.396 1397.06 672.562C1397.06 677.146 1397.81 681.042 1399.31 684.25C1400.81 687.417 1403.88 689 1408.5 689C1410.79 689 1413.04 688.625 1415.25 687.875C1417.5 687.125 1420.33 685.979 1423.75 684.438C1425.17 683.771 1426.23 683.292 1426.94 683C1428.6 684.667 1429.92 686.417 1430.88 688.25C1431.83 690.083 1432.46 692.438 1432.75 695.312C1430.08 698.438 1426.33 701.542 1421.5 704.625C1416.71 707.708 1411.1 709.25 1404.69 709.25C1397.85 709.25 1392 707.604 1387.12 704.312C1382.29 700.979 1378.62 696.479 1376.12 690.812C1373.67 685.104 1372.44 678.729 1372.44 671.688ZM1443.44 618.312C1443.44 614.646 1444.62 611.667 1447 609.375C1449.42 607.083 1453.25 605.938 1458.5 605.938C1463.75 605.938 1467.56 607.083 1469.94 609.375C1472.35 611.667 1473.56 614.646 1473.56 618.312C1473.56 620.396 1472.83 622.312 1471.38 624.062C1469.96 625.812 1468.08 627.208 1465.75 628.25C1463.42 629.25 1461 629.75 1458.5 629.75C1455.79 629.75 1453.27 629.167 1450.94 628C1448.65 626.792 1446.81 625.292 1445.44 623.5C1444.1 621.708 1443.44 619.979 1443.44 618.312ZM1440.38 654.062C1439.83 652.021 1439.46 650.167 1439.25 648.5C1439.04 646.792 1438.94 645.021 1438.94 643.188L1439 641.438C1439.88 640.312 1441.23 639.188 1443.06 638.062C1444.94 636.896 1447.1 635.917 1449.56 635.125C1452.06 634.333 1454.65 633.938 1457.31 633.938C1463.15 633.938 1467.29 635.25 1469.75 637.875C1472.21 640.5 1473.44 644.583 1473.44 650.125C1473.44 653.458 1472.96 657.812 1472 663.188C1471.08 668.562 1469.96 673.792 1468.62 678.875C1467.33 683.917 1466.21 687.521 1465.25 689.688L1465.38 689.812L1474.62 686.438C1476.29 687.854 1477.54 689.417 1478.38 691.125C1479.25 692.833 1479.81 694.812 1480.06 697.062C1480.06 697.354 1479.15 698.562 1477.31 700.688C1475.48 702.771 1473.04 704.729 1470 706.562C1467 708.354 1463.52 709.25 1459.56 709.25C1455.56 709.25 1452.31 708.167 1449.81 706C1447.35 703.833 1446.12 700.125 1446.12 694.875C1446.12 688.75 1446.29 682.25 1446.62 675.375C1446.96 668.5 1447.48 661.833 1448.19 655.375L1440.38 654.062ZM1491.31 685.938C1494.98 687.396 1497.92 688.521 1500.12 689.312C1502.33 690.104 1504.75 690.792 1507.38 691.375C1510.04 691.958 1512.69 692.25 1515.31 692.25C1516.48 692.25 1517.31 692.146 1517.81 691.938C1517.94 691.771 1518.04 691.521 1518.12 691.188C1518.25 690.812 1518.31 690.438 1518.31 690.062C1518.31 689.229 1517.83 688.542 1516.88 688C1515.38 687.167 1512.71 685.854 1508.88 684.062C1503.62 681.562 1499.46 679.333 1496.38 677.375C1493.33 675.417 1490.75 672.812 1488.62 669.562C1486.54 666.312 1485.5 662.229 1485.5 657.312C1485.5 650.271 1487.6 644.625 1491.81 640.375C1496.02 636.083 1502.69 633.938 1511.81 633.938C1522.69 633.938 1531.15 635.354 1537.19 638.188C1537.48 639.396 1537.62 640.917 1537.62 642.75C1537.62 646.25 1537.08 649.833 1536 653.5C1534.92 657.125 1533.5 659.812 1531.75 661.562C1529.38 660.771 1526.02 659.5 1521.69 657.75C1518.52 656.5 1516 655.542 1514.12 654.875C1512.29 654.167 1510.6 653.667 1509.06 653.375C1508.23 653.583 1507.56 654.083 1507.06 654.875C1506.56 655.625 1506.31 656.521 1506.31 657.562C1506.31 658.479 1506.58 659.25 1507.12 659.875C1507.67 660.5 1508.27 661 1508.94 661.375C1509.65 661.708 1510.65 662.167 1511.94 662.75C1512.6 663.042 1513.23 663.312 1513.81 663.562C1514.4 663.771 1514.94 663.979 1515.44 664.188C1518.69 665.562 1521.25 666.688 1523.12 667.562C1525 668.438 1526.81 669.479 1528.56 670.688C1531.77 672.896 1534.29 675.417 1536.12 678.25C1537.96 681.083 1538.88 684.188 1538.88 687.562C1538.88 692.229 1537.54 696.271 1534.88 699.688C1532.25 703.062 1528.88 705.521 1524.75 707.062C1522.58 707.854 1520.21 708.417 1517.62 708.75C1515.08 709.125 1512.1 709.312 1508.69 709.312C1504.65 709.312 1500.48 708.542 1496.19 707C1491.94 705.417 1488.69 702.792 1486.44 699.125C1486.48 696.583 1486.81 694.375 1487.44 692.5C1488.1 690.583 1489.4 688.396 1491.31 685.938ZM1550.94 673.5C1550.94 666.708 1551.04 660.521 1551.25 654.938L1544.44 653.75C1543.9 651.667 1543.52 649.833 1543.31 648.25C1543.1 646.667 1543 644.979 1543 643.188L1543.12 641.938C1543.25 641.354 1543.31 640.875 1543.31 640.5L1552.38 638.5C1552.58 635.917 1553.06 633 1553.81 629.75C1554.56 626.5 1555.35 624.104 1556.19 622.562C1557.52 621.562 1559.12 620.812 1561 620.312C1562.88 619.812 1564.9 619.562 1567.06 619.562C1568.9 619.562 1570.67 619.75 1572.38 620.125C1574.12 620.458 1575.65 620.917 1576.94 621.5C1577.06 622.917 1577.12 624.542 1577.12 626.375C1577.12 629.375 1576.98 632.771 1576.69 636.562L1587.69 634.562C1589.23 637.229 1590 640.125 1590 643.25C1590 645.417 1589.73 647.375 1589.19 649.125C1588.69 650.875 1587.98 652.854 1587.06 655.062C1584.31 655.521 1580.54 655.812 1575.75 655.938C1575.17 662.729 1573.88 672.708 1571.88 685.875L1571.56 688L1571.69 688.125L1586.38 683.562C1589.42 686.104 1591.27 690.021 1591.94 695.312C1591.94 695.604 1590.58 696.979 1587.88 699.438C1585.21 701.854 1581.85 704.104 1577.81 706.188C1573.77 708.229 1569.38 709.25 1564.62 709.25C1556.33 709.25 1551.92 704.188 1551.38 694.062C1551.08 688.938 1550.94 682.083 1550.94 673.5ZM1602.19 685.938C1605.85 687.396 1608.79 688.521 1611 689.312C1613.21 690.104 1615.62 690.792 1618.25 691.375C1620.92 691.958 1623.56 692.25 1626.19 692.25C1627.35 692.25 1628.19 692.146 1628.69 691.938C1628.81 691.771 1628.92 691.521 1629 691.188C1629.12 690.812 1629.19 690.438 1629.19 690.062C1629.19 689.229 1628.71 688.542 1627.75 688C1626.25 687.167 1623.58 685.854 1619.75 684.062C1614.5 681.562 1610.33 679.333 1607.25 677.375C1604.21 675.417 1601.62 672.812 1599.5 669.562C1597.42 666.312 1596.38 662.229 1596.38 657.312C1596.38 650.271 1598.48 644.625 1602.69 640.375C1606.9 636.083 1613.56 633.938 1622.69 633.938C1633.56 633.938 1642.02 635.354 1648.06 638.188C1648.35 639.396 1648.5 640.917 1648.5 642.75C1648.5 646.25 1647.96 649.833 1646.88 653.5C1645.79 657.125 1644.38 659.812 1642.62 661.562C1640.25 660.771 1636.9 659.5 1632.56 657.75C1629.4 656.5 1626.88 655.542 1625 654.875C1623.17 654.167 1621.48 653.667 1619.94 653.375C1619.1 653.583 1618.44 654.083 1617.94 654.875C1617.44 655.625 1617.19 656.521 1617.19 657.562C1617.19 658.479 1617.46 659.25 1618 659.875C1618.54 660.5 1619.15 661 1619.81 661.375C1620.52 661.708 1621.52 662.167 1622.81 662.75C1623.48 663.042 1624.1 663.312 1624.69 663.562C1625.27 663.771 1625.81 663.979 1626.31 664.188C1629.56 665.562 1632.12 666.688 1634 667.562C1635.88 668.438 1637.69 669.479 1639.44 670.688C1642.65 672.896 1645.17 675.417 1647 678.25C1648.83 681.083 1649.75 684.188 1649.75 687.562C1649.75 692.229 1648.42 696.271 1645.75 699.688C1643.12 703.062 1639.75 705.521 1635.62 707.062C1633.46 707.854 1631.08 708.417 1628.5 708.75C1625.96 709.125 1622.98 709.312 1619.56 709.312C1615.52 709.312 1611.35 708.542 1607.06 707C1602.81 705.417 1599.56 702.792 1597.31 699.125C1597.35 696.583 1597.69 694.375 1598.31 692.5C1598.98 690.583 1600.27 688.396 1602.19 685.938Z"/>
</svg>
