<svg width="1358" height="530" viewBox="0 0 1358 530" fill="white" xmlns="http://www.w3.org/2000/svg">
<path d="M238.425 103.039C230.439 106.673 228.762 116.972 235.204 122.857C236.352 123.896 236.66 124.372 236.087 124.242C234.587 123.852 231.718 124.891 230.527 126.276C227.968 129.218 229.998 133.632 234.189 134.281C235.646 134.497 235.999 134.757 235.999 135.492C235.954 137.786 238.293 228.137 238.381 228.224C238.425 228.31 240.19 227.748 242.308 226.969L246.147 225.627V223.637C246.147 222.555 246.456 204.121 246.809 182.702C247.162 161.282 247.471 141.68 247.471 139.084V134.454H248.839H250.163L249.942 138.002C249.457 144.753 247.736 224.459 248.045 224.719C248.221 224.892 248.442 224.935 248.53 224.849C248.707 224.675 251.001 141.594 251.001 136.055C251.001 134.627 251.133 134.454 252.104 134.454C256.473 134.454 259.164 129.391 256.473 126.276C255.325 124.934 252.369 123.809 251.178 124.242C250.119 124.631 250.472 123.852 251.795 122.9C252.457 122.424 253.56 121.04 254.222 119.785C258.723 111.736 252.854 102 243.5 102C241.426 102 240.014 102.303 238.425 103.039ZM251.442 109.746C252.722 112.255 252.898 113.9 252.148 116.366C251.442 118.833 249.677 120.823 247.162 122.078C245.177 123.03 241.47 122.944 239.529 121.862C238.381 121.256 238.293 121.083 239.087 121.299C242.882 122.338 247.383 120.737 249.501 117.578C251.089 115.198 251.442 111.087 250.207 108.794C249.589 107.625 249.501 107.322 249.986 107.669C250.339 107.972 251.001 108.924 251.442 109.746Z"/>
<path d="M192.977 103.341C189.844 104.077 185.564 105.505 180.843 107.496C175.856 109.616 174.136 110.481 161.251 117.491C156.618 120.001 150.661 123.073 148.014 124.328C128.599 133.415 102.212 138.694 75.6485 138.824C70.883 138.824 67 138.997 67 139.17C67 139.82 70.3976 141.853 72.3833 142.416C73.8394 142.849 76.0456 142.892 81.7819 142.632C105.036 141.55 118.494 139.646 132.305 135.492C146.646 131.165 153.97 128.396 165.002 122.944C187.285 111.996 197.301 110.654 201.14 118.011C202.331 120.304 202.817 122.597 203.567 129.218C204.096 134.064 204.405 135.492 205.553 137.742C209.436 145.488 219.496 150.464 232.248 150.94L234.896 151.07L234.852 148.69C234.763 143.627 235.116 144.147 231.101 143.541C227.041 142.978 222.497 141.68 219.981 140.425C217.422 139.17 214.598 136.401 213.451 134.108C212.348 131.901 212.215 128.958 212.657 116.929C212.833 111.823 212.745 111.13 211.862 109.27C210.803 106.933 208.112 104.813 204.758 103.644C202.464 102.822 196.022 102.649 192.977 103.341Z"/>
<path d="M282.507 103.471C279.727 104.337 276.726 106.587 275.447 108.75C274.432 110.438 274.255 111.26 274.211 114.462C274.167 116.539 274.343 120.737 274.564 123.852C274.873 128.699 274.829 129.867 274.167 132.204C272.402 138.305 266.401 142.07 255.987 143.541L252.413 144.06L252.104 147.219C251.928 148.95 251.884 150.551 252.016 150.767C252.149 150.984 254.178 150.984 256.605 150.81C268.784 149.858 277.741 145.142 281.448 137.742C282.595 135.492 282.904 134.064 283.433 129.218C284.404 120.477 285.11 118.27 287.757 115.544C291.993 111.13 302.495 113.424 321.778 122.857C333.118 128.439 339.737 130.949 354.695 135.492C362.593 137.872 369.742 139.343 378.567 140.468C390.922 142.07 411.572 143.281 414.264 142.589C415.764 142.199 420 139.69 420 139.17C420 139.041 416.294 138.911 411.749 138.867C392.687 138.651 375.301 136.314 358.931 131.641C347.503 128.396 339.781 125.15 327.558 118.443C311.629 109.702 305.893 106.976 298.303 104.553C294.817 103.428 293.141 103.168 289.169 103.038C285.904 102.909 283.742 103.082 282.507 103.471Z"/>
<path d="M188.035 118.962C176.695 131.425 165.266 140.901 152.823 148.257C146.204 152.152 146.028 152.325 147.043 153.45C148.058 154.532 151.676 155.397 153.573 155.008C158.868 153.883 170.605 145.488 179.077 136.79C186.579 129.088 197.433 115.76 196.904 114.895C196.242 113.9 194.83 115.068 191.212 119.655C186.843 125.15 173.474 138.608 168.929 142.026C166.811 143.627 168.09 142.199 173.782 136.617C183.711 126.924 194.654 114.116 193.065 114.116C192.712 114.116 190.462 116.323 188.035 118.962Z"/>
<path d="M294.244 115.414C298.833 121.732 308.673 132.636 316.086 139.56C320.322 143.498 320.586 143.801 318.071 141.983C313.659 138.738 300.245 125.28 295.788 119.655C292.17 115.068 290.758 113.9 290.096 114.895C289.964 115.111 291.861 117.881 294.244 121.04C304.966 135.016 317.189 146.613 327.205 152.195C332.103 154.965 333.956 155.484 336.824 154.835C339.56 154.229 341.016 153.017 340.134 152.022C339.869 151.633 337.972 150.464 336.03 149.339C323.322 142.156 310.57 131.728 299.009 119.006C296.538 116.323 294.288 114.116 293.935 114.116C293.45 114.116 293.538 114.419 294.244 115.414Z"/>
<path d="M184.196 119.006C176.695 126.925 163.546 137.916 158.295 140.642L156.794 141.421L158.074 140.425C166.061 134.324 182.122 119.828 184.373 116.712L185.255 115.501L184.284 115.717C183.711 115.847 181.99 117.188 180.401 118.616C176.386 122.338 169.37 128.223 165.178 131.295C160.28 134.93 155.956 137.483 146.425 142.416C141.924 144.752 137.997 146.916 137.644 147.219C136.188 148.56 139.012 150.464 142.454 150.464C145.94 150.464 154.765 146.354 161.869 141.464C169.282 136.358 177.754 128.742 184.726 120.823C190.903 113.9 190.418 114.549 189.315 114.549C188.741 114.549 186.932 116.107 184.196 119.006Z"/>
<path d="M297.377 115.284C306.864 126.449 316.35 135.406 325.131 141.464C332.235 146.354 341.06 150.464 344.546 150.464C347.988 150.464 350.812 148.56 349.356 147.219C349.003 146.916 345.076 144.752 340.575 142.416C331.221 137.613 326.852 135.016 322.351 131.684C317.939 128.396 311.32 122.944 307.217 119.179C303.819 116.063 301.26 114.592 302.186 116.236C303.334 118.357 321.645 134.93 328.882 140.425C330.912 141.983 329.279 141.074 325.131 138.305C319.439 134.54 313.306 129.348 305.452 121.602C301.524 117.708 297.994 114.549 297.553 114.549C296.847 114.549 296.847 114.635 297.377 115.284Z"/>
<path d="M194.521 120.434C185.034 132.377 174.665 142.978 165.399 150.291C161.957 153.017 159.839 154.965 159.751 155.527C159.53 156.912 161.075 157.518 164.296 157.301C166.723 157.171 167.473 156.868 170.341 155.051C180.048 148.733 190.374 137.439 198.625 123.982C200.875 120.347 201.14 119.698 200.699 118.876C200.213 117.967 200.125 118.01 198.978 119.828C194.742 126.405 185.785 137.31 181.019 141.81L178.504 144.19L181.549 140.728C185.74 135.968 190.506 129.737 195.36 122.641C198.978 117.318 199.684 115.847 198.537 115.847C198.316 115.847 196.551 117.924 194.521 120.434Z"/>
<path d="M287.846 116.28C287.316 117.145 299.142 133.588 305.452 140.728L308.496 144.19L305.981 141.81C301.216 137.31 292.258 126.405 288.022 119.828C286.875 118.01 286.787 117.967 286.301 118.876C285.728 119.914 286.257 120.953 291.287 128.396C299.583 140.685 307.349 148.906 316.174 154.662C319.395 156.782 320.101 157.085 322.616 157.258C325.881 157.518 327.47 156.955 327.249 155.527C327.161 154.964 325.043 152.974 321.601 150.248C312.114 142.805 302.098 132.506 292.391 120.347C290.449 117.881 288.684 115.847 288.463 115.847C288.287 115.847 287.978 116.02 287.846 116.28Z"/>
<path d="M174.886 119.222C171.488 120.65 167.782 122.77 162.531 126.275C154.985 131.338 146.999 136.055 146.646 135.665C146.513 135.535 147.881 134.627 149.602 133.588C153.132 131.554 160.986 126.275 160.986 125.972C160.986 125.886 160.016 126.275 158.824 126.881C157.589 127.444 155.073 128.569 153.176 129.304C151.279 130.04 147.043 131.771 143.777 133.155C140.512 134.497 135.835 136.271 133.408 137.007C128.819 138.478 127.142 139.516 127.584 140.685C128.378 142.675 134.07 144.19 138.129 143.541C144.66 142.502 157.633 135.492 168.708 126.968C173.253 123.463 180.445 117.188 179.96 117.188C179.828 117.145 177.577 118.097 174.886 119.222Z"/>
<path d="M310.129 120.174C321.69 130.862 340.001 141.94 348.606 143.541C352.798 144.32 359.063 142.546 359.461 140.382C359.681 139.387 357.519 138.218 353.018 136.834C350.944 136.185 346.532 134.54 343.267 133.156C339.957 131.771 335.721 130.04 333.824 129.304C331.927 128.569 329.411 127.444 328.176 126.881C326.985 126.275 326.014 125.886 326.014 126.016C326.014 126.362 334.883 132.247 338.236 134.151C340.001 135.103 341.369 136.011 341.237 136.098C340.84 136.487 332.897 131.857 325.22 126.795C317.674 121.775 314.365 119.958 309.026 117.967L306.819 117.145L310.129 120.174Z"/>
<path d="M199.375 125.497C193.197 135.233 184.24 145.488 175.239 153.147C172.988 155.051 171.135 156.869 171.135 157.215C171.135 158.729 175.327 159.162 178.68 158.037C182.916 156.566 194.786 143.411 201.316 132.896C202.728 130.603 202.905 129.997 202.64 128.655L202.375 127.054L199.772 130.992C196.374 136.098 192.624 140.901 189.226 144.406C186.226 147.522 186.27 147.219 189.403 143.411C191.609 140.728 196.021 134.324 199.728 128.526C201.184 126.276 202.022 124.458 202.022 123.636C202.022 122.944 201.89 122.338 201.714 122.338C201.493 122.381 200.478 123.766 199.375 125.497Z"/>
<path d="M284.977 123.679C284.977 125.41 291.376 135.492 296.847 142.416C300.333 146.786 300.598 147.306 297.774 144.406C294.332 140.815 290.581 136.098 287.272 130.992L284.669 127.011L284.36 128.612C284.095 129.867 284.271 130.559 285.242 132.204C290.978 141.897 304.039 156.566 308.32 158.037C311.673 159.162 315.865 158.729 315.865 157.215C315.865 156.869 314.012 155.051 311.761 153.147C307.172 149.253 301.039 143.065 297.288 138.521C294.288 134.93 287.89 126.232 286.566 123.982C285.419 121.992 284.977 121.905 284.977 123.679Z"/>
<path d="M199.154 137.743C195.845 142.459 190.285 149.426 184.946 155.614C182.343 158.6 182.034 159.811 183.711 160.244C187.549 161.196 192.006 158.037 197.875 150.291C200.655 146.613 205.111 139.646 205.111 138.997C205.111 138.738 204.846 138.175 204.538 137.743C204.008 137.05 203.876 137.137 202.684 138.868C200.963 141.464 195.36 148.69 194.874 148.993C194.654 149.123 195.845 147.219 197.522 144.753C201.846 138.392 203.346 135.622 203.346 134.064C203.346 133.329 203.214 132.723 203.037 132.723C202.817 132.723 201.096 135.016 199.154 137.743Z"/>
<path d="M283.654 134.108C283.654 135.579 285.375 138.651 289.964 145.488C293.361 150.594 290.758 147.781 286.213 141.464C283.345 137.526 282.948 137.093 282.462 137.786C281.58 138.911 281.712 139.214 284.36 143.368C287.802 148.777 292.567 154.791 295.303 157.258C298.259 159.941 302.098 161.152 303.907 160.027C304.966 159.335 304.084 157.734 299.936 153.061C295.7 148.257 289.611 140.512 286.301 135.665C285.198 134.064 284.183 132.723 284.007 132.723C283.786 132.723 283.654 133.329 283.654 134.108Z"/>
<path d="M122.597 138.824C113.905 140.901 99.8289 142.546 83.7674 143.368C77.7223 143.671 74.81 144.32 74.3246 145.575C73.5304 147.522 77.4134 149.685 83.282 150.508C90.9156 151.546 113.728 150.421 123.392 148.474C127.01 147.738 133.143 146.051 135.173 145.228L136.497 144.709L134.07 144.406C129.834 143.887 126.569 142.026 126.569 140.079C126.569 139.819 127.098 139.127 127.716 138.565C129.172 137.266 128.996 137.266 122.597 138.824Z"/>
<path d="M359.24 138.478C359.902 139.084 360.431 139.819 360.431 140.079C360.431 142.026 357.343 143.887 353.195 144.363C350.547 144.709 350.503 144.709 351.827 145.228C353.857 146.051 359.99 147.738 363.608 148.474C373.272 150.421 396.084 151.546 403.718 150.508C409.587 149.685 413.47 147.522 412.675 145.575C412.19 144.32 409.278 143.627 403.233 143.324C384.656 142.416 372.389 140.815 359.328 137.699L358.004 137.353L359.24 138.478Z"/>
<path d="M203.39 144.19C202.111 146.18 199.331 150.161 197.169 153.017C192.933 158.513 192.359 159.724 193.33 161.023C194.301 162.321 196.683 161.628 198.934 159.465C201.008 157.431 204.582 152.238 207.318 147.306C209.038 144.19 209.127 143.844 208.509 143.195C208.112 142.805 207.715 142.589 207.626 142.719C207.538 142.805 206.17 144.882 204.538 147.306C201.317 152.238 200.125 153.364 202.905 148.993C206.479 143.195 207.494 140.512 206.082 140.512C205.861 140.512 204.626 142.156 203.39 144.19Z"/>
<path d="M280.389 141.204C280.124 141.94 281.403 144.666 284.095 148.993C286.875 153.363 285.684 152.238 282.462 147.305C280.83 144.882 279.462 142.805 279.374 142.719C279.285 142.589 278.888 142.848 278.491 143.195C277.829 143.844 278.006 144.276 280.389 148.517C285.154 156.955 289.478 161.715 292.346 161.715C293.317 161.715 294.244 160.59 294.244 159.421C294.244 159.075 292.346 156.349 290.052 153.277C287.757 150.248 284.845 146.137 283.61 144.147C282.33 142.156 281.183 140.512 281.006 140.512C280.83 140.512 280.521 140.815 280.389 141.204Z"/>
<path d="M210.097 145.791C208.818 147.868 202.64 157.907 201.89 159.162C199.728 162.84 203.082 163.186 206.435 159.638C208.685 157.258 213.716 148.171 213.319 147.219C212.833 145.921 211.907 146.656 210.406 149.426C208.332 153.277 207.759 153.493 209.7 149.642C210.583 147.955 211.289 146.31 211.289 145.921C211.289 145.142 210.583 145.055 210.097 145.791Z"/>
<path d="M275.711 145.877C275.711 146.267 276.417 147.955 277.256 149.599C278.094 151.286 278.712 152.628 278.624 152.628C278.491 152.628 277.697 151.373 276.814 149.815C275.005 146.7 274.564 146.224 273.814 146.959C272.887 147.868 279.285 159.205 281.668 160.979C283.213 162.061 285.331 162.407 285.639 161.585C286.037 160.676 285.11 158.902 280.653 151.762C276.859 145.791 275.711 144.406 275.711 145.877Z"/>
<path d="M134.07 146.873C125.377 149.686 111.919 151.546 95.8136 152.109C86.3267 152.455 84.65 152.801 84.65 154.359C84.65 155.657 86.6797 157.648 89.1507 158.729C91.357 159.725 91.9747 159.768 99.8731 159.725C113.022 159.681 126.48 157.258 138.394 152.715L141.659 151.503L139.718 150.94C136.32 149.945 135.35 148.301 137.247 146.57C138.438 145.488 138.218 145.531 134.07 146.873Z"/>
<path d="M349.753 146.526C351.606 148.301 350.944 149.556 347.414 150.854L345.341 151.633L349.268 152.974C363.255 157.82 378.125 160.33 390.525 159.897C395.29 159.724 396.217 159.595 398.246 158.556C400.673 157.344 402.35 155.614 402.35 154.315C402.35 152.801 400.629 152.455 391.098 152.109C373.095 151.459 360.034 149.469 349.488 145.834C348.915 145.661 348.959 145.791 349.753 146.526Z"/>
<path d="M214.775 149.253C214.466 149.815 213.098 152.022 211.686 154.142C208.597 158.859 207.671 160.893 208.2 161.758C208.906 162.84 212.26 160.72 214.289 157.907C216.275 155.094 218.79 150.508 218.79 149.685C218.79 148.387 217.378 149.339 216.363 151.33C214.907 154.186 214.554 154.099 215.922 151.243C216.496 150.032 216.893 148.863 216.76 148.647C216.319 147.998 215.304 148.301 214.775 149.253Z"/>
<path d="M270.284 148.56C270.152 148.69 270.505 149.859 271.078 151.157C272.402 154.099 272.137 154.186 270.637 151.33C269.666 149.426 268.21 148.387 268.21 149.599C268.21 150.378 270.902 155.354 272.711 157.907C274.741 160.72 278.094 162.84 278.8 161.758C279.33 160.893 278.403 158.859 275.314 154.142C273.902 152.022 272.534 149.815 272.225 149.253C271.74 148.344 270.858 147.998 270.284 148.56Z"/>
<path d="M219.717 152.541C219.011 153.926 217.687 156.219 216.849 157.647C215.304 160.157 214.819 162.148 215.701 162.148C217.643 162.148 220.379 159.465 222.32 155.743C224.394 151.589 224.57 151.027 223.82 150.724C223.423 150.594 222.894 151.07 222.32 152.195C221.217 154.359 220.82 154.445 221.702 152.411C222.32 150.897 222.232 150.031 221.438 150.031C221.173 150.031 220.423 151.157 219.717 152.541Z"/>
<path d="M264.901 150.464C264.768 150.681 264.945 151.546 265.298 152.412C266.18 154.445 265.783 154.359 264.68 152.195C264.106 151.07 263.577 150.594 263.18 150.724C262.43 151.027 262.606 151.589 264.857 155.96C266.224 158.686 268.916 161.715 269.975 161.715C270.152 161.715 270.637 161.845 271.034 161.975C272.27 162.451 271.828 160.547 270.019 157.474C269.093 155.873 267.813 153.537 267.151 152.282C266.004 150.075 265.43 149.599 264.901 150.464Z"/>
<path d="M143.116 152.455C133.54 156.306 122.156 159.075 107.683 161.023C105.168 161.369 102.829 161.888 102.476 162.191C99.8731 164.311 106.359 167.773 112.934 167.773C119.729 167.773 129.349 165.912 138.482 162.797C142.674 161.369 153.926 156.393 153.926 155.96C153.926 155.873 152.911 155.787 151.676 155.744C148.499 155.7 146.248 154.489 145.984 152.758L145.763 151.416L143.116 152.455Z"/>
<path d="M224.438 155.787C221.835 161.412 221.746 161.715 222.541 161.975C224.482 162.71 228.983 157.474 230.439 152.714C230.704 151.892 230.616 151.763 229.689 151.763C229.027 151.763 228.453 152.109 228.145 152.714C227.659 153.666 227.659 153.623 227.88 152.498C228.1 151.546 228.012 151.33 227.35 151.33C226.733 151.33 225.982 152.455 224.438 155.787Z"/>
<path d="M259.076 152.065C259.164 152.498 259.429 153.234 259.561 153.71C259.738 154.186 259.517 153.926 259.12 153.147C258.591 152.195 258.017 151.762 257.311 151.762C256.737 151.762 256.296 151.979 256.296 152.195C256.296 152.801 258.326 156.739 259.738 158.772C260.973 160.633 263.489 162.364 264.459 161.975C265.254 161.715 265.077 161.196 262.341 155.311C260.973 152.325 260.312 151.33 259.694 151.33C259.076 151.33 258.9 151.546 259.076 152.065Z"/>
<path d="M340.928 152.758C340.84 153.883 340.487 154.316 339.163 154.921C338.281 155.354 336.516 155.744 335.324 155.744C334.089 155.787 333.074 155.873 333.074 155.96C333.074 156.09 335.501 157.301 338.501 158.686C353.813 165.869 371.683 169.417 379.89 166.908C382.759 166.042 385.141 164.355 385.141 163.23C385.141 162.148 383.332 161.628 376.316 160.59C367.844 159.378 360.431 157.821 353.813 155.873C349.4 154.575 347.591 153.926 342.031 151.763C341.193 151.416 341.06 151.503 340.928 152.758Z"/>
<path d="M230.748 156.176C228.542 161.326 228.056 163.446 229.071 163.446C230.086 163.446 232.469 161.326 233.881 159.162C234.896 157.561 235.116 156.782 235.072 154.618L235.028 151.979L234.013 154.142C232.822 156.652 232.645 156.566 233.572 153.926C234.41 151.676 234.41 151.763 233.44 151.763C232.866 151.763 232.16 152.931 230.748 156.176Z"/>
<path d="M252.766 151.936C252.766 152.022 253.075 152.931 253.428 153.926C254.355 156.566 254.178 156.652 252.987 154.142L251.972 151.979L251.928 154.618C251.884 156.782 252.104 157.561 253.119 159.162C254.531 161.326 256.914 163.446 257.929 163.446C258.944 163.446 258.458 161.326 256.252 156.176C254.84 152.931 254.134 151.763 253.56 151.763C253.119 151.763 252.766 151.849 252.766 151.936Z"/>
<path d="M154.809 156.739C145.101 162.234 130.055 167.557 120.7 168.898C119.553 169.028 118.141 169.547 117.611 169.98L116.641 170.802L117.876 171.884C119.465 173.269 121.671 173.831 125.73 173.831C129.922 173.831 135.129 172.879 140.424 171.191C145.587 169.504 155.559 164.744 161.207 161.196L165.619 158.47L162.884 158.21C159.618 157.907 158.648 157.258 158.868 155.57C159.001 154.921 159.045 154.359 159.045 154.359C159.001 154.359 157.103 155.441 154.809 156.739Z"/>
<path d="M328.132 155.657C328.352 157.215 327.161 157.907 323.808 158.253L321.381 158.47L325.793 161.196C338.281 168.941 352.003 173.831 361.226 173.831C365.329 173.831 367.535 173.269 369.124 171.884L370.359 170.802L369.389 169.98C368.859 169.547 367.447 169.028 366.3 168.898C356.681 167.557 341.943 162.234 331.044 156.133L327.955 154.402L328.132 155.657Z"/>
<path d="M167.826 158.34C162.795 161.975 150.485 168.552 144.086 171.062C141.351 172.143 139.542 173.528 140.027 174.22C140.556 175.129 143.16 175.995 145.234 175.995C151.544 175.995 163.634 170.542 173.253 163.446C179.386 158.902 179.166 159.292 175.371 159.465C171.973 159.638 170.429 159.205 169.9 157.864C169.635 157.171 169.414 157.215 167.826 158.34Z"/>
<path d="M317.189 157.604C317.189 158.946 315.159 159.638 311.673 159.465C307.878 159.292 307.658 158.859 313.526 163.23C323.675 170.845 336.207 176.341 342.34 175.908C345.473 175.692 347.414 174.61 346.797 173.442C346.532 173.009 345.694 172.36 344.899 172.014C332.191 166.259 327.073 163.619 321.292 159.724C318.777 158.08 317.189 157.258 317.189 157.604Z"/>
<path d="M178.636 160.893C175.194 163.576 166.016 169.547 161.427 172.057C156.177 174.956 154.985 176.471 157.28 177.293C159.089 177.985 162.089 177.812 164.604 176.86C169.944 174.913 179.695 168.595 185.255 163.489L188.564 160.503L186.49 160.979C184.064 161.499 182.343 160.979 181.813 159.508C181.504 158.686 181.284 158.773 178.636 160.893Z"/>
<path d="M305.275 159.292C305.275 159.681 304.745 160.287 304.128 160.72C303.157 161.325 302.627 161.369 300.73 160.979L298.436 160.547L301.745 163.532C307.349 168.595 317.1 174.913 322.395 176.86C325.97 178.201 330.867 177.855 330.867 176.254C330.867 175.389 328.838 173.831 325.264 171.884C320.807 169.417 313.879 164.96 309.908 161.975C305.407 158.556 305.275 158.47 305.275 159.292Z"/>
<path d="M188.167 162.624C183.004 167.037 179.166 170.023 173.826 173.615C171.002 175.519 168.708 177.379 168.708 177.725C168.708 178.245 169.37 178.375 171.973 178.288C175.768 178.158 178.857 176.947 184.637 173.182C188.035 170.975 197.169 162.927 197.169 162.148C197.169 161.931 196.463 162.018 195.624 162.277C193.815 162.797 192.05 162.191 191.521 160.893C191.256 160.114 190.903 160.287 188.167 162.624Z"/>
<path d="M295.567 160.59C295.567 160.936 295.038 161.585 294.42 162.018C293.494 162.624 292.964 162.667 291.552 162.277C290.625 162.018 289.831 161.975 289.831 162.148C289.831 162.926 299.009 170.975 302.363 173.182C308.143 176.947 311.364 178.245 315.071 178.331C317.145 178.375 318.248 178.201 318.38 177.855C318.557 177.336 318.115 176.99 311.85 172.749C308.717 170.629 301.877 165.306 297.685 161.672C296.229 160.46 295.567 160.114 295.567 160.59Z"/>
<path d="M197.831 163.056C195.095 166.302 189.138 171.408 184.064 174.87C178.857 178.461 179.122 179.456 184.814 177.769C189.888 176.254 197.742 170.629 202.64 164.96L204.802 162.537L203.302 162.753C201.581 163.056 200.875 162.753 200.39 161.412C200.037 160.503 199.86 160.633 197.831 163.056Z"/>
<path d="M286.743 160.936C286.743 162.277 285.419 163.1 283.742 162.797L282.198 162.537L284.36 164.96C289.169 170.499 297.068 176.211 302.01 177.725C307.04 179.24 308.364 178.591 305.01 176.341C298.039 171.624 291.993 166.475 288.375 162.191C287.404 161.023 286.743 160.547 286.743 160.936Z"/>
<path d="M212.215 163.273C211.156 164.657 207.582 168.422 204.317 171.581C198.007 177.769 197.434 178.851 201.228 177.769C203.964 176.99 207.362 174.653 211.024 171.105C214.333 167.903 218.614 162.667 218.216 162.321C218.128 162.234 217.51 162.321 216.849 162.537C215.392 163.1 214.466 162.753 214.289 161.585C214.201 160.85 213.804 161.152 212.215 163.273Z"/>
<path d="M234.499 161.975C234.322 162.624 234.41 163.359 234.631 163.576C234.984 163.922 235.116 163.576 235.116 162.451C235.116 160.547 234.896 160.417 234.499 161.975Z"/>
<path d="M251.928 162.321C251.884 163.446 252.016 163.922 252.325 163.619C252.59 163.359 252.59 162.71 252.369 161.931C251.972 160.633 251.972 160.633 251.928 162.321Z"/>
<path d="M272.622 161.585C272.622 162.71 271.652 163.1 270.151 162.537C269.49 162.321 268.872 162.234 268.784 162.321C268.519 162.58 271.916 166.951 274.873 170.11C279.506 175.086 286.698 179.24 288.154 177.812C288.596 177.379 287.713 176.384 284.227 173.182C281.756 170.932 278.403 167.47 276.77 165.48C272.446 160.33 272.622 160.503 272.622 161.585Z"/>
<path d="M203.655 164.787C200.434 168.465 195.448 172.879 191.432 175.562C190.065 176.471 188.697 177.509 188.388 177.899C187.858 178.504 187.991 178.591 189.8 178.591C191.212 178.591 192.756 178.115 195.227 176.86C200.478 174.307 205.023 170.283 209.744 164.138L211.068 162.451L209.877 162.71C208.95 162.97 208.421 162.797 207.759 162.148C207.273 161.672 206.832 161.282 206.788 161.282C206.7 161.326 205.288 162.883 203.655 164.787Z"/>
<path d="M218.658 164.095C217.466 165.653 214.333 169.115 211.686 171.841C209.038 174.567 206.876 177.033 206.876 177.293C206.876 178.072 209.965 177.596 212.392 176.427C213.495 175.908 215.481 174.48 216.804 173.312C219.275 171.105 223.997 165.307 225.232 162.97L225.894 161.672L224.57 162.321C222.805 163.23 221.835 163.186 221.57 162.148C221.438 161.672 221.217 161.282 221.04 161.282C220.908 161.326 219.805 162.58 218.658 164.095Z"/>
<path d="M265.43 162.148C265.165 163.186 264.195 163.229 262.386 162.321L261.018 161.628L262.033 163.316C265.474 168.941 270.858 174.567 274.564 176.384C276.991 177.552 280.124 178.115 280.124 177.336C280.124 177.076 277.962 174.61 275.358 171.927C272.711 169.201 269.578 165.696 268.387 164.138C267.195 162.58 266.092 161.325 265.96 161.282C265.783 161.282 265.563 161.672 265.43 162.148Z"/>
<path d="M279.109 162.191C278.535 162.797 278.05 162.97 277.123 162.71L275.932 162.451L277.256 164.138C281.977 170.283 286.522 174.307 291.773 176.86C294.244 178.115 295.788 178.591 297.2 178.591C298.392 178.591 299.053 178.418 298.877 178.158C298.745 177.899 297.068 176.6 295.215 175.259C290.096 171.581 286.963 168.812 283.521 164.96C281.801 163.056 280.3 161.455 280.168 161.412C280.036 161.412 279.55 161.715 279.109 162.191Z"/>
<path d="M231.189 163.316C229.336 164.571 228.145 164.571 227.703 163.403C227.394 162.624 227.086 162.883 225.012 165.61C223.688 167.34 220.952 170.499 218.922 172.62C216.893 174.783 215.304 176.73 215.392 177.033C216.01 178.894 221.835 176.125 226.071 171.884C228.63 169.331 233.307 162.754 232.822 162.364C232.734 162.321 232.028 162.754 231.189 163.316Z"/>
<path d="M254.09 162.364C254.09 163.359 258.458 169.461 260.929 171.884C265.21 176.168 270.99 178.894 271.608 176.99C271.74 176.687 269.975 174.567 267.769 172.273C265.563 169.98 262.827 166.821 261.724 165.263C259.87 162.754 259.65 162.58 259.341 163.403C258.856 164.614 257.664 164.571 255.679 163.23C254.796 162.667 254.09 162.278 254.09 162.364Z"/>
<path d="M231.586 166.388C230.748 167.73 228.806 170.499 227.262 172.49C225.453 174.826 224.615 176.254 224.879 176.514C225.585 177.206 229.733 174.826 232.734 171.927C235.469 169.331 235.558 169.201 235.558 167.037C235.558 165.35 235.381 164.787 234.807 164.571C234.366 164.441 233.837 164.225 233.572 164.095C233.351 164.008 232.425 165.004 231.586 166.388Z"/>
<path d="M252.457 164.484C251.619 164.874 251.443 165.307 251.443 167.081C251.443 169.158 251.531 169.331 254.311 172.014C257.179 174.74 261.459 177.163 262.165 176.471C262.386 176.254 261.327 174.48 259.738 172.49C258.194 170.499 256.252 167.73 255.414 166.388C254.575 165.004 253.781 163.922 253.649 163.965C253.516 163.965 252.987 164.181 252.457 164.484Z"/>
<path d="M208.332 187.245C203.39 188.154 197.919 191.096 195.227 194.342C192.491 197.631 191.741 199.621 191.521 203.991C190.991 214.593 196.948 221.949 211.995 229.349C217.334 231.988 224.306 234.844 225.365 234.844C225.718 234.844 226.909 234.282 228.012 233.589C229.115 232.897 231.586 231.599 233.484 230.647L236.925 229.003L236.793 227.315L236.661 225.627L226.997 222.469C208.553 216.497 202.022 211.953 202.022 205.117C202.022 202.52 203.258 200.486 205.552 199.318C207.626 198.236 209.303 198.28 212.877 199.621C216.937 201.136 220.07 200.962 224.306 199.015C228.012 197.284 228.939 196.505 228.939 195.164C228.939 193.52 225.673 190.447 222.143 188.76C219.408 187.462 218.481 187.245 214.819 187.072C212.524 186.942 209.612 187.029 208.332 187.245ZM218.26 190.534C218.437 191.789 217.246 192.741 216.363 192.005C215.657 191.443 215.481 190.188 216.01 189.669C216.628 189.063 218.128 189.625 218.26 190.534Z"/>
<path d="M269.313 187.245C266.489 187.635 262.915 189.409 260.488 191.616C256.958 194.818 257.399 196.505 262.386 198.842C266.93 200.962 269.931 201.179 274.123 199.621C277.697 198.28 279.374 198.236 281.448 199.318C283.742 200.486 284.978 202.52 284.978 205.117C284.978 212.04 278.138 216.713 259.164 222.771C253.825 224.459 246.765 226.839 243.5 228.051C225.85 234.412 217.246 241.508 216.231 250.552C215.525 256.48 217.334 261.716 221.614 266.086C223.953 268.51 228.586 272.058 229.336 272.058C229.601 272.058 231.586 271.063 233.792 269.851L237.764 267.601L237.72 265.61C237.72 263.75 237.543 263.533 235.425 261.889C232.116 259.336 230.615 256.999 230.351 254.143C230.174 252.24 230.351 251.461 231.145 250.206C233.484 246.528 240.632 242.806 256.958 236.792C286.566 225.887 296.141 217.709 295.479 203.992C295.215 198.236 293.229 194.775 288.331 191.399C282.639 187.505 276.638 186.164 269.313 187.245ZM271.211 190.534C271.387 191.789 270.196 192.741 269.313 192.005C268.607 191.443 268.431 190.188 268.96 189.669C269.578 189.063 271.078 189.625 271.211 190.534ZM255.193 225.974C254.487 226.32 249.986 228.31 245.221 230.431C230.13 237.138 224.835 240.773 222.011 246.441C220.864 248.691 220.776 249.34 220.776 253.667C220.776 257.822 220.908 258.774 221.967 261.154C223.335 264.442 222.541 263.966 220.731 260.504C219.54 258.124 219.452 257.692 219.452 252.802C219.452 248.085 219.54 247.393 220.599 245.229C223.6 239.042 231.674 234.022 248.133 228.094C255.326 225.498 258.017 224.675 255.193 225.974Z"/>
<path d="M255.414 238.652L249.898 240.686L249.766 242.85C249.678 245.013 249.678 245.013 251.972 246.528C255.193 248.648 256.738 250.898 256.738 253.408C256.693 258.947 252.943 262.192 237.984 269.591C229.777 273.659 226.335 275.823 223.423 278.765C220.07 282.097 219.055 284.477 219.099 288.718C219.143 292.742 220.114 295.857 222.541 299.579C224.35 302.305 228.012 306.243 231.233 308.926L233.351 310.656L236.131 308.233L238.955 305.767L238.735 303.343C238.558 301.223 238.249 300.574 236.396 298.324C232.91 294.04 231.939 289.626 233.925 286.727C235.469 284.477 238.646 282.357 247.339 277.856C251.751 275.563 256.87 272.707 258.723 271.539C263.4 268.553 267.372 264.485 269.181 260.937C270.593 258.124 270.637 257.778 270.637 253.018C270.637 248.345 270.549 247.869 269.313 245.446C268.078 243.023 262.253 236.532 261.327 236.575C261.106 236.618 258.458 237.527 255.414 238.652ZM267.239 247.609C268.828 250.682 269.048 255.009 267.813 258.211C265.563 264.009 260.312 268.337 245.706 276.428C234.454 282.703 235.558 282.097 235.558 281.881C235.558 281.751 239.22 279.501 243.721 276.818C257.046 268.942 261.459 265.524 264.724 260.677C267.813 256.047 267.989 251.504 265.386 245.749C264.371 243.542 264.327 243.369 265.165 244.364C265.695 244.97 266.622 246.398 267.239 247.609ZM224.57 282.486C221.085 288.761 222.055 294.862 227.527 301.872C231.675 307.151 231.807 307.498 228.365 303.949C222.408 297.805 220.334 293.001 221.393 287.852C222.011 285.039 222.761 283.395 224.438 281.232C225.982 279.198 226.071 279.76 224.57 282.486Z"/>
<path d="M247.295 242.72C246.942 244.321 246.765 263.404 247.118 263.404C247.736 263.404 247.824 262.538 248.133 252.239C248.31 244.97 248.266 241.768 247.957 241.768C247.692 241.768 247.383 242.2 247.295 242.72Z"/>
<path d="M241.911 244.234L238.734 245.792L238.955 256.437C239.087 262.279 239.264 267.125 239.308 267.211C239.396 267.298 240.852 266.649 242.573 265.827L245.706 264.269V253.451C245.706 247.48 245.574 242.633 245.397 242.676C245.177 242.676 243.632 243.369 241.911 244.234Z"/>
<path d="M252.987 276.558L249.016 278.852L248.883 280.756C248.751 282.53 248.883 282.746 250.781 284.304C253.472 286.511 254.222 288.068 254.002 290.838C253.605 295.641 250.516 299.406 241.47 306.156C231.233 313.772 227.615 318.705 227.262 325.499C226.909 331.989 229.468 337.744 235.293 343.759L237.058 345.62L238.558 344.192L240.014 342.807L239.749 339.562C239.573 337.788 239.043 335.235 238.558 333.936C237.367 330.821 237.278 326.45 238.382 324.46C239.749 321.95 242.971 318.878 250.56 312.95C258.547 306.632 261.988 303.343 264.459 299.579C266.886 295.857 267.857 292.742 267.901 288.718C267.945 284.953 267.239 283.049 264.592 279.76C263.18 278.029 258.282 274.221 257.488 274.265C257.179 274.265 255.193 275.303 252.987 276.558ZM264.592 284.607C266.224 287.939 266.224 292.482 264.636 295.857C262.341 300.661 257.664 305.593 249.104 312.214C245.397 315.113 243.809 315.935 247.074 313.296C248.133 312.43 251.398 309.401 254.355 306.502C264.327 296.68 266.577 290.145 262.562 282.703C260.929 279.717 260.885 279.414 262.253 280.929C262.915 281.621 263.974 283.309 264.592 284.607ZM230.042 325.585C230.042 330.129 231.013 333.893 233.175 337.788C234.675 340.427 234.499 340.557 232.734 338.134C229.557 333.72 228.321 328.657 229.38 323.854C229.645 322.513 229.91 321.388 229.954 321.388C230.042 321.388 230.042 323.292 230.042 325.585Z"/>
<path d="M246.412 279.934C246.28 280.236 246.103 285.169 245.971 290.838C245.795 299.406 245.839 301.093 246.324 300.574C247.074 299.795 247.692 279.414 246.986 279.414C246.765 279.414 246.501 279.674 246.412 279.934Z"/>
<path d="M242.573 281.794C241.47 282.357 240.367 283.049 240.146 283.395C239.617 284.044 239.97 304.252 240.499 304.771C240.676 304.945 241.691 304.382 242.75 303.517C244.603 302.045 244.691 301.829 244.956 299.016C245.353 294.905 245.353 280.712 244.956 280.712C244.735 280.756 243.676 281.232 242.573 281.794Z"/>
<path d="M250.383 314.681L247.957 316.628L247.824 319.57C247.736 321.647 247.912 322.946 248.442 324.071C249.677 326.58 249.854 328.744 249.06 331.816C247.957 335.927 246.633 337.788 239.97 344.538C232.469 352.154 231.366 354.058 231.366 359.294C231.41 362.323 231.586 363.145 232.778 365.568C233.572 367.083 235.293 369.679 236.661 371.28L239.132 374.223L240.897 371.843L242.662 369.419L241.558 367.991C238.69 364.357 237.411 359.251 238.69 356.741C238.955 356.221 242.706 352.37 246.986 348.216C255.414 340.038 257.311 337.485 259.032 332.076C260.356 327.792 260.047 322.989 258.194 319.224C256.914 316.541 254.002 312.733 253.207 312.733C253.031 312.733 251.751 313.599 250.383 314.681ZM257.796 327.446C257.796 331.167 257.664 331.816 256.473 334.369C254.752 337.918 252.06 341.12 247.648 344.928L244.162 347.957L247.074 344.928C248.663 343.283 250.692 341.033 251.575 339.951C255.061 335.667 257.488 328.311 257.002 323.551C256.782 321.518 256.826 321.344 257.267 322.253C257.532 322.859 257.796 325.196 257.796 327.446ZM235.072 365.785C236.925 369.722 236.484 369.809 234.498 365.914C233.086 363.145 232.91 362.453 232.954 359.726L233.042 356.654L233.351 359.77C233.572 361.847 234.19 363.924 235.072 365.785Z"/>
<path d="M245.53 318.878C245.397 319.181 245.221 323.422 245.089 328.311C244.868 336.143 244.912 337.095 245.486 336.36C246.015 335.668 246.148 333.98 246.148 328.571C246.148 324.72 246.28 320.869 246.412 319.96C246.633 318.878 246.545 318.359 246.192 318.359C245.927 318.359 245.618 318.618 245.53 318.878Z"/>
<path d="M242.485 321.301L240.853 322.946L240.897 330.258C240.897 334.326 241.073 338.48 241.206 339.562L241.514 341.466L242.882 339.778L244.25 338.047L244.515 328.83C244.691 323.811 244.647 319.657 244.471 319.657C244.294 319.657 243.368 320.392 242.485 321.301Z"/>
<path d="M248.221 348.995C247.251 349.99 247.03 350.596 247.03 352.457C247.03 353.928 247.339 355.183 247.913 356.092C249.986 359.467 248.53 364.184 243.5 370.501C238.558 376.689 237.146 381.233 238.867 385.3C239.441 386.598 239.617 386.728 240.191 386.295C240.544 385.993 240.853 385.17 240.853 384.435C240.853 382.228 242.397 379.805 246.898 375.045C249.236 372.535 251.928 369.333 252.855 367.948C255.855 363.361 256.605 358.818 255.017 354.664C254.09 352.284 250.781 347.784 249.942 347.784C249.633 347.784 248.883 348.346 248.221 348.995ZM252.59 365.741C251.575 367.689 249.854 369.982 247.692 372.232L244.338 375.694L247.427 372.059C251.531 367.342 253.252 363.881 253.605 359.813L253.869 356.654L254.002 359.683C254.134 362.366 254.002 362.972 252.59 365.741Z"/>
<path d="M243.279 353.539L241.514 355.356L241.647 360.765C241.779 365.265 241.911 366.347 242.617 367.256L243.456 368.338L244.338 367.299C245.133 366.39 245.265 365.698 245.265 361.631C245.265 359.077 245.397 355.789 245.53 354.318C245.706 352.846 245.662 351.678 245.441 351.678C245.221 351.721 244.25 352.543 243.279 353.539ZM244.25 354.794C244.118 355.14 243.985 355.01 243.985 354.534C243.941 354.058 244.074 353.798 244.206 353.971C244.338 354.101 244.382 354.491 244.25 354.794ZM244.25 360.203C244.162 361.111 244.074 360.376 244.074 358.602C244.074 356.827 244.162 356.092 244.25 356.957C244.338 357.866 244.338 359.337 244.25 360.203Z"/>
<path d="M245.53 378.463C244.074 379.935 243.853 380.367 244.074 381.536C244.471 383.353 243.632 385.17 240.941 388.156C237.631 391.791 237.367 394.431 239.97 397.243L241.25 398.628L241.294 396.075V393.522L244.515 390.233C247.868 386.771 248.795 384.911 248.795 381.709C248.795 379.761 248.045 376.776 247.56 376.776C247.339 376.776 246.456 377.555 245.53 378.463Z"/>
<path d="M242.176 383.353C242.176 384.175 242.265 384.218 242.618 383.699C243.191 382.877 243.191 382.401 242.618 382.401C242.397 382.401 242.176 382.834 242.176 383.353Z"/>
<path d="M246.589 389.974C246.28 390.32 245.927 392.397 245.795 394.647L245.574 398.628L246.589 397.762C248.751 395.859 249.369 393.003 248.133 390.623C247.339 389.108 247.339 389.108 246.589 389.974Z"/>
<path d="M243.323 393.176C242.573 393.954 242.573 395.166 242.882 410.701C243.059 419.874 243.323 427.404 243.5 427.404C243.853 427.404 244.603 392.873 244.294 392.527C244.162 392.44 243.721 392.743 243.323 393.176Z"/>
<path d="M488.812 207.938C491.354 208.771 493.667 209.438 495.75 209.938C499.792 193.688 504.396 174.5 509.562 152.375L494.5 150.75C493.542 148.125 493.062 145.146 493.062 141.812C493.062 139.271 493.354 136.792 493.938 134.375C499.979 133.208 506.938 132.375 514.812 131.875C522.729 131.333 529.521 131.062 535.188 131.062C539.271 131.062 542.333 131.083 544.375 131.125L548.312 133.375C555.312 152.583 562.417 178.562 569.625 211.312C569.708 211.646 569.854 212.312 570.062 213.312C570.312 214.312 570.5 215.271 570.625 216.188C570.75 217.062 570.812 217.896 570.812 218.688C570.812 222.188 569.562 225.021 567.062 227.188C563.562 228.562 559.333 229.25 554.375 229.25C552.042 229.25 549.688 229 547.312 228.5C544.938 228 543.333 227.229 542.5 226.188L543.25 210.062L541.688 201.688C538.979 201.854 535.792 201.938 532.125 201.938C528.208 201.938 524.542 201.812 521.125 201.562L520.375 204.938C518.75 212.188 517.417 217.333 516.375 220.375C515.375 223.417 513.875 225.667 511.875 227.125C509.917 228.583 506.979 229.312 503.062 229.312C500.521 229.312 497.958 228.979 495.375 228.312C492.792 227.688 490.458 226.833 488.375 225.75C486.292 224.667 484.729 223.5 483.688 222.25C483.688 219.25 484.146 216.396 485.062 213.688C485.979 210.979 487.229 209.062 488.812 207.938ZM532.625 152.938H529.75L525.25 183.75H539.25L532.625 152.938ZM583.062 206.25C583.062 199.458 583.146 194.333 583.312 190.875C583.479 187.375 583.917 182.25 584.625 175.5L577.375 174.562C576.5 171.854 575.917 169.438 575.625 167.312C575.375 165.188 575.25 162.438 575.25 159.062C575.917 158.479 577.021 157.792 578.562 157C580.146 156.167 582.021 155.458 584.188 154.875C586.354 154.25 588.542 153.938 590.75 153.938C595.792 153.938 599.354 155.021 601.438 157.188C603.562 159.354 604.625 162.604 604.625 166.938C604.625 169.354 604.271 172.625 603.562 176.75C602.396 183.375 601.812 186.854 601.812 187.188C601.812 187.396 601.958 187.604 602.25 187.812C602.542 187.979 602.854 188.062 603.188 188.062C603.562 188.062 603.812 187.917 603.938 187.625C605.604 181 607.271 175.458 608.938 171C610.604 166.542 613.125 162.583 616.5 159.125C619.875 155.667 624.25 153.938 629.625 153.938C636.292 153.938 641.083 155.979 644 160.062C646.917 164.104 648.375 169.208 648.375 175.375C648.375 180.875 647.729 186.188 646.438 191.312C645.146 196.396 643.542 201.708 641.625 207.25C641.708 207.042 641.417 207.854 640.75 209.688L640.875 209.812L650 206.062C653.25 208.854 655.146 212.562 655.688 217.188C655.688 217.479 654.75 218.667 652.875 220.75C651.042 222.833 648.604 224.771 645.562 226.562C642.521 228.354 639.021 229.25 635.062 229.25C631.104 229.25 627.875 228.188 625.375 226.062C622.875 223.938 621.625 220.312 621.625 215.188C621.625 211.104 621.792 205.646 622.125 198.812C622.458 191.979 622.792 186.479 623.125 182.312C622.042 181.146 620.708 180.521 619.125 180.438C617.667 182.312 615.521 186.062 612.688 191.688C609.854 197.312 607.854 201.521 606.688 204.312C606.604 204.896 606.562 205.458 606.562 206C606.562 208.083 606.875 210.896 607.5 214.438C608.125 217.938 608.896 221.208 609.812 224.25C609.062 225.667 607.521 226.854 605.188 227.812C602.854 228.771 599.979 229.25 596.562 229.25C593.479 229.25 591 229 589.125 228.5C587.292 228 586 227.479 585.25 226.938C584.5 226.354 584.125 226 584.125 225.875C584.083 225.5 583.979 224.521 583.812 222.938C583.646 221.312 583.479 219.062 583.312 216.188C583.146 213.271 583.062 209.958 583.062 206.25ZM697.062 237.938C699.854 237.938 702.271 237.625 704.312 237C704.938 236.375 705.375 235.646 705.625 234.812C705.875 234.021 706 233.271 706 232.562C706 231.812 705.938 231.25 705.812 230.875C705.688 230.542 705.479 230.229 705.188 229.938C703.438 229.646 701.375 229.438 699 229.312C696.667 229.229 695.271 229.167 694.812 229.125C689.021 228.875 684.312 228.458 680.688 227.875C677.062 227.25 673.958 225.917 671.375 223.875C668.792 221.792 667.5 218.667 667.5 214.5C667.5 212.25 668.229 210.146 669.688 208.188C671.146 206.188 673.042 204.438 675.375 202.938C670.625 200.979 666.812 198.042 663.938 194.125C661.104 190.167 659.688 185.062 659.688 178.812C659.688 172.604 661.271 167.625 664.438 163.875C667.646 160.083 671.583 157.417 676.25 155.875C680.917 154.333 685.667 153.562 690.5 153.562C693.542 153.562 696.521 153.854 699.438 154.438C702.354 155.021 705.062 155.854 707.562 156.938L704.875 141.062C707.417 139.521 710.583 138.75 714.375 138.75C717.125 138.75 719.688 139.208 722.062 140.125C724.438 141.042 726.25 142.354 727.5 144.062C727.583 144.479 727.625 145.146 727.625 146.062C727.625 149.479 727 153.292 725.75 157.5C724.542 161.667 722.438 165.021 719.438 167.562C720.938 170.562 721.688 173.792 721.688 177.25C721.688 182.333 720.708 187.021 718.75 191.312C716.833 195.604 713.625 199.104 709.125 201.812C704.625 204.479 698.771 205.812 691.562 205.812C689.479 205.812 687.312 205.688 685.062 205.438C684.938 207.521 685.438 209.604 686.562 211.688C692.188 210.604 696.729 210.042 700.188 210L704.438 209.938C710.188 209.938 714.542 210.292 717.5 211C720.75 211.792 723.167 213.583 724.75 216.375C726.375 219.167 727.188 222.562 727.188 226.562C727.188 232.812 725.271 238.062 721.438 242.312C717.646 246.604 712.708 249.792 706.625 251.875C700.583 253.958 694.167 255 687.375 255C681.083 255 675.479 253.938 670.562 251.812C665.646 249.688 662.542 245.792 661.25 240.125C662.625 235.333 665.25 231.708 669.125 229.25C674.333 232.375 679.312 234.604 684.062 235.938C688.854 237.271 693.188 237.938 697.062 237.938ZM693.25 190.375C696.25 190.375 698 190.188 698.5 189.812C699.625 187.562 700.188 185.25 700.188 182.875C700.188 180.417 699.625 178.104 698.5 175.938C697.958 175.479 696.75 175.125 694.875 174.875C693.042 174.625 691.042 174.5 688.875 174.5C686.167 174.5 684.354 174.667 683.438 175C682.146 177.292 681.5 179.604 681.5 181.938C681.5 184.312 682.104 186.562 683.312 188.688C684.229 189.271 685.604 189.708 687.438 190C689.312 190.25 691.25 190.375 693.25 190.375ZM732.938 191.688C732.938 184.479 734.146 178.042 736.562 172.375C738.979 166.708 742.708 162.229 747.75 158.938C752.833 155.604 759.167 153.938 766.75 153.938C770.708 153.938 774.667 154.417 778.625 155.375C782.583 156.292 785.938 157.833 788.688 160C791.229 162.042 793.062 164.75 794.188 168.125C795.354 171.458 795.938 175.167 795.938 179.25C795.938 181.958 795.708 184.729 795.25 187.562C794.75 188.396 793.771 189.5 792.312 190.875C790.854 192.208 789.146 193.521 787.188 194.812C785.229 196.104 783.333 197.104 781.5 197.812C779.75 197.938 777.938 198 776.062 198C772.771 198 769.438 197.854 766.062 197.562C762.688 197.271 759.729 196.938 757.188 196.562C757.521 200.104 758.604 203.188 760.438 205.812C762.271 208.438 765.188 209.75 769.188 209.75C769.562 209.75 770.167 209.708 771 209.625C773.542 209.375 776.5 208.708 779.875 207.625C783.292 206.5 786.688 205.208 790.062 203.75C791.646 205.333 792.812 206.917 793.562 208.5C794.312 210.083 794.833 212.354 795.125 215.312C793.833 216.812 791.729 218.646 788.812 220.812C785.938 222.979 782.417 224.938 778.25 226.688C774.083 228.396 769.729 229.25 765.188 229.25C758.354 229.25 752.5 227.604 747.625 224.312C742.792 220.979 739.125 216.479 736.625 210.812C734.167 205.104 732.938 198.729 732.938 191.688ZM773.188 177.312C772.604 176.688 771.625 176.208 770.25 175.875C768.875 175.5 767.438 175.312 765.938 175.312C764.729 175.312 763.5 175.417 762.25 175.625C761.042 175.833 760.312 176.062 760.062 176.312C758.646 179.104 757.75 182.271 757.375 185.812L774.062 184.188L773.188 177.312ZM802.562 146.25C801.938 143.708 801.521 141.604 801.312 139.938C801.104 138.229 801.021 136.271 801.062 134.062C801.938 132.938 803.292 131.812 805.125 130.688C807 129.521 809.167 128.542 811.625 127.75C814.125 126.958 816.708 126.562 819.375 126.562C824.583 126.562 828.583 127.875 831.375 130.5C834.167 133.125 835.562 137 835.562 142.125C835.562 145.792 835.25 151.688 834.625 159.812C834 167.938 833.104 176.583 831.938 185.75C830.771 194.875 829.438 202.854 827.938 209.688L828.062 209.812L837.312 205.938C840.562 208.729 842.458 212.438 843 217.062C843 217.354 842.062 218.562 840.188 220.688C838.312 222.771 835.833 224.729 832.75 226.562C829.708 228.354 826.208 229.25 822.25 229.25C818.125 229.25 814.771 228.104 812.188 225.812C809.646 223.521 808.438 219.604 808.562 214.062L808.688 202.812C808.729 192.146 808.833 182.542 809 174C809.208 165.458 809.625 156.646 810.25 147.562L802.562 146.25ZM874.625 212.188C874.625 208.396 875.396 204.75 876.938 201.25C877.646 201.25 878.75 201.396 880.25 201.688C881.75 201.938 883.333 202.271 885 202.688C884.792 193.729 884.688 184.979 884.688 176.438C884.688 167.229 884.854 159.375 885.188 152.875H885.125L885.188 152.125L875 150.812C874.375 148.271 873.958 146.167 873.75 144.5C873.542 142.792 873.458 140.833 873.5 138.625C874.833 137.125 876.792 135.812 879.375 134.688C882 133.521 884.812 132.646 887.812 132.062C890.854 131.438 893.625 131.125 896.125 131.125C900.917 131.125 904.646 132.083 907.312 134C910.021 135.875 911.562 138.875 911.938 143C912.062 144.625 912.125 146.396 912.125 148.312C912.125 154.646 911.562 162.146 910.438 170.812C909.312 179.479 907.812 189.604 905.938 201.188L905.438 204.438L921.375 205.312L927.875 184.562C929.833 184.479 932.062 184.625 934.562 185C937.104 185.375 939.292 185.896 941.125 186.562C941.875 188.521 942.562 191.646 943.188 195.938C943.854 200.188 944.188 204.354 944.188 208.438C944.188 215.229 943.188 220 941.188 222.75C940.188 224.083 938.792 225.25 937 226.25C935.25 227.208 933.396 227.938 931.438 228.438C929.521 228.979 927.792 229.25 926.25 229.25C923.792 229.25 920.917 228.729 917.625 227.688C914.333 226.604 911.104 225.25 907.938 223.625C904.771 221.958 902.167 220.292 900.125 218.625C898.25 221.875 896.083 224.396 893.625 226.188C891.167 227.979 888.104 229 884.438 229.25C882.646 228.958 881 228.021 879.5 226.438C878 224.854 876.812 222.812 875.938 220.312C875.062 217.812 874.625 215.104 874.625 212.188ZM950.812 138.312C950.812 134.646 952 131.667 954.375 129.375C956.792 127.083 960.625 125.938 965.875 125.938C971.125 125.938 974.938 127.083 977.312 129.375C979.729 131.667 980.938 134.646 980.938 138.312C980.938 140.396 980.208 142.312 978.75 144.062C977.333 145.812 975.458 147.208 973.125 148.25C970.792 149.25 968.375 149.75 965.875 149.75C963.167 149.75 960.646 149.167 958.312 148C956.021 146.792 954.188 145.292 952.812 143.5C951.479 141.708 950.812 139.979 950.812 138.312ZM947.75 174.062C947.208 172.021 946.833 170.167 946.625 168.5C946.417 166.792 946.312 165.021 946.312 163.188L946.375 161.438C947.25 160.312 948.604 159.188 950.438 158.062C952.312 156.896 954.479 155.917 956.938 155.125C959.438 154.333 962.021 153.938 964.688 153.938C970.521 153.938 974.667 155.25 977.125 157.875C979.583 160.5 980.812 164.583 980.812 170.125C980.812 173.458 980.333 177.812 979.375 183.188C978.458 188.562 977.333 193.792 976 198.875C974.708 203.917 973.583 207.521 972.625 209.688L972.75 209.812L982 206.438C983.667 207.854 984.917 209.417 985.75 211.125C986.625 212.833 987.188 214.812 987.438 217.062C987.438 217.354 986.521 218.562 984.688 220.688C982.854 222.771 980.417 224.729 977.375 226.562C974.375 228.354 970.896 229.25 966.938 229.25C962.938 229.25 959.688 228.167 957.188 226C954.729 223.833 953.5 220.125 953.5 214.875C953.5 208.75 953.667 202.25 954 195.375C954.333 188.5 954.854 181.833 955.562 175.375L947.75 174.062ZM1002.81 237.062C1003.1 236.188 1003.31 235.062 1003.44 233.688C1003.6 232.354 1003.65 231.042 1003.56 229.75C1003.44 226.792 1003.21 222.729 1002.88 217.562C1002.46 210.562 1002.15 204.771 1001.94 200.188C1001.73 195.604 1001.62 191.25 1001.62 187.125C1001.62 185.708 1001.67 183.792 1001.75 181.375L1001.81 179.875L993.5 178.75C992.917 176.833 992.521 174.958 992.312 173.125C992.146 171.292 992.083 169.062 992.125 166.438C994.792 165.021 998.458 163.75 1003.12 162.625L1003.38 161.625C1000.58 159.125 998.375 156.396 996.75 153.438C995.125 150.479 994.312 147.375 994.312 144.125C994.312 140.375 995.354 137.188 997.438 134.562C999.521 131.896 1002.44 129.896 1006.19 128.562C1009.98 127.229 1014.42 126.562 1019.5 126.562C1022.5 126.562 1025.5 126.729 1028.5 127.062C1031.54 127.354 1035.21 128.104 1039.5 129.312C1040.08 131.062 1040.38 133.104 1040.38 135.438C1040.38 138.062 1040.04 140.792 1039.38 143.625C1038.75 146.417 1037.88 148.833 1036.75 150.875C1032.71 149.583 1029.46 148.604 1027 147.938C1024.58 147.271 1021.92 146.729 1019 146.312C1018.38 146.438 1017.79 146.771 1017.25 147.312C1016.75 147.812 1016.46 148.292 1016.38 148.75C1016.75 150.667 1017.54 152.896 1018.75 155.438C1020 157.979 1021.4 160.292 1022.94 162.375L1040.31 159.188C1041.77 161.354 1042.5 164.458 1042.5 168.5C1042.5 170.958 1042.23 173.312 1041.69 175.562C1041.19 177.812 1040.56 179.354 1039.81 180.188C1039.27 180.229 1038.48 180.25 1037.44 180.25C1033.4 180.25 1029.71 179.75 1026.38 178.75C1026.21 183.667 1026.06 187.167 1025.94 189.25C1025.9 190.833 1025.79 193.5 1025.62 197.25L1025.25 207.562C1025.04 213.521 1024.83 218.438 1024.62 222.312C1024.42 226.188 1024.1 229.896 1023.69 233.438C1023.31 236.812 1022.79 239.688 1022.12 242.062C1021.5 244.479 1020.52 246.583 1019.19 248.375C1015.9 252.792 1010.48 255 1002.94 255C999.938 255 996.938 254.417 993.938 253.25C990.979 252.125 988.688 250.292 987.062 247.75C986.979 245.25 987.354 242.729 988.188 240.188C988.979 237.688 990.188 235.542 991.812 233.75L1002.81 237.062ZM1048.19 191.688C1048.19 184.479 1049.4 178.042 1051.81 172.375C1054.23 166.708 1057.96 162.229 1063 158.938C1068.08 155.604 1074.42 153.938 1082 153.938C1085.96 153.938 1089.92 154.417 1093.88 155.375C1097.83 156.292 1101.19 157.833 1103.94 160C1106.48 162.042 1108.31 164.75 1109.44 168.125C1110.6 171.458 1111.19 175.167 1111.19 179.25C1111.19 181.958 1110.96 184.729 1110.5 187.562C1110 188.396 1109.02 189.5 1107.56 190.875C1106.1 192.208 1104.4 193.521 1102.44 194.812C1100.48 196.104 1098.58 197.104 1096.75 197.812C1095 197.938 1093.19 198 1091.31 198C1088.02 198 1084.69 197.854 1081.31 197.562C1077.94 197.271 1074.98 196.938 1072.44 196.562C1072.77 200.104 1073.85 203.188 1075.69 205.812C1077.52 208.438 1080.44 209.75 1084.44 209.75C1084.81 209.75 1085.42 209.708 1086.25 209.625C1088.79 209.375 1091.75 208.708 1095.12 207.625C1098.54 206.5 1101.94 205.208 1105.31 203.75C1106.9 205.333 1108.06 206.917 1108.81 208.5C1109.56 210.083 1110.08 212.354 1110.38 215.312C1109.08 216.812 1106.98 218.646 1104.06 220.812C1101.19 222.979 1097.67 224.938 1093.5 226.688C1089.33 228.396 1084.98 229.25 1080.44 229.25C1073.6 229.25 1067.75 227.604 1062.88 224.312C1058.04 220.979 1054.38 216.479 1051.88 210.812C1049.42 205.104 1048.19 198.729 1048.19 191.688ZM1088.44 177.312C1087.85 176.688 1086.88 176.208 1085.5 175.875C1084.12 175.5 1082.69 175.312 1081.19 175.312C1079.98 175.312 1078.75 175.417 1077.5 175.625C1076.29 175.833 1075.56 176.062 1075.31 176.312C1073.9 179.104 1073 182.271 1072.62 185.812L1089.31 184.188L1088.44 177.312ZM495.938 341.75C495.938 329.167 496.125 319.5 496.5 312.75H496.438L487.5 311.438C486.958 309.896 486.542 308.188 486.25 306.312C485.958 304.438 485.812 302.625 485.812 300.875C485.812 299.542 485.917 298.083 486.125 296.5C491.25 294.667 498.312 293.312 507.312 292.438C516.312 291.562 524.979 291.125 533.312 291.125C539.688 291.125 545.167 291.625 549.75 292.625C554.333 293.625 558.167 295.896 561.25 299.438C564.375 302.938 565.938 308.188 565.938 315.188C565.938 318.688 565.188 322.771 563.688 327.438C562.229 332.062 560.354 336.583 558.062 341C555.812 345.375 553.542 348.917 551.25 351.625C547.875 355.667 544.125 358.042 540 358.75C533.167 359.833 525.938 360.375 518.312 360.375C518.146 364.667 518.083 367.75 518.125 369.625L527.438 369C529.354 372.125 530.417 375.833 530.625 380.125C530.625 380.333 529.688 381.229 527.812 382.812C525.938 384.396 523.458 385.854 520.375 387.188C517.333 388.521 513.833 389.188 509.875 389.188C505.958 389.188 502.833 388.125 500.5 386C498.208 383.833 497.062 380.104 497.062 374.812C496.354 366.146 496 355.146 496 341.812L495.938 341.75ZM535.5 342.812C536.583 338.229 537.479 333.375 538.188 328.25C538.938 323.083 539.354 318.583 539.438 314.75C539.229 314.375 538.167 314.042 536.25 313.75C534.333 313.458 531.854 313.312 528.812 313.312C526.688 313.312 524.042 313.396 520.875 313.562C520.5 326.146 520 336.25 519.375 343.875L535.5 342.812ZM574.25 347.375C574.25 328.042 574.625 314.75 575.375 307.5L568.312 306.25C567.312 302.417 566.812 298.292 566.812 293.875C567.438 293.083 568.604 292.104 570.312 290.938C572.021 289.771 574 288.75 576.25 287.875C578.542 287 580.812 286.562 583.062 286.562C588.188 286.562 592 287.875 594.5 290.5C597 293.125 598.25 297.146 598.25 302.562C598.25 304.938 598.042 308.771 597.625 314.062C597.208 319.312 596.604 324.958 595.812 331C595.021 337 594.104 342.354 593.062 347.062C593.062 347.312 593.208 347.542 593.5 347.75C593.792 347.958 594.104 348.062 594.438 348.062C594.812 348.062 595.062 347.917 595.188 347.625C596.854 341 598.521 335.458 600.188 331C601.854 326.542 604.375 322.583 607.75 319.125C611.125 315.667 615.5 313.938 620.875 313.938C627.542 313.938 632.333 315.979 635.25 320.062C638.167 324.104 639.625 329.208 639.625 335.375C639.625 340.875 638.979 346.188 637.688 351.312C636.396 356.396 634.792 361.708 632.875 367.25C632.958 367.042 632.667 367.854 632 369.688L632.125 369.812L641.375 365.938C644.625 368.729 646.521 372.438 647.062 377.062C647.062 377.354 646.125 378.562 644.25 380.688C642.375 382.771 639.896 384.729 636.812 386.562C633.771 388.354 630.271 389.25 626.312 389.25C622.354 389.25 619.125 388.188 616.625 386.062C614.125 383.938 612.875 380.312 612.875 375.188C612.875 371.104 613.042 365.646 613.375 358.812C613.708 351.979 614.042 346.479 614.375 342.312C613.292 341.146 611.958 340.521 610.375 340.438C608.917 342.312 606.771 346.062 603.938 351.688C601.104 357.312 599.104 361.521 597.938 364.312C597.854 364.896 597.812 365.458 597.812 366C597.812 368.083 598.125 370.896 598.75 374.438C599.375 377.938 600.146 381.208 601.062 384.25C600.312 385.667 598.771 386.854 596.438 387.812C594.104 388.771 591.229 389.25 587.812 389.25C584.729 389.25 582.25 389 580.375 388.5C578.542 388 577.25 387.479 576.5 386.938C575.75 386.354 575.375 386 575.375 385.875C575.333 385.5 575.229 384.521 575.062 382.938C574.896 381.312 574.729 379.062 574.562 376.188C574.396 373.271 574.312 369.958 574.312 366.25L574.25 347.375ZM671.812 346.812C674.271 346.812 676.979 347.062 679.938 347.562C682.938 348.062 685.688 348.667 688.188 349.375V347.438C688.188 346.146 688.146 344.708 688.062 343.125C688.021 341.542 687.938 340.5 687.812 340C687.438 339.292 686.354 338.562 684.562 337.812C682.812 337.062 679.938 336.688 675.938 336.688C673.479 336.688 670.938 337 668.312 337.625C665.729 338.208 662.854 339 659.688 340C657.979 337.167 656.604 334.479 655.562 331.938C654.562 329.354 654.062 326.771 654.062 324.188C654.062 323.396 654.125 322.604 654.25 321.812C661 316.562 669.729 313.938 680.438 313.938C686.354 313.938 691.604 314.604 696.188 315.938C700.771 317.271 704.542 319.854 707.5 323.688C710.458 327.521 711.938 332.958 711.938 340C711.938 346.875 711.125 353.542 709.5 360C707.917 366.417 707.104 369.688 707.062 369.812L716.125 365.938C717.333 367.229 718.396 368.812 719.312 370.688C720.271 372.521 720.875 374.646 721.125 377.062C720.542 378.312 719.271 379.917 717.312 381.875C715.354 383.792 712.958 385.5 710.125 387C707.292 388.5 704.333 389.25 701.25 389.25C697.792 389.25 695.167 388.229 693.375 386.188C691.625 384.146 690.75 381.5 690.75 378.25C690.75 376.417 691.021 374.562 691.562 372.688L689.688 372.125C688.521 378.708 686.042 383.208 682.25 385.625C678.458 388.042 674.271 389.25 669.688 389.25C666.688 389.25 663.792 388.417 661 386.75C658.208 385.042 655.938 382.583 654.188 379.375C652.438 376.125 651.562 372.333 651.562 368C651.562 361.083 653.292 355.833 656.75 352.25C660.208 348.625 665.229 346.812 671.812 346.812ZM678.938 370.625C679.979 370.417 681.208 369.833 682.625 368.875C684.083 367.917 685.375 366.771 686.5 365.438C687.625 364.104 688.292 362.833 688.5 361.625L688.125 360.125C685.917 359.833 683.562 359.688 681.062 359.688C678.938 359.688 677.479 359.854 676.688 360.188C675.354 361.688 674.688 363.354 674.688 365.188C674.688 366.521 675.021 367.729 675.688 368.812C676.396 369.896 677.479 370.5 678.938 370.625ZM730.562 371.25C730.562 369.458 730.604 365.062 730.688 358.062C730.812 344.312 730.875 336.792 730.875 335.5L725.125 334.562C724.333 332.188 723.771 329.958 723.438 327.875C723.104 325.792 722.938 323.688 722.938 321.562C722.938 320.688 722.958 320.021 723 319.562C723.708 318.938 724.812 318.188 726.312 317.312C727.812 316.438 729.583 315.667 731.625 315C733.667 314.292 735.75 313.938 737.875 313.938C742.833 313.938 746.417 315.042 748.625 317.25C750.875 319.458 752 322.688 752 326.938C752 329.521 751.667 332.833 751 336.875C750.375 340.875 749.729 343.729 749.062 345.438L751.312 345.812L755.062 331.688C756.729 325.312 758.812 320.771 761.312 318.062C763.812 315.312 766.625 313.938 769.75 313.938C771.792 313.938 773.812 314.25 775.812 314.875C777.854 315.5 779.417 316.271 780.5 317.188C781.667 319.771 782.25 323.208 782.25 327.5C782.25 330.5 781.958 333.479 781.375 336.438C780.792 339.354 780.042 341.708 779.125 343.5L766 341.75C763.333 344.583 760.5 348.521 757.5 353.562C754.5 358.562 752.104 363.167 750.312 367.375L750.25 370.625L762.375 367.75C764.417 370.875 765.604 374.583 765.938 378.875C765.938 379.125 765 380.146 763.125 381.938C761.25 383.729 758.771 385.396 755.688 386.938C752.646 388.438 749.146 389.188 745.188 389.188C741.104 389.188 737.688 388.104 734.938 385.938C732.229 383.729 730.792 380.021 730.625 374.812C730.583 374.188 730.562 373 730.562 371.25ZM792.75 366.25C792.75 359.458 792.833 354.333 793 350.875C793.167 347.375 793.604 342.25 794.312 335.5L787.125 334.562C786.25 331.854 785.667 329.438 785.375 327.312C785.125 325.188 785 322.438 785 319.062C785.667 318.479 786.771 317.792 788.312 317C789.896 316.167 791.75 315.458 793.875 314.875C796.042 314.25 798.229 313.938 800.438 313.938C805.479 313.938 809.042 315.021 811.125 317.188C813.25 319.354 814.312 322.604 814.312 326.938C814.312 329.354 813.958 332.625 813.25 336.75C812.083 343.375 811.5 346.854 811.5 347.188C811.5 347.396 811.646 347.604 811.938 347.812C812.229 347.979 812.542 348.062 812.875 348.062C813.25 348.062 813.5 347.917 813.625 347.625C813.583 347.792 814.062 345.688 815.062 341.312C816.271 335.562 817.5 330.875 818.75 327.25C820.042 323.625 822.083 320.521 824.875 317.938C827.667 315.354 831.458 314.062 836.25 314.062C842.167 314.062 846.438 315.771 849.062 319.188C851.688 322.562 853 327.062 853 332.688C853 337.146 852.25 342.104 850.75 347.562C850.75 347.771 850.896 347.979 851.188 348.188C851.479 348.354 851.792 348.438 852.125 348.438C852.5 348.438 852.75 348.292 852.875 348L853.75 344.5C855.25 338.333 856.729 333.208 858.188 329.125C859.688 325.042 861.917 321.521 864.875 318.562C867.875 315.562 871.771 314.062 876.562 314.062C882.854 314.062 887.375 316.083 890.125 320.125C892.917 324.167 894.312 329.25 894.312 335.375C894.312 339.708 893.896 344.062 893.062 348.438C892.271 352.812 891.417 356.479 890.5 359.438C889.625 362.396 888.542 365.812 887.25 369.688L887.375 369.812L896.625 365.938C899.875 368.729 901.771 372.438 902.312 377.062C902.312 377.354 901.375 378.562 899.5 380.688C897.625 382.771 895.146 384.729 892.062 386.562C889.021 388.354 885.521 389.25 881.562 389.25C877.604 389.25 874.375 388.188 871.875 386.062C869.375 383.938 868.125 380.312 868.125 375.188C868.125 369.479 868.229 363.625 868.438 357.625C868.688 351.583 869.042 346.167 869.5 341.375C868.792 340.792 867.812 340.479 866.562 340.438C865.312 341.646 863.75 344.292 861.875 348.375C860 352.417 858.271 356.75 856.688 361.375C855.104 365.958 854.104 369.542 853.688 372.125C854.271 376.208 855.167 380.25 856.375 384.25C855.625 385.667 854.083 386.854 851.75 387.812C849.417 388.771 846.542 389.25 843.125 389.25C840.042 389.25 837.625 389 835.875 388.5C834.125 388 832.917 387.479 832.25 386.938C831.625 386.396 831.312 386.042 831.312 385.875C831.271 385.5 831.167 384.521 831 382.938C830.833 381.312 830.667 379.062 830.5 376.188C830.333 373.271 830.25 369.958 830.25 366.25C830.25 362.708 830.521 358.271 831.062 352.938C831.104 352.271 831.229 350.688 831.438 348.188C831.646 345.688 831.75 343.417 831.75 341.375C831.042 340.792 830.062 340.479 828.812 340.438C828.104 340.979 826.125 344.438 822.875 350.812C819.625 357.188 817.458 361.688 816.375 364.312C816.292 364.896 816.25 365.458 816.25 366C816.25 368.083 816.562 370.896 817.188 374.438C817.812 377.938 818.583 381.208 819.5 384.25C818.75 385.667 817.208 386.854 814.875 387.812C812.542 388.771 809.667 389.25 806.25 389.25C803.167 389.25 800.688 389 798.812 388.5C796.979 388 795.688 387.479 794.938 386.938C794.188 386.354 793.812 386 793.812 385.875C793.771 385.5 793.667 384.521 793.5 382.938C793.333 381.312 793.167 379.062 793 376.188C792.833 373.271 792.75 369.958 792.75 366.25ZM926.438 346.812C928.896 346.812 931.604 347.062 934.562 347.562C937.562 348.062 940.312 348.667 942.812 349.375V347.438C942.812 346.146 942.771 344.708 942.688 343.125C942.646 341.542 942.562 340.5 942.438 340C942.062 339.292 940.979 338.562 939.188 337.812C937.438 337.062 934.562 336.688 930.562 336.688C928.104 336.688 925.562 337 922.938 337.625C920.354 338.208 917.479 339 914.312 340C912.604 337.167 911.229 334.479 910.188 331.938C909.188 329.354 908.688 326.771 908.688 324.188C908.688 323.396 908.75 322.604 908.875 321.812C915.625 316.562 924.354 313.938 935.062 313.938C940.979 313.938 946.229 314.604 950.812 315.938C955.396 317.271 959.167 319.854 962.125 323.688C965.083 327.521 966.562 332.958 966.562 340C966.562 346.875 965.75 353.542 964.125 360C962.542 366.417 961.729 369.688 961.688 369.812L970.75 365.938C971.958 367.229 973.021 368.812 973.938 370.688C974.896 372.521 975.5 374.646 975.75 377.062C975.167 378.312 973.896 379.917 971.938 381.875C969.979 383.792 967.583 385.5 964.75 387C961.917 388.5 958.958 389.25 955.875 389.25C952.417 389.25 949.792 388.229 948 386.188C946.25 384.146 945.375 381.5 945.375 378.25C945.375 376.417 945.646 374.562 946.188 372.688L944.312 372.125C943.146 378.708 940.667 383.208 936.875 385.625C933.083 388.042 928.896 389.25 924.312 389.25C921.312 389.25 918.417 388.417 915.625 386.75C912.833 385.042 910.562 382.583 908.812 379.375C907.062 376.125 906.188 372.333 906.188 368C906.188 361.083 907.917 355.833 911.375 352.25C914.833 348.625 919.854 346.812 926.438 346.812ZM933.562 370.625C934.604 370.417 935.833 369.833 937.25 368.875C938.708 367.917 940 366.771 941.125 365.438C942.25 364.104 942.917 362.833 943.125 361.625L942.75 360.125C940.542 359.833 938.188 359.688 935.688 359.688C933.562 359.688 932.104 359.854 931.312 360.188C929.979 361.688 929.312 363.354 929.312 365.188C929.312 366.521 929.646 367.729 930.312 368.812C931.021 369.896 932.104 370.5 933.562 370.625ZM978.438 351.688C978.438 344.479 979.646 338.042 982.062 332.375C984.479 326.708 988.208 322.229 993.25 318.938C998.333 315.604 1004.67 313.938 1012.25 313.938C1014.83 313.938 1017.79 314.104 1021.12 314.438C1024.5 314.729 1027.73 315.188 1030.81 315.812L1032.06 316.688C1033.94 317.979 1035.31 319.021 1036.19 319.812C1037.1 320.562 1038.06 321.625 1039.06 323C1039.06 325.25 1038.75 328.354 1038.12 332.312C1037.54 336.229 1036.79 339.875 1035.88 343.25C1034.96 346.625 1034.08 348.792 1033.25 349.75C1031.88 350.458 1029.65 350.812 1026.56 350.812C1025.06 350.812 1023.65 350.708 1022.31 350.5C1021.02 350.25 1020.04 349.938 1019.38 349.562L1018.06 338C1017.44 337.292 1016 336.729 1013.75 336.312C1011.54 335.854 1009.5 335.625 1007.62 335.625C1007.04 335.625 1006.5 335.667 1006 335.75C1005.04 337.708 1004.31 340.208 1003.81 343.25C1003.31 346.292 1003.06 349.396 1003.06 352.562C1003.06 357.146 1003.81 361.042 1005.31 364.25C1006.81 367.417 1009.88 369 1014.5 369C1016.79 369 1019.04 368.625 1021.25 367.875C1023.5 367.125 1026.33 365.979 1029.75 364.438C1031.17 363.771 1032.23 363.292 1032.94 363C1034.6 364.667 1035.92 366.417 1036.88 368.25C1037.83 370.083 1038.46 372.438 1038.75 375.312C1036.08 378.438 1032.33 381.542 1027.5 384.625C1022.71 387.708 1017.1 389.25 1010.69 389.25C1003.85 389.25 998 387.604 993.125 384.312C988.292 380.979 984.625 376.479 982.125 370.812C979.667 365.104 978.438 358.729 978.438 351.688ZM1049.44 298.312C1049.44 294.646 1050.62 291.667 1053 289.375C1055.42 287.083 1059.25 285.938 1064.5 285.938C1069.75 285.938 1073.56 287.083 1075.94 289.375C1078.35 291.667 1079.56 294.646 1079.56 298.312C1079.56 300.396 1078.83 302.312 1077.38 304.062C1075.96 305.812 1074.08 307.208 1071.75 308.25C1069.42 309.25 1067 309.75 1064.5 309.75C1061.79 309.75 1059.27 309.167 1056.94 308C1054.65 306.792 1052.81 305.292 1051.44 303.5C1050.1 301.708 1049.44 299.979 1049.44 298.312ZM1046.38 334.062C1045.83 332.021 1045.46 330.167 1045.25 328.5C1045.04 326.792 1044.94 325.021 1044.94 323.188L1045 321.438C1045.88 320.312 1047.23 319.188 1049.06 318.062C1050.94 316.896 1053.1 315.917 1055.56 315.125C1058.06 314.333 1060.65 313.938 1063.31 313.938C1069.15 313.938 1073.29 315.25 1075.75 317.875C1078.21 320.5 1079.44 324.583 1079.44 330.125C1079.44 333.458 1078.96 337.812 1078 343.188C1077.08 348.562 1075.96 353.792 1074.62 358.875C1073.33 363.917 1072.21 367.521 1071.25 369.688L1071.38 369.812L1080.62 366.438C1082.29 367.854 1083.54 369.417 1084.38 371.125C1085.25 372.833 1085.81 374.812 1086.06 377.062C1086.06 377.354 1085.15 378.562 1083.31 380.688C1081.48 382.771 1079.04 384.729 1076 386.562C1073 388.354 1069.52 389.25 1065.56 389.25C1061.56 389.25 1058.31 388.167 1055.81 386C1053.35 383.833 1052.12 380.125 1052.12 374.875C1052.12 368.75 1052.29 362.25 1052.62 355.375C1052.96 348.5 1053.48 341.833 1054.19 335.375L1046.38 334.062ZM1097.31 365.938C1100.98 367.396 1103.92 368.521 1106.12 369.312C1108.33 370.104 1110.75 370.792 1113.38 371.375C1116.04 371.958 1118.69 372.25 1121.31 372.25C1122.48 372.25 1123.31 372.146 1123.81 371.938C1123.94 371.771 1124.04 371.521 1124.12 371.188C1124.25 370.812 1124.31 370.438 1124.31 370.062C1124.31 369.229 1123.83 368.542 1122.88 368C1121.38 367.167 1118.71 365.854 1114.88 364.062C1109.62 361.562 1105.46 359.333 1102.38 357.375C1099.33 355.417 1096.75 352.812 1094.62 349.562C1092.54 346.312 1091.5 342.229 1091.5 337.312C1091.5 330.271 1093.6 324.625 1097.81 320.375C1102.02 316.083 1108.69 313.938 1117.81 313.938C1128.69 313.938 1137.15 315.354 1143.19 318.188C1143.48 319.396 1143.62 320.917 1143.62 322.75C1143.62 326.25 1143.08 329.833 1142 333.5C1140.92 337.125 1139.5 339.812 1137.75 341.562C1135.38 340.771 1132.02 339.5 1127.69 337.75C1124.52 336.5 1122 335.542 1120.12 334.875C1118.29 334.167 1116.6 333.667 1115.06 333.375C1114.23 333.583 1113.56 334.083 1113.06 334.875C1112.56 335.625 1112.31 336.521 1112.31 337.562C1112.31 338.479 1112.58 339.25 1113.12 339.875C1113.67 340.5 1114.27 341 1114.94 341.375C1115.65 341.708 1116.65 342.167 1117.94 342.75C1118.6 343.042 1119.23 343.312 1119.81 343.562C1120.4 343.771 1120.94 343.979 1121.44 344.188C1124.69 345.562 1127.25 346.688 1129.12 347.562C1131 348.438 1132.81 349.479 1134.56 350.688C1137.77 352.896 1140.29 355.417 1142.12 358.25C1143.96 361.083 1144.88 364.188 1144.88 367.562C1144.88 372.229 1143.54 376.271 1140.88 379.688C1138.25 383.062 1134.88 385.521 1130.75 387.062C1128.58 387.854 1126.21 388.417 1123.62 388.75C1121.08 389.125 1118.1 389.312 1114.69 389.312C1110.65 389.312 1106.48 388.542 1102.19 387C1097.94 385.417 1094.69 382.792 1092.44 379.125C1092.48 376.583 1092.81 374.375 1093.44 372.5C1094.1 370.583 1095.4 368.396 1097.31 365.938ZM1156.94 353.5C1156.94 346.708 1157.04 340.521 1157.25 334.938L1150.44 333.75C1149.9 331.667 1149.52 329.833 1149.31 328.25C1149.1 326.667 1149 324.979 1149 323.188L1149.12 321.938C1149.25 321.354 1149.31 320.875 1149.31 320.5L1158.38 318.5C1158.58 315.917 1159.06 313 1159.81 309.75C1160.56 306.5 1161.35 304.104 1162.19 302.562C1163.52 301.562 1165.12 300.812 1167 300.312C1168.88 299.812 1170.9 299.562 1173.06 299.562C1174.9 299.562 1176.67 299.75 1178.38 300.125C1180.12 300.458 1181.65 300.917 1182.94 301.5C1183.06 302.917 1183.12 304.542 1183.12 306.375C1183.12 309.375 1182.98 312.771 1182.69 316.562L1193.69 314.562C1195.23 317.229 1196 320.125 1196 323.25C1196 325.417 1195.73 327.375 1195.19 329.125C1194.69 330.875 1193.98 332.854 1193.06 335.062C1190.31 335.521 1186.54 335.812 1181.75 335.938C1181.17 342.729 1179.88 352.708 1177.88 365.875L1177.56 368L1177.69 368.125L1192.38 363.562C1195.42 366.104 1197.27 370.021 1197.94 375.312C1197.94 375.604 1196.58 376.979 1193.88 379.438C1191.21 381.854 1187.85 384.104 1183.81 386.188C1179.77 388.229 1175.38 389.25 1170.62 389.25C1162.33 389.25 1157.92 384.188 1157.38 374.062C1157.08 368.938 1156.94 362.083 1156.94 353.5ZM1208.19 365.938C1211.85 367.396 1214.79 368.521 1217 369.312C1219.21 370.104 1221.62 370.792 1224.25 371.375C1226.92 371.958 1229.56 372.25 1232.19 372.25C1233.35 372.25 1234.19 372.146 1234.69 371.938C1234.81 371.771 1234.92 371.521 1235 371.188C1235.12 370.812 1235.19 370.438 1235.19 370.062C1235.19 369.229 1234.71 368.542 1233.75 368C1232.25 367.167 1229.58 365.854 1225.75 364.062C1220.5 361.562 1216.33 359.333 1213.25 357.375C1210.21 355.417 1207.62 352.812 1205.5 349.562C1203.42 346.312 1202.38 342.229 1202.38 337.312C1202.38 330.271 1204.48 324.625 1208.69 320.375C1212.9 316.083 1219.56 313.938 1228.69 313.938C1239.56 313.938 1248.02 315.354 1254.06 318.188C1254.35 319.396 1254.5 320.917 1254.5 322.75C1254.5 326.25 1253.96 329.833 1252.88 333.5C1251.79 337.125 1250.38 339.812 1248.62 341.562C1246.25 340.771 1242.9 339.5 1238.56 337.75C1235.4 336.5 1232.88 335.542 1231 334.875C1229.17 334.167 1227.48 333.667 1225.94 333.375C1225.1 333.583 1224.44 334.083 1223.94 334.875C1223.44 335.625 1223.19 336.521 1223.19 337.562C1223.19 338.479 1223.46 339.25 1224 339.875C1224.54 340.5 1225.15 341 1225.81 341.375C1226.52 341.708 1227.52 342.167 1228.81 342.75C1229.48 343.042 1230.1 343.312 1230.69 343.562C1231.27 343.771 1231.81 343.979 1232.31 344.188C1235.56 345.562 1238.12 346.688 1240 347.562C1241.88 348.438 1243.69 349.479 1245.44 350.688C1248.65 352.896 1251.17 355.417 1253 358.25C1254.83 361.083 1255.75 364.188 1255.75 367.562C1255.75 372.229 1254.42 376.271 1251.75 379.688C1249.12 383.062 1245.75 385.521 1241.62 387.062C1239.46 387.854 1237.08 388.417 1234.5 388.75C1231.96 389.125 1228.98 389.312 1225.56 389.312C1221.52 389.312 1217.35 388.542 1213.06 387C1208.81 385.417 1205.56 382.792 1203.31 379.125C1203.35 376.583 1203.69 374.375 1204.31 372.5C1204.98 370.583 1206.27 368.396 1208.19 365.938Z"/>
</svg>
