<svg width="561" height="561" viewBox="0 0 561 561" xmlns="http://www.w3.org/2000/svg">
<path fill-rule="evenodd" clip-rule="evenodd" d="M494.56 0.00961653C477.581 0.285657 460.601 6.94708 447.711 19.843L198.004 269.55C195.566 271.977 193.853 275.029 193.045 278.373L172.373 365.179C170.863 371.507 172.759 378.164 177.373 382.747C181.988 387.336 188.655 389.185 194.977 387.638L281.639 366.966C284.977 366.159 288.029 364.44 290.462 362.007L540.168 112.301C565.955 86.5141 567.038 44.3795 541.403 18.7488C528.59 5.93109 511.533 -0.267177 494.559 0.00882307L494.56 0.00961653ZM494.997 37.051C502.31 36.8843 509.461 39.5926 514.94 45.0718C525.898 56.0302 525.805 73.9104 513.7 86.0144L508.195 91.5196L468.638 51.817L474.143 46.3118C480.195 40.2596 487.684 37.2176 494.997 37.051ZM77.584 47.4051C34.948 47.4051 0 82.2078 0 124.842V482.429C0 525.065 34.948 560.013 77.584 560.013H435.171C477.807 560.013 512.755 525.065 512.755 482.429V249.029C512.776 244.05 510.807 239.274 507.291 235.758C503.77 232.238 498.994 230.269 494.015 230.289C489.062 230.3 484.312 232.279 480.817 235.795C477.322 239.31 475.369 244.071 475.385 249.029V482.429C475.385 505.028 457.77 522.68 435.172 522.68H77.5983C54.9996 522.68 37.3476 505.029 37.3476 482.429V124.842C37.3476 102.244 54.9983 84.6291 77.5983 84.6291H309.505H309.5C319.771 84.5874 328.078 76.2646 328.098 65.9984C328.057 55.7432 319.755 47.4411 309.5 47.4051H77.584ZM442.171 78.2851L481.728 117.842L296.261 303.416L256.631 263.785L442.171 78.2851ZM230.237 290.178L269.868 329.809L267.863 331.814L215.8 344.21L228.196 292.257L230.237 290.178Z" fill="#0038FF"/>
</svg>
