<svg width="18" height="15" viewBox="0 0 18 15" xmlns="http://www.w3.org/2000/svg">
<path d="M14.625 5.85C14.625 7.14094 14.1012 8.33344 13.2188 9.30094L17.6695 12.8644C18.109 13.2159 18.109 13.7869 17.6695 14.1384C17.2301 14.49 16.5164 14.49 16.077 14.1384L11.6262 10.575C10.4168 11.2838 8.92617 11.7 7.3125 11.7C3.27305 11.7 0 9.08156 0 5.85C0 2.61844 3.27305 0 7.3125 0C11.352 0 14.625 2.61844 14.625 5.85ZM7.3125 9.9C10.1074 9.9 12.375 8.08594 12.375 5.85C12.375 3.61406 10.1074 1.8 7.3125 1.8C4.51758 1.8 2.25 3.61406 2.25 5.85C2.25 8.08594 4.51758 9.9 7.3125 9.9Z" fill="#727272"/>
</svg>
