<?xml version="1.0" standalone="no"?>
<!DOCTYPE svg PUBLIC "-//W3C//DTD SVG 20010904//EN"
 "http://www.w3.org/TR/2001/REC-SVG-20010904/DTD/svg10.dtd">
<svg version="1.0" xmlns="http://www.w3.org/2000/svg"
 width="926.000000pt" height="976.000000pt" viewBox="0 0 926.000000 976.000000"
 preserveAspectRatio="xMidYMid meet">

<g transform="translate(0.000000,976.000000) scale(0.100000,-0.100000)"
fill="#000000" stroke="none">
<path d="M4505 8666 c-181 -84 -219 -322 -73 -458 26 -24 33 -35 20 -32 -34 9
-99 -15 -126 -47 -58 -68 -12 -170 83 -185 33 -5 41 -11 41 -28 -1 -53 52
-2141 54 -2143 1 -2 41 11 89 29 l87 31 0 46 c0 25 7 451 15 946 8 495 15 948
15 1008 l0 107 31 0 30 0 -5 -82 c-11 -156 -50 -1998 -43 -2004 4 -4 9 -5 11
-3 4 4 56 1924 56 2052 0 33 3 37 25 37 99 0 160 117 99 189 -26 31 -93 57
-120 47 -24 -9 -16 9 14 31 15 11 40 43 55 72 102 186 -31 411 -243 411 -47 0
-79 -7 -115 -24z m295 -155 c29 -58 33 -96 16 -153 -16 -57 -56 -103 -113
-132 -45 -22 -129 -20 -173 5 -26 14 -28 18 -10 13 86 -24 188 13 236 86 36
55 44 150 16 203 -14 27 -16 34 -5 26 8 -7 23 -29 33 -48z"/>
<path d="M3475 8659 c-71 -17 -168 -50 -275 -96 -113 -49 -152 -69 -444 -231
-105 -58 -240 -129 -300 -158 -440 -210 -1038 -332 -1640 -335 -108 0 -196 -4
-196 -8 0 -15 77 -62 122 -75 33 -10 83 -11 213 -5 527 25 832 69 1145 165
325 100 491 164 741 290 505 253 732 284 819 114 27 -53 38 -106 55 -259 12
-112 19 -145 45 -197 88 -179 316 -294 605 -305 l60 -3 -1 55 c-2 117 6 105
-85 119 -92 13 -195 43 -252 72 -58 29 -122 93 -148 146 -25 51 -28 119 -18
397 4 118 2 134 -18 177 -24 54 -85 103 -161 130 -52 19 -198 23 -267 7z"/>
<path d="M5504 8656 c-63 -20 -131 -72 -160 -122 -23 -39 -27 -58 -28 -132 -1
-48 3 -145 8 -217 7 -112 6 -139 -9 -193 -40 -141 -176 -228 -412 -262 l-81
-12 -7 -73 c-4 -40 -5 -77 -2 -82 3 -5 49 -5 104 -1 276 22 479 131 563 302
26 52 33 85 45 197 22 202 38 253 98 316 96 102 334 49 771 -169 257 -129 407
-187 746 -292 179 -55 341 -89 541 -115 280 -37 748 -65 809 -49 34 9 130 67
130 79 0 3 -84 6 -187 7 -432 5 -826 59 -1197 167 -259 75 -434 150 -711 305
-361 202 -491 265 -663 321 -79 26 -117 32 -207 35 -74 3 -123 -1 -151 -10z"/>
<path d="M3363 8298 c-257 -288 -516 -507 -798 -677 -150 -90 -154 -94 -131
-120 23 -25 105 -45 148 -36 120 26 386 220 578 421 170 178 416 486 404 506
-15 23 -47 -4 -129 -110 -99 -127 -402 -438 -505 -517 -48 -37 -19 -4 110 125
225 224 473 520 437 520 -8 0 -59 -51 -114 -112z"/>
<path d="M5770 8380 c104 -146 327 -398 495 -558 96 -91 102 -98 45 -56 -100
75 -404 386 -505 516 -82 106 -114 133 -129 110 -3 -5 40 -69 94 -142 243
-323 520 -591 747 -720 111 -64 153 -76 218 -61 62 14 95 42 75 65 -6 9 -49
36 -93 62 -288 166 -577 407 -839 701 -56 62 -107 113 -115 113 -11 0 -9 -7 7
-30z"/>
<path d="M3276 8297 c-170 -183 -468 -437 -587 -500 l-34 -18 29 23 c181 141
545 476 596 548 l20 28 -22 -5 c-13 -3 -52 -34 -88 -67 -91 -86 -250 -222
-345 -293 -111 -84 -209 -143 -425 -257 -102 -54 -191 -104 -199 -111 -33 -31
31 -75 109 -75 79 0 279 95 440 208 168 118 360 294 518 477 140 160 129 145
104 145 -13 0 -54 -36 -116 -103z"/>
<path d="M5841 8383 c215 -258 430 -465 629 -605 161 -113 361 -208 440 -208
78 0 142 44 109 75 -8 7 -97 57 -199 111 -212 111 -311 171 -413 248 -100 76
-250 202 -343 289 -77 72 -135 106 -114 68 26 -49 441 -432 605 -559 46 -36 9
-15 -85 49 -129 87 -268 207 -446 386 -89 90 -169 163 -179 163 -16 0 -16 -2
-4 -17z"/>
<path d="M3510 8264 c-215 -276 -450 -521 -660 -690 -78 -63 -126 -108 -128
-121 -5 -32 30 -46 103 -41 55 3 72 10 137 52 220 146 454 407 641 718 51 84
57 99 47 118 -11 21 -13 20 -39 -22 -96 -152 -299 -404 -407 -508 l-57 -55 69
80 c95 110 203 254 313 418 82 123 98 157 72 157 -5 0 -45 -48 -91 -106z"/>
<path d="M5625 8360 c-12 -20 256 -400 399 -565 l69 -80 -57 55 c-108 104
-311 356 -407 508 -26 42 -28 43 -39 22 -13 -24 -1 -48 113 -220 188 -284 364
-474 564 -607 73 -49 89 -56 146 -60 74 -6 110 7 105 40 -2 13 -50 59 -128
122 -215 172 -442 410 -662 691 -44 57 -84 104 -89 104 -4 0 -11 -4 -14 -10z"/>
<path d="M3065 8292 c-77 -33 -161 -82 -280 -163 -171 -117 -352 -226 -360
-217 -3 3 28 24 67 48 80 47 258 169 258 176 0 2 -22 -7 -49 -21 -28 -13 -85
-39 -128 -56 -43 -17 -139 -57 -213 -89 -74 -31 -180 -72 -235 -89 -104 -34
-142 -58 -132 -85 18 -46 147 -81 239 -66 148 24 442 186 693 383 103 81 266
226 255 226 -3 1 -54 -21 -115 -47z"/>
<path d="M6130 8270 c262 -247 677 -503 872 -540 95 -18 237 23 246 73 5 23
-44 50 -146 82 -47 15 -147 53 -221 85 -75 32 -171 72 -214 89 -43 17 -100 43
-128 56 -27 14 -49 23 -49 20 0 -8 201 -144 277 -188 40 -22 71 -43 68 -45 -9
-9 -189 98 -363 215 -171 116 -246 158 -367 204 l-50 19 75 -70z"/>
<path d="M3620 8147 c-140 -225 -343 -462 -547 -639 -51 -44 -93 -86 -93 -94
0 -35 95 -45 171 -19 96 34 365 338 513 581 32 53 36 67 30 98 l-6 37 -59 -91
c-77 -118 -162 -229 -239 -310 -68 -72 -67 -65 4 23 50 62 150 210 234 344 33
52 52 94 52 113 0 16 -3 30 -7 30 -5 -1 -28 -33 -53 -73z"/>
<path d="M5560 8189 c0 -40 145 -273 269 -433 79 -101 85 -113 21 -46 -78 83
-163 192 -238 310 l-59 92 -7 -37 c-6 -29 -2 -45 20 -83 130 -224 426 -563
523 -597 76 -26 171 -16 171 19 0 8 -42 50 -93 94 -104 90 -243 233 -328 338
-68 83 -213 284 -243 336 -26 46 -36 48 -36 7z"/>
<path d="M3615 7864 c-75 -109 -201 -270 -322 -413 -59 -69 -66 -97 -28 -107
87 -22 188 51 321 230 63 85 164 246 164 261 0 6 -6 19 -13 29 -12 16 -15 14
-42 -26 -39 -60 -166 -227 -177 -234 -5 -3 22 41 60 98 98 147 132 211 132
247 0 17 -3 31 -7 31 -5 0 -44 -53 -88 -116z"/>
<path d="M5530 7948 c0 -34 39 -105 143 -263 77 -118 18 -53 -85 93 -65 91
-74 101 -85 85 -20 -26 -17 -33 43 -129 78 -125 186 -264 248 -321 67 -62 154
-90 195 -64 24 16 4 53 -90 161 -96 111 -234 290 -309 402 -25 37 -48 68 -52
68 -5 0 -8 -14 -8 -32z"/>
<path d="M1880 7839 c-197 -48 -516 -86 -880 -105 -137 -7 -203 -22 -214 -51
-18 -45 70 -95 203 -114 173 -24 690 2 909 47 82 17 221 56 267 75 l30 12 -55
7 c-96 12 -170 55 -170 100 0 6 12 22 26 35 33 30 29 30 -116 -6z"/>
<path d="M7243 7847 c15 -14 27 -31 27 -37 0 -45 -70 -88 -164 -99 -60 -8 -61
-8 -31 -20 46 -19 185 -58 267 -75 219 -45 736 -71 909 -47 133 19 221 69 203
114 -11 29 -77 45 -214 52 -421 21 -699 58 -995 130 l-30 8 28 -26z"/>
<path d="M3711 7715 c-29 -46 -92 -138 -141 -204 -96 -127 -109 -155 -87 -185
22 -30 76 -14 127 36 47 47 128 167 190 281 39 72 41 80 27 95 -9 9 -18 14
-20 11 -2 -2 -33 -50 -70 -106 -73 -114 -100 -140 -37 -39 81 134 104 196 72
196 -5 0 -33 -38 -61 -85z"/>
<path d="M5456 7784 c-6 -17 23 -80 84 -180 63 -101 36 -75 -37 39 -37 56 -68
104 -70 106 -2 3 -11 -3 -20 -11 -15 -15 -11 -25 43 -123 108 -195 206 -305
271 -305 22 0 43 26 43 53 0 8 -43 71 -95 142 -52 70 -118 165 -146 211 -29
46 -55 84 -59 84 -4 0 -11 -7 -14 -16z"/>
<path d="M3863 7678 c-29 -48 -169 -280 -186 -309 -49 -85 27 -93 103 -11 51
55 165 265 156 287 -11 30 -32 13 -66 -51 -47 -89 -60 -94 -16 -5 20 39 36 77
36 86 0 18 -16 20 -27 3z"/>
<path d="M5350 7676 c0 -9 16 -48 35 -86 19 -39 33 -70 31 -70 -3 0 -21 29
-41 65 -41 72 -51 83 -68 66 -21 -21 124 -283 178 -324 35 -25 83 -33 90 -14
9 21 -12 62 -113 227 -86 138 -112 170 -112 136z"/>
<path d="M2140 7653 c-197 -65 -502 -108 -867 -121 -215 -8 -253 -16 -253 -52
0 -30 46 -76 102 -101 50 -23 64 -24 243 -23 298 1 603 57 873 162 l74 28 -44
13 c-77 23 -99 61 -56 101 27 25 22 24 -72 -7z"/>
<path d="M7028 7661 c42 -41 27 -70 -53 -100 l-47 -18 89 -31 c317 -112 654
-170 935 -160 108 4 129 7 175 31 55 28 93 68 93 98 0 35 -39 43 -255 51 -408
15 -704 61 -943 145 -13 4 -12 1 6 -16z"/>
<path d="M3969 7598 c-7 -13 -38 -64 -70 -113 -70 -109 -91 -156 -79 -176 16
-25 92 24 138 89 45 65 102 171 102 190 0 30 -32 8 -55 -38 -33 -66 -41 -64
-10 2 13 28 22 55 19 60 -10 15 -33 8 -45 -14z"/>
<path d="M5227 7614 c-3 -3 5 -30 18 -60 30 -68 24 -70 -10 -4 -22 44 -55 68
-55 40 0 -18 61 -133 102 -192 46 -65 122 -114 138 -89 12 20 -9 67 -79 176
-32 49 -63 100 -70 113 -11 21 -31 29 -44 16z"/>
<path d="M4081 7522 c-16 -32 -46 -85 -65 -118 -35 -58 -46 -104 -26 -104 44
0 106 62 150 148 47 96 51 109 34 116 -9 3 -21 -8 -34 -34 -25 -50 -34 -52
-14 -5 14 35 12 55 -6 55 -6 0 -23 -26 -39 -58z"/>
<path d="M5105 7570 c-3 -5 1 -25 9 -45 20 -47 11 -45 -14 5 -13 26 -25 37
-34 34 -17 -7 -13 -20 38 -121 31 -63 92 -133 116 -133 4 0 15 -3 24 -6 28
-11 18 33 -23 104 -21 37 -50 91 -65 120 -26 51 -39 62 -51 42z"/>
<path d="M2345 7524 c-217 -89 -475 -153 -803 -198 -57 -8 -110 -20 -118 -27
-59 -49 88 -129 237 -129 154 0 372 43 579 115 95 33 350 148 350 158 0 2 -23
4 -51 5 -72 1 -123 29 -129 69 l-5 31 -60 -24z"/>
<path d="M4188 7447 c-59 -130 -61 -137 -43 -143 44 -17 146 104 179 214 6 19
4 22 -17 22 -15 0 -28 -8 -35 -22 -11 -22 -11 -21 -6 5 5 22 3 27 -12 27 -14
0 -31 -26 -66 -103z"/>
<path d="M4973 7533 c2 -10 8 -27 11 -38 4 -11 -1 -5 -10 13 -12 22 -25 32
-41 32 -13 0 -23 -5 -23 -10 0 -14 46 -105 78 -152 28 -43 85 -83 107 -74 18
6 14 18 -48 154 -31 69 -46 92 -60 92 -14 0 -18 -5 -14 -17z"/>
<path d="M6828 7517 c-2 -26 -10 -36 -40 -50 -20 -10 -60 -19 -87 -19 -28 -1
-51 -3 -51 -5 0 -3 55 -31 123 -63 347 -166 752 -248 938 -190 65 20 119 59
119 85 0 25 -41 37 -200 61 -192 28 -360 64 -510 109 -100 30 -141 45 -267 95
-19 8 -22 6 -25 -23z"/>
<path d="M4331 7438 c-50 -119 -61 -168 -38 -168 23 0 77 49 109 99 23 37 28
55 27 105 l-1 61 -23 -50 c-27 -58 -31 -56 -10 5 19 52 19 50 -3 50 -13 0 -29
-27 -61 -102z"/>
<path d="M4830 7536 c0 -2 7 -23 15 -46 21 -61 17 -63 -10 -5 l-23 50 -1 -61
c-1 -50 4 -68 27 -105 32 -50 86 -99 109 -99 23 0 12 49 -38 168 -32 75 -48
102 -61 102 -10 0 -18 -2 -18 -4z"/>
<path d="M2610 7425 c-220 -127 -561 -250 -773 -281 -26 -3 -58 -15 -70 -25
l-22 -19 28 -25 c36 -32 86 -45 178 -45 95 0 213 22 333 61 117 39 343 149
471 231 l100 63 -62 6 c-74 7 -96 22 -91 61 3 15 4 28 4 28 -1 0 -44 -25 -96
-55z"/>
<path d="M6538 7450 c5 -36 -22 -52 -98 -60 l-55 -5 100 -63 c283 -179 594
-292 803 -292 93 0 143 13 179 45 l28 25 -22 19 c-12 10 -44 22 -70 25 -218
31 -552 154 -799 295 l-70 40 4 -29z"/>
<path d="M2905 7388 c-114 -84 -393 -236 -538 -294 -62 -25 -103 -57 -92 -73
12 -21 71 -41 118 -41 143 0 417 126 635 290 139 105 134 96 48 92 -77 -4
-112 6 -124 37 -6 16 -11 15 -47 -11z"/>
<path d="M6290 7405 c0 -31 -46 -47 -125 -43 -86 4 -91 14 42 -87 230 -176
514 -303 653 -293 71 5 115 30 101 57 -6 10 -25 25 -43 33 -288 133 -404 194
-535 284 -57 38 -93 57 -93 49z"/>
<path d="M3150 7329 c-78 -62 -286 -200 -390 -258 -119 -67 -146 -102 -94
-121 41 -16 109 -12 166 10 121 45 342 191 468 309 l75 69 -47 -11 c-55 -12
-94 0 -106 34 -7 19 -12 17 -72 -32z"/>
<path d="M6020 7366 c0 -9 -12 -23 -26 -33 -22 -14 -34 -15 -77 -6 l-52 10 75
-69 c127 -117 348 -263 468 -308 81 -31 192 -23 192 14 0 20 -46 56 -127 101
-101 57 -258 160 -348 229 -102 79 -105 81 -105 62z"/>
<path d="M3366 7289 c-117 -102 -204 -171 -325 -254 -64 -44 -116 -87 -116
-95 0 -12 15 -15 74 -13 86 3 156 31 287 118 77 51 284 237 284 255 0 5 -16 3
-35 -3 -41 -12 -81 2 -93 32 -6 18 -14 14 -76 -40z"/>
<path d="M5800 7336 c0 -8 -12 -23 -26 -33 -21 -14 -33 -15 -65 -6 -21 6 -39
7 -39 3 0 -18 208 -204 284 -255 131 -87 204 -117 288 -119 47 -1 72 3 75 11
4 12 -6 20 -148 118 -71 49 -226 172 -321 256 -33 28 -48 36 -48 25z"/>
<path d="M3585 7279 c-62 -75 -197 -193 -312 -273 -118 -83 -112 -106 17 -67
115 35 293 165 404 296 l49 56 -34 -5 c-39 -7 -55 0 -66 31 -8 21 -12 18 -58
-38z"/>
<path d="M5600 7328 c0 -31 -30 -50 -68 -43 l-35 6 49 -56 c109 -128 288 -260
400 -295 114 -35 144 -20 68 32 -158 109 -295 228 -377 327 -22 27 -37 38 -37
29z"/>
<path d="M3911 7274 c-24 -32 -105 -119 -179 -192 -143 -143 -156 -168 -70
-143 62 18 139 72 222 154 75 74 172 195 163 203 -2 2 -16 0 -31 -5 -33 -13
-54 -5 -58 22 -2 17 -11 10 -47 -39z"/>
<path d="M4416 7304 c-4 -15 -2 -32 3 -37 8 -8 11 0 11 26 0 44 -5 47 -14 11z"/>
<path d="M4811 7296 c-1 -26 2 -37 9 -30 6 6 6 21 1 39 -9 30 -9 30 -10 -9z"/>
<path d="M5280 7313 c0 -26 -22 -35 -56 -22 -15 5 -29 7 -31 5 -6 -6 71 -107
138 -180 105 -115 268 -211 301 -178 10 10 -10 33 -89 107 -56 52 -132 132
-169 178 -98 119 -94 115 -94 90z"/>
<path d="M3717 7239 c-73 -85 -186 -187 -277 -249 -31 -21 -62 -45 -69 -54
-12 -14 -9 -16 32 -16 32 0 67 11 123 40 119 59 222 152 329 294 l30 39 -27
-6 c-21 -6 -33 -2 -48 13 -11 11 -21 20 -22 20 -2 -1 -34 -37 -71 -81z"/>
<path d="M4057 7255 c-27 -36 -98 -116 -158 -179 -60 -63 -109 -120 -109 -126
0 -18 70 -7 125 20 25 12 70 45 100 72 56 51 163 185 191 239 l15 30 -30 -15
c-40 -21 -62 -20 -68 4 -3 11 -8 20 -12 20 -3 -1 -28 -30 -54 -65z"/>
<path d="M5117 7300 c-6 -24 -28 -25 -69 -4 l-31 16 23 -39 c78 -130 200 -260
284 -302 55 -27 126 -40 126 -22 0 6 -49 63 -108 125 -60 63 -131 144 -158
180 -27 36 -52 65 -55 66 -4 0 -9 -9 -12 -20z"/>
<path d="M5427 7299 c-13 -14 -24 -18 -45 -12 l-27 6 30 -39 c107 -142 210
-235 329 -294 56 -29 91 -40 123 -40 27 0 42 4 38 10 -3 6 -41 36 -83 67 -116
85 -187 149 -265 238 -39 44 -73 81 -76 82 -3 0 -14 -7 -24 -18z"/>
<path d="M4341 7273 c-42 -29 -69 -29 -79 -2 -7 18 -14 12 -61 -51 -30 -40
-92 -113 -138 -162 -46 -50 -82 -95 -80 -102 14 -43 146 21 242 119 58 59 164
211 153 220 -2 1 -18 -9 -37 -22z"/>
<path d="M4860 7295 c0 -23 99 -164 155 -220 97 -99 228 -162 242 -118 3 7
-37 56 -87 109 -50 53 -112 126 -137 162 -42 58 -47 62 -54 43 -11 -28 -38
-27 -83 4 -20 13 -36 22 -36 20z"/>
<path d="M4350 7202 c-19 -31 -63 -95 -98 -141 -41 -54 -60 -87 -54 -93 16
-16 110 39 178 106 62 60 64 63 64 113 0 39 -4 52 -17 57 -10 3 -22 8 -28 11
-5 2 -26 -21 -45 -53z"/>
<path d="M4823 7246 c-19 -9 -23 -19 -23 -60 0 -48 2 -52 65 -114 65 -63 162
-119 178 -103 5 5 -19 46 -55 92 -35 46 -79 110 -98 141 -19 32 -37 57 -40 56
-3 0 -15 -5 -27 -12z"/>
<path d="M3823 6720 c-112 -21 -236 -89 -297 -164 -62 -76 -79 -122 -84 -223
-12 -245 123 -415 464 -586 121 -61 279 -127 303 -127 8 0 35 13 60 29 25 16
81 46 124 68 l78 38 -3 39 -3 39 -219 73 c-418 138 -566 243 -566 401 0 60 28
107 80 134 47 25 85 24 166 -7 92 -35 163 -31 259 14 84 40 105 58 105 89 0
38 -74 109 -154 148 -62 30 -83 35 -166 39 -52 3 -118 1 -147 -4z m225 -76 c4
-29 -23 -51 -43 -34 -16 13 -20 42 -8 54 14 14 48 1 51 -20z"/>
<path d="M5205 6720 c-64 -9 -145 -50 -200 -101 -80 -74 -70 -113 43 -167 103
-49 171 -54 266 -18 81 31 119 32 166 7 52 -27 80 -74 80 -134 0 -160 -155
-268 -585 -408 -121 -39 -281 -94 -355 -122 -400 -147 -595 -311 -618 -520
-16 -137 25 -258 122 -359 53 -56 158 -138 175 -138 6 0 51 23 101 51 l90 52
-1 46 c0 43 -4 48 -52 86 -75 59 -109 113 -115 179 -4 44 0 62 18 91 53 85
215 171 585 310 671 252 888 441 873 758 -6 133 -51 213 -162 291 -129 90
-265 121 -431 96z m43 -76 c4 -29 -23 -51 -43 -34 -16 13 -20 42 -8 54 14 14
48 1 51 -20z m-363 -819 c-16 -8 -118 -54 -226 -103 -342 -155 -462 -239 -526
-370 -26 -52 -28 -67 -28 -167 0 -96 3 -118 27 -173 31 -76 13 -65 -28 15 -27
55 -29 65 -29 178 0 109 2 125 26 175 68 143 251 259 624 396 163 60 224 79
160 49z"/>
<path d="M4890 5532 l-125 -47 -3 -50 c-2 -50 -2 -50 50 -85 73 -49 108 -101
108 -159 -1 -128 -86 -203 -425 -374 -186 -94 -264 -144 -330 -212 -76 -77
-99 -132 -98 -230 1 -93 23 -165 78 -251 41 -63 124 -154 197 -216 l48 -40 63
56 64 57 -5 56 c-4 49 -11 64 -53 116 -79 99 -101 201 -56 268 35 52 107 101
304 205 100 53 216 119 258 146 106 69 196 163 237 245 32 65 33 73 33 183 0
108 -2 119 -30 175 -28 56 -160 206 -181 205 -5 -1 -65 -22 -134 -48z m268
-207 c36 -71 41 -171 13 -245 -51 -134 -170 -234 -501 -421 -255 -145 -230
-131 -230 -126 0 3 83 55 185 117 302 182 402 261 476 373 70 107 74 212 15
345 -23 51 -24 55 -5 32 12 -14 33 -47 47 -75z m-967 -806 c-79 -145 -57 -286
67 -448 94 -122 97 -130 19 -48 -135 142 -182 253 -158 372 14 65 31 103 69
153 35 47 37 34 3 -29z"/>
<path d="M4706 5438 c-8 -37 -12 -478 -4 -478 14 0 16 20 23 258 4 168 3 242
-4 242 -6 0 -13 -10 -15 -22z"/>
<path d="M4584 5403 l-72 -36 5 -246 c3 -135 7 -247 8 -249 2 -2 35 13 74 32
l71 36 0 250 c0 138 -3 250 -7 249 -5 0 -40 -16 -79 -36z"/>
<path d="M4835 4656 l-90 -53 -3 -44 c-3 -41 0 -46 43 -82 61 -51 78 -87 73
-151 -9 -111 -79 -198 -284 -354 -232 -176 -314 -290 -322 -447 -8 -150 50
-283 182 -422 l40 -43 34 33 33 32 -6 75 c-4 41 -16 100 -27 130 -27 72 -29
173 -4 219 31 58 104 129 276 266 181 146 259 222 315 309 55 86 77 158 78
251 1 87 -15 131 -75 207 -32 40 -143 128 -161 127 -7 0 -52 -24 -102 -53z
m263 -186 c37 -77 37 -182 1 -260 -52 -111 -158 -225 -352 -378 -84 -67 -120
-86 -46 -25 24 20 98 90 165 157 226 227 277 378 186 550 -37 69 -38 76 -7 41
15 -16 39 -55 53 -85z m-783 -947 c0 -105 22 -192 71 -282 34 -61 30 -64 -10
-8 -72 102 -100 219 -76 330 6 31 12 57 13 57 2 0 2 -44 2 -97z"/>
<path d="M4686 4578 c-3 -7 -7 -121 -10 -252 -4 -198 -3 -237 8 -225 17 18 31
489 15 489 -5 0 -11 -6 -13 -12z"/>
<path d="M4599 4535 c-25 -13 -50 -29 -55 -37 -12 -15 -4 -482 8 -494 4 -4 27
9 51 29 42 34 44 39 50 104 9 95 9 423 0 423 -5 -1 -29 -12 -54 -25z"/>
<path d="M4776 3775 l-55 -45 -3 -68 c-2 -48 2 -78 14 -104 28 -58 32 -108 14
-179 -25 -95 -55 -138 -206 -294 -170 -176 -195 -220 -195 -341 1 -70 5 -89
32 -145 18 -35 57 -95 88 -132 l56 -68 40 55 40 56 -25 33 c-65 84 -94 202
-65 260 6 12 91 101 188 197 191 189 234 248 273 373 30 99 23 210 -19 297
-29 62 -95 150 -113 150 -4 0 -33 -20 -64 -45z m168 -295 c0 -86 -3 -101 -30
-160 -39 -82 -100 -156 -200 -244 l-79 -70 66 70 c36 38 82 90 102 115 79 99
134 269 123 379 -5 47 -4 51 6 30 6 -14 12 -68 12 -120z m-515 -886 c42 -91
32 -93 -13 -3 -32 64 -36 80 -35 143 l2 71 7 -72 c5 -48 19 -96 39 -139z"/>
<path d="M4666 3678 c-3 -7 -7 -105 -10 -218 -5 -181 -4 -203 9 -186 12 16 15
55 15 180 0 89 3 178 6 199 5 25 3 37 -5 37 -6 0 -13 -6 -15 -12z"/>
<path d="M4597 3622 l-37 -38 1 -169 c0 -94 4 -190 7 -215 l7 -44 31 39 31 40
6 213 c4 116 3 212 -1 212 -4 0 -25 -17 -45 -38z"/>
<path d="M4727 2982 c-22 -23 -27 -37 -27 -80 0 -34 7 -63 20 -84 47 -78 14
-187 -100 -333 -112 -143 -144 -248 -105 -342 13 -30 17 -33 30 -23 8 7 15 26
15 43 0 51 35 107 137 217 53 58 114 132 135 164 68 106 85 211 49 307 -21 55
-96 159 -115 159 -7 0 -24 -13 -39 -28z m99 -387 c-23 -45 -62 -98 -111 -150
l-76 -80 70 84 c93 109 132 189 140 283 l6 73 3 -70 c3 -62 0 -76 -32 -140z"/>
<path d="M4615 2877 l-40 -42 3 -125 c3 -104 6 -129 22 -150 l19 -25 20 24
c18 21 21 37 21 131 0 59 3 135 6 169 4 34 3 61 -2 61 -5 -1 -27 -20 -49 -43z
m22 -29 c-3 -8 -6 -5 -6 6 -1 11 2 17 5 13 3 -3 4 -12 1 -19z m0 -125 c-2 -21
-4 -4 -4 37 0 41 2 58 4 38 2 -21 2 -55 0 -75z"/>
<path d="M4666 2301 c-33 -34 -38 -44 -33 -71 9 -42 -10 -84 -71 -153 -75 -84
-81 -145 -22 -210 l29 -32 1 59 0 59 73 76 c76 80 97 123 97 197 0 45 -17 114
-28 114 -5 0 -25 -18 -46 -39z"/>
<path d="M4590 2188 c0 -19 2 -20 10 -8 13 19 13 30 0 30 -5 0 -10 -10 -10
-22z"/>
<path d="M4690 2035 c-7 -8 -15 -56 -18 -108 l-5 -92 23 20 c49 44 63 110 35
165 -18 35 -18 35 -35 15z"/>
<path d="M4616 1961 c-17 -18 -17 -46 -10 -405 4 -212 10 -386 14 -386 8 0 25
798 18 806 -3 2 -13 -5 -22 -15z"/>
</g>
</svg>
