<svg width="210" height="269" viewBox="0 0 210 269" fill="#E8565B" xmlns="http://www.w3.org/2000/svg">
<path fill-rule="evenodd" clip-rule="evenodd" d="M14.9288 261.362C14.9288 265.471 18.2674 268.805 22.3976 268.805H186.664C190.789 268.805 194.133 265.518 194.133 261.362V67.1754C194.133 63.066 190.795 59.7327 186.664 59.7327H22.3976C18.2726 59.7327 14.9288 63.0191 14.9288 67.1754V261.362ZM209.062 22.4687C209.062 18.3072 205.797 14.9323 201.578 14.9323H158.656C157.63 14.9323 156.156 14.2917 155.526 13.6615L147.172 5.30733C144.24 2.37507 138.464 0 134.432 0H74.6298C70.5256 0 64.8641 2.33333 61.8901 5.30733L53.536 13.6615C52.8329 14.3646 51.359 14.9323 50.4058 14.9323H7.48442C3.34895 14.9323 0 18.2448 0 22.4687V37.266C0 41.4275 3.28119 44.8024 7.43746 44.8024H201.624C205.733 44.8024 209.062 41.4899 209.062 37.266L209.062 22.4687Z"/>
</svg>
